SplineFontDB: 3.0
FontName: Tanha
FullName: Tanha
FamilyName: Tanha
Weight: Regular
Copyright: Copyright (c) 2003 by Bitstream, Inc. All Rights Reserved.\nDejaVu changes are in public domain\nChanges by Saber Rastikerdar are in public domain.
Version: 0.3
ItalicAngle: 0
UnderlinePosition: -100
UnderlineWidth: 100
Ascent: 1536
Descent: 512
InvalidEm: 0
LayerCount: 2
Layer: 0 1 "Back" 1
Layer: 1 1 "Fore" 0
XUID: [1021 502 1027637223 8921027]
UniqueID: 4250753
UseUniqueID: 1
FSType: 0
OS2Version: 1
OS2_WeightWidthSlopeOnly: 0
OS2_UseTypoMetrics: 1
CreationTime: 1431850356
ModificationTime: 1461367957
PfmFamily: 33
TTFWeight: 400
TTFWidth: 5
LineGap: 0
VLineGap: 0
Panose: 2 11 6 3 3 8 4 2 2 4
OS2TypoAscent: 2250
OS2TypoAOffset: 0
OS2TypoDescent: -750
OS2TypoDOffset: 0
OS2TypoLinegap: 0
OS2WinAscent: 2250
OS2WinAOffset: 0
OS2WinDescent: 750
OS2WinDOffset: 0
HheadAscent: 2250
HheadAOffset: 0
HheadDescent: -750
HheadDOffset: 0
OS2SubXSize: 1331
OS2SubYSize: 1433
OS2SubXOff: 0
OS2SubYOff: 286
OS2SupXSize: 1331
OS2SupYSize: 1433
OS2SupXOff: 0
OS2SupYOff: 983
OS2StrikeYSize: 102
OS2StrikeYPos: 530
OS2Vendor: 'PfEd'
OS2CodePages: 00000040.20080000
OS2UnicodeRanges: 80002000.80000000.00000008.00000000
Lookup: 1 0 0 "'case' Case-Sensitive Forms in Latin lookup 0" { "'case' Case-Sensitive Forms in Latin lookup 0 subtable"  } ['case' ('DFLT' <'dflt' > 'latn' <'CAT ' 'ESP ' 'GAL ' 'dflt' > ) ]
Lookup: 6 1 0 "'ccmp' Glyph Composition/Decomposition lookup 2" { "'ccmp' Glyph Composition/Decomposition lookup 2 subtable"  } ['ccmp' ('arab' <'KUR ' 'SND ' 'URD ' 'dflt' > 'hebr' <'dflt' > 'nko ' <'dflt' > ) ]
Lookup: 6 0 0 "'ccmp' Glyph Composition/Decomposition lookup 3" { "'ccmp' Glyph Composition/Decomposition lookup 3 subtable"  } ['ccmp' ('cyrl' <'MKD ' 'SRB ' 'dflt' > 'grek' <'dflt' > 'latn' <'ISM ' 'KSM ' 'LSM ' 'MOL ' 'NSM ' 'ROM ' 'SKS ' 'SSM ' 'dflt' > ) ]

StartChar: exclam
Encoding: 33 33 1
Width: 796
VWidth: 2241
GlyphClass: 2
Flags: W
LayerCount: 2
Fore
SplineSet
281.595703125 233.336914062 m 1,0,-1
 514.404296875 233.336914062 l 1,1,-1
 514.404296875 0 l 1,2,-1
 281.595703125 0 l 1,3,-1
 281.595703125 233.336914062 l 1,0,-1
303.0078125 1430.97265625 m 5,4,-1
 498.25390625 1430.97265625 l 5,5,-1
 498.25390625 812.9453125 l 1,6,-1
 477.99609375 496.55859375 l 1,7,-1
 324.279296875 496.55859375 l 1,8,-1
 302.99609375 813.366210938 l 1,9,-1
 303.0078125 1430.97265625 l 5,4,-1
EndSplineSet
EndChar

StartChar: period
Encoding: 46 46 2
Width: 654
VWidth: 2241
GlyphClass: 2
Flags: W
LayerCount: 2
Fore
SplineSet
210.381835938 233.336914062 m 1,0,-1
 443.19140625 233.336914062 l 1,1,-1
 443.19140625 0 l 1,2,-1
 210.381835938 0 l 1,3,-1
 210.381835938 233.336914062 l 1,0,-1
EndSplineSet
EndChar

StartChar: colon
Encoding: 58 58 3
Width: 710
VWidth: 2241
GlyphClass: 2
Flags: W
LayerCount: 2
Fore
SplineSet
238.381835938 903.096679688 m 1,0,-1
 471.19140625 903.096679688 l 1,1,-1
 471.19140625 669.759765625 l 1,2,-1
 238.381835938 669.759765625 l 1,3,-1
 238.381835938 903.096679688 l 1,0,-1
238.381835938 233.336914062 m 1,4,-1
 471.19140625 233.336914062 l 1,5,-1
 471.19140625 0 l 1,6,-1
 238.381835938 0 l 1,7,-1
 238.381835938 233.336914062 l 1,4,-1
EndSplineSet
EndChar

StartChar: afii57388
Encoding: 1548 1548 5
Width: 700
VWidth: 2248
GlyphClass: 2
Flags: W
LayerCount: 2
Fore
SplineSet
381.4140625 0 m 4,0,1
 264.077676237 1.37169737121 264.077676237 1.37169737121 239.251953125 115.157226562 c 4,2,3
 227.508789062 169.603515625 227.508789062 169.603515625 248.961914062 262.518554688 c 4,4,5
 287.708984375 432.975585938 287.708984375 432.975585938 470.189453125 607.583984375 c 5,6,-1
 527.608398438 570.881835938 l 5,7,8
 384.217278278 450.363878161 384.217278278 450.363878161 371.596679688 262.3359375 c 5,9,10
 389.787279429 262.57182215 389.787279429 262.57182215 399.5 262.032226562 c 4,11,12
 548.369242478 253.730905806 548.369242478 253.730905806 530.215820312 102.061523438 c 4,13,14
 518 0 518 0 381.4140625 0 c 4,0,1
EndSplineSet
EndChar

StartChar: uni0615
Encoding: 1557 1557 6
Width: -27
VWidth: 2304
GlyphClass: 4
Flags: W
AnchorPoint: "Anchor-10" 557.519 1383.15 mark 0
AnchorPoint: "Anchor-9" 557.519 1383.15 mark 0
AnchorPoint: "Anchor-1" 569.519 2080.6 basemark 0
AnchorPoint: "Anchor-1" 557.519 1383.15 mark 0
LayerCount: 2
Fore
SplineSet
474.836914062 1530.54980469 m 1,0,-1
 574.0390625 1530.54980469 l 2,1,2
 660.237513606 1530.54980469 660.237513606 1530.54980469 713.122809335 1561.77490235 c 0,3,4
 768 1595 768 1595 768 1638 c 0,5,6
 768 1668 768 1668 744 1681 c 0,7,8
 701 1705 701 1705 635 1667 c 0,9,10
 562 1625 562 1625 474.836914062 1530.54980469 c 1,0,-1
846.700195312 1640.93164062 m 0,11,12
 847.000184408 1451.88378906 847.000184408 1451.88378906 600.02734375 1451.88378906 c 2,13,-1
 293.467773438 1451.88378906 l 1,14,-1
 293.467773438 1530.54980469 l 1,15,-1
 384.991210938 1530.54980469 l 1,16,-1
 384.991210938 1981.38769531 l 1,17,-1
 464.787109375 1980.38769531 l 1,18,-1
 464 1605 l 1,19,20
 561 1715 561 1715 647.014648438 1747.5234375 c 0,21,22
 717.794865592 1773.35384839 717.794865592 1773.35384839 766 1756 c 0,23,24
 847 1726 847 1726 846.700195312 1640.93164062 c 0,11,12
EndSplineSet
EndChar

StartChar: uni061B
Encoding: 1563 1563 7
Width: 689
VWidth: 2248
GlyphClass: 2
Flags: W
LayerCount: 2
Fore
SplineSet
251.381835938 233.336914062 m 1,0,-1
 484.19140625 233.336914062 l 1,1,-1
 484.19140625 0 l 1,2,-1
 251.381835938 0 l 1,3,-1
 251.381835938 233.336914062 l 1,0,-1
362.609375 476.208984375 m 4,4,5
 245.127929688 478.262695312 245.127929688 478.262695312 220.431640625 591.334960938 c 0,6,7
 208.833984375 646.2265625 208.833984375 646.2265625 230.135742188 738.725585938 c 0,8,9
 269.03515625 909.602539062 269.03515625 909.602539062 451.41015625 1083.84375 c 1,10,-1
 510.020507812 1047.38671875 l 1,11,12
 365.529307948 923.74194426 365.529307948 923.74194426 352.754882812 738.524414062 c 1,13,14
 447.089784863 739.990637158 447.089784863 739.990637158 481.554169775 697.677447485 c 0,15,16
 518.1614024 652.733405066 518.1614024 652.733405066 511.389648438 578.26171875 c 0,17,18
 501 474 501 474 362.609375 476.208984375 c 4,4,5
EndSplineSet
EndChar

StartChar: uni061F
Encoding: 1567 1567 8
Width: 1093
VWidth: 2241
GlyphClass: 2
Flags: W
LayerCount: 2
Fore
SplineSet
490.381835938 233.336914062 m 1,0,-1
 723.19140625 233.336914062 l 1,1,-1
 723.19140625 0 l 1,2,-1
 490.381835938 0 l 1,3,-1
 490.381835938 233.336914062 l 1,0,-1
517.069335938 494.142578125 m 1,4,-1
 517.069335938 533.765625 l 2,5,6
 517 572 517 572 494.150390625 614.720703125 c 0,7,8
 470.744450809 658.477745255 470.744450809 658.477745255 405.485351562 722.25390625 c 2,9,-1
 314.592773438 811.081054688 l 1,10,11
 223 899 223 899 186.013671875 968.859375 c 0,12,13
 149 1038 149 1038 149.409179688 1102.64453125 c 0,14,15
 150 1254 150 1254 262.504882812 1352.59277344 c 0,16,17
 384 1459 384 1459 570.834960938 1459.16210938 c 0,18,19
 750 1459 750 1459 956.5703125 1338.16308594 c 1,20,-1
 884 1194 l 5,21,22
 722 1299 722 1299 587 1299.05711422 c 0,23,24
 488 1299 488 1299 414.962890625 1237.39453125 c 0,25,26
 345 1178 345 1178 344.80078125 1086.72265625 c 0,27,28
 345 1002 345 1002 458.500976562 896.752929688 c 24,29,-1
 551.375 804.911132812 l 24,30,31
 699.928710934 663.070745492 699.928710934 663.070745492 699.928710938 516.791992188 c 2,32,-1
 699.928710938 494.142578125 l 1,33,-1
 517.069335938 494.142578125 l 1,4,-1
EndSplineSet
EndChar

StartChar: uni0621
Encoding: 1569 1569 9
Width: 846
VWidth: 2393
GlyphClass: 2
Flags: W
AnchorPoint: "Anchor-7" 317.995 -270.737 basechar 0
AnchorPoint: "Anchor-10" 344.902 1328.84 basechar 0
LayerCount: 2
Fore
SplineSet
128.530273438 3.271484375 m 1,0,-1
 128.530273438 165.603515625 l 1,1,-1
 384.366210938 257.364257812 l 1,2,-1
 358.21484375 262.16796875 l 2,3,4
 96.470703125 310.671875 96.470703125 310.671875 97.7216796875 549.283203125 c 0,5,6
 98.669921875 729.456054688 98.669921875 729.456054688 256.399414062 815.257324219 c 128,-1,7
 414.12890625 901.05859375 414.12890625 901.05859375 637.155273438 838.423828125 c 1,8,-1
 637.155273438 689.138671875 l 1,9,10
 354.727911905 744.915522185 354.727911905 744.915522185 275.038085938 634.045898438 c 0,11,12
 249.482421875 598.4921875 249.482421875 598.4921875 249.235351562 548.189453125 c 0,13,14
 249.728515625 408.451171875 249.728515625 408.451171875 444.111328125 370.19921875 c 0,15,16
 615.07421875 336.629882812 615.07421875 336.629882812 748.83984375 410.096679688 c 1,17,-1
 748.83984375 242.235351562 l 1,18,-1
 128.530273438 3.271484375 l 1,0,-1
EndSplineSet
EndChar

StartChar: uni0627
Encoding: 1575 1575 15
Width: 510
VWidth: 2424
GlyphClass: 2
Flags: W
AnchorPoint: "Anchor-10" 252.469 1503.21 basechar 0
AnchorPoint: "Anchor-7" 239.656 -251.756 basechar 0
LayerCount: 2
Fore
SplineSet
333.64453125 1295.2890625 m 1,0,1
 369.181878977 1072.91110818 369.181878977 1072.91110818 370.0625 663.1875 c 0,2,3
 371 227 371 227 278.600585938 1.6689453125 c 1,4,-1
 150.897460938 1.6689453125 l 1,5,6
 220.135742188 398.444335938 220.135742188 398.444335938 215.912109375 712.467773438 c 128,-1,7
 211.689453125 1026.49121094 211.689453125 1026.49121094 186.249023438 1295.2890625 c 1,8,-1
 333.64453125 1295.2890625 l 1,0,1
EndSplineSet
Substitution2: "'fina' Terminal Forms in Arabic lookup 9 subtable" uniFE8E
EndChar

StartChar: uni062D
Encoding: 1581 1581 21
Width: 1329
VWidth: 2424
GlyphClass: 2
Flags: W
AnchorPoint: "Anchor-10" 516.419 1185.92 basechar 0
AnchorPoint: "Anchor-7" 398.46 -686.494 basechar 0
LayerCount: 2
Fore
SplineSet
760.997070312 571.864257812 m 0,0,1
 265 353 265 353 254.668945312 -40.451171875 c 0,2,3
 250 -222 250 -222 423.794921875 -328.79296875 c 0,4,5
 600 -437 600 -437 891.038085938 -399.600585938 c 0,6,7
 1023 -383 1023 -383 1191.43261719 -305.401367188 c 1,8,-1
 1227 -472 l 1,9,10
 1104 -536 1104 -536 967.546875 -556.81640625 c 0,11,12
 795 -583 795 -583 664.950195312 -571.145507812 c 0,13,14
 367 -544 367 -544 216.817382812 -373.788085938 c 0,15,16
 90 -230 90 -230 101.802734375 -17.248046875 c 0,17,18
 128 466 128 466 747.997070312 722.647460938 c 1,19,20
 665 733 665 733 600.134765625 747.284179688 c 0,21,22
 535 761 535 761 470.202148438 762.08984375 c 0,23,24
 343 763 343 763 213.844726562 599.368164062 c 1,25,-1
 101.216796875 686.005859375 l 1,26,27
 238 885 238 885 359.723632812 913.032226562 c 0,28,29
 478 940 478 940 684.212890625 880.5703125 c 0,30,31
 798 848 798 848 1023.82519531 782.254882812 c 1,32,-1
 997.381835938 624.46875 l 1,33,34
 893 631 893 631 760.997070312 571.864257812 c 0,0,1
EndSplineSet
Substitution2: "'fina' Terminal Forms in Arabic lookup 9 subtable" uniFEA2
Substitution2: "'medi' Medial Forms in Arabic lookup 11 subtable" uniFEA4
Substitution2: "'init' Initial Forms in Arabic lookup 13 subtable" uniFEA3
EndChar

StartChar: uni062F
Encoding: 1583 1583 23
Width: 1073
VWidth: 2424
GlyphClass: 2
Flags: W
AnchorPoint: "Anchor-10" 460.965 1349.56 basechar 0
AnchorPoint: "Anchor-7" 410.615 -223.182 basechar 0
LayerCount: 2
Fore
SplineSet
452.154296875 183.46484375 m 0,0,1
 696.272460938 197.428710938 696.272460938 197.428710938 743.788085938 278.518554688 c 0,2,3
 815.813476562 401.436523438 815.813476562 401.436523438 717.055664062 558.717773438 c 0,4,5
 597.466796875 749.173828125 597.466796875 749.173828125 447.72265625 845.756835938 c 1,6,-1
 555.456054688 1001.86035156 l 1,7,8
 956.173828125 687.265625 956.173828125 687.265625 915.993164062 304.963867188 c 0,9,10
 884.530273438 5.6123046875 884.530273438 5.6123046875 449.559570312 -2.7060546875 c 0,11,12
 216.693359375 -7.1611328125 216.693359375 -7.1611328125 100.747070312 34.5126953125 c 1,13,-1
 100.747070312 221.081054688 l 1,14,15
 295.728515625 173.5078125 295.728515625 173.5078125 452.154296875 183.46484375 c 0,0,1
EndSplineSet
Substitution2: "'fina' Terminal Forms in Arabic lookup 9 subtable" uniFEAA
EndChar

StartChar: uni0631
Encoding: 1585 1585 25
Width: 810
VWidth: 2429
GlyphClass: 2
Flags: W
AnchorPoint: "Anchor-7" 383.987 -704.544 basechar 0
AnchorPoint: "Anchor-10" 400.551 1027.99 basechar 0
LayerCount: 2
Fore
SplineSet
700.973632812 89.6171875 m 0,0,1
 624 -445 624 -445 91 -515 c 1,2,-1
 11.0546875 -398.32421875 l 1,3,4
 506 -290 506 -290 549.193359375 129.184570312 c 0,5,6
 558 216 558 216 542.509765625 495.740234375 c 1,7,-1
 699.831054688 530.099609375 l 1,8,9
 716 194 716 194 700.973632812 89.6171875 c 0,0,1
EndSplineSet
PairPos2: "'kern' Horizontal Kerning lookup 15-1" uniFEE7 dx=-150 dy=0 dh=-150 dv=0 dx=0 dy=0 dh=0 dv=0
PairPos2: "'kern' Horizontal Kerning lookup 15-2" uniFB90 dx=-190 dy=0 dh=-190 dv=0 dx=0 dy=0 dh=0 dv=0
PairPos2: "'kern' Horizontal Kerning lookup 15-2" uniFB8E dx=-190 dy=0 dh=-190 dv=0 dx=0 dy=0 dh=0 dv=0
PairPos2: "'kern' Horizontal Kerning lookup 15-2" uni06A9 dx=-190 dy=0 dh=-190 dv=0 dx=0 dy=0 dh=0 dv=0
PairPos2: "'kern' Horizontal Kerning lookup 15-2" uni064A dx=-50 dy=0 dh=-50 dv=0 dx=0 dy=0 dh=0 dv=0
PairPos2: "'kern' Horizontal Kerning lookup 15-2" afii57414 dx=-50 dy=0 dh=-50 dv=0 dx=0 dy=0 dh=0 dv=0
PairPos2: "'kern' Horizontal Kerning lookup 15-2" uni0649 dx=-50 dy=0 dh=-50 dv=0 dx=0 dy=0 dh=0 dv=0
PairPos2: "'kern' Horizontal Kerning lookup 15-2" uni0648 dx=-50 dy=0 dh=-50 dv=0 dx=0 dy=0 dh=0 dv=0
PairPos2: "'kern' Horizontal Kerning lookup 15-2" afii57412 dx=-50 dy=0 dh=-50 dv=0 dx=0 dy=0 dh=0 dv=0
PairPos2: "'kern' Horizontal Kerning lookup 15-2" uniFEEB dx=-150 dy=0 dh=-150 dv=0 dx=0 dy=0 dh=0 dv=0
PairPos2: "'kern' Horizontal Kerning lookup 15-2" uni0647 dx=-150 dy=0 dh=-150 dv=0 dx=0 dy=0 dh=0 dv=0
PairPos2: "'kern' Horizontal Kerning lookup 15-2" uni0646 dx=-50 dy=0 dh=-50 dv=0 dx=0 dy=0 dh=0 dv=0
PairPos2: "'kern' Horizontal Kerning lookup 15-2" uniFEE3 dx=-150 dy=0 dh=-150 dv=0 dx=0 dy=0 dh=0 dv=0
PairPos2: "'kern' Horizontal Kerning lookup 15-2" uni0645 dx=-150 dy=0 dh=-150 dv=0 dx=0 dy=0 dh=0 dv=0
PairPos2: "'kern' Horizontal Kerning lookup 15-2" uniFEFB dx=-150 dy=0 dh=-150 dv=0 dx=0 dy=0 dh=0 dv=0
PairPos2: "'kern' Horizontal Kerning lookup 15-2" uniFEDF dx=-150 dy=0 dh=-150 dv=0 dx=0 dy=0 dh=0 dv=0
PairPos2: "'kern' Horizontal Kerning lookup 15-2" uni0644 dx=-50 dy=0 dh=-50 dv=0 dx=0 dy=0 dh=0 dv=0
PairPos2: "'kern' Horizontal Kerning lookup 15-2" uniFEDB dx=-190 dy=0 dh=-190 dv=0 dx=0 dy=0 dh=0 dv=0
PairPos2: "'kern' Horizontal Kerning lookup 15-2" uni0643 dx=-150 dy=0 dh=-150 dv=0 dx=0 dy=0 dh=0 dv=0
PairPos2: "'kern' Horizontal Kerning lookup 15-2" uniFED7 dx=-150 dy=0 dh=-150 dv=0 dx=0 dy=0 dh=0 dv=0
PairPos2: "'kern' Horizontal Kerning lookup 15-2" uni0642 dx=-50 dy=0 dh=-50 dv=0 dx=0 dy=0 dh=0 dv=0
PairPos2: "'kern' Horizontal Kerning lookup 15-2" uniFED3 dx=-150 dy=0 dh=-150 dv=0 dx=0 dy=0 dh=0 dv=0
PairPos2: "'kern' Horizontal Kerning lookup 15-2" uni0641 dx=-150 dy=0 dh=-150 dv=0 dx=0 dy=0 dh=0 dv=0
PairPos2: "'kern' Horizontal Kerning lookup 15-2" uniFECF dx=-150 dy=0 dh=-150 dv=0 dx=0 dy=0 dh=0 dv=0
PairPos2: "'kern' Horizontal Kerning lookup 15-2" uniFECB dx=-150 dy=0 dh=-150 dv=0 dx=0 dy=0 dh=0 dv=0
PairPos2: "'kern' Horizontal Kerning lookup 15-2" uniFEC7 dx=-150 dy=0 dh=-150 dv=0 dx=0 dy=0 dh=0 dv=0
PairPos2: "'kern' Horizontal Kerning lookup 15-2" uni0638 dx=-150 dy=0 dh=-150 dv=0 dx=0 dy=0 dh=0 dv=0
PairPos2: "'kern' Horizontal Kerning lookup 15-2" uniFEC3 dx=-150 dy=0 dh=-150 dv=0 dx=0 dy=0 dh=0 dv=0
PairPos2: "'kern' Horizontal Kerning lookup 15-2" uni0637 dx=-150 dy=0 dh=-150 dv=0 dx=0 dy=0 dh=0 dv=0
PairPos2: "'kern' Horizontal Kerning lookup 15-2" uniFEBF dx=-150 dy=0 dh=-150 dv=0 dx=0 dy=0 dh=0 dv=0
PairPos2: "'kern' Horizontal Kerning lookup 15-2" uni0636 dx=-150 dy=0 dh=-150 dv=0 dx=0 dy=0 dh=0 dv=0
PairPos2: "'kern' Horizontal Kerning lookup 15-2" uniFEBB dx=-150 dy=0 dh=-150 dv=0 dx=0 dy=0 dh=0 dv=0
PairPos2: "'kern' Horizontal Kerning lookup 15-2" uni0635 dx=-150 dy=0 dh=-150 dv=0 dx=0 dy=0 dh=0 dv=0
PairPos2: "'kern' Horizontal Kerning lookup 15-2" uniFEB7 dx=-150 dy=0 dh=-150 dv=0 dx=0 dy=0 dh=0 dv=0
PairPos2: "'kern' Horizontal Kerning lookup 15-2" uni0634 dx=-150 dy=0 dh=-150 dv=0 dx=0 dy=0 dh=0 dv=0
PairPos2: "'kern' Horizontal Kerning lookup 15-2" uniFEB3 dx=-150 dy=0 dh=-150 dv=0 dx=0 dy=0 dh=0 dv=0
PairPos2: "'kern' Horizontal Kerning lookup 15-2" uni0633 dx=-150 dy=0 dh=-150 dv=0 dx=0 dy=0 dh=0 dv=0
PairPos2: "'kern' Horizontal Kerning lookup 15-2" uni0632 dx=-50 dy=0 dh=-50 dv=0 dx=0 dy=0 dh=0 dv=0
PairPos2: "'kern' Horizontal Kerning lookup 15-2" uni0631 dx=-50 dy=0 dh=-50 dv=0 dx=0 dy=0 dh=0 dv=0
PairPos2: "'kern' Horizontal Kerning lookup 15-2" uni0630 dx=-150 dy=0 dh=-150 dv=0 dx=0 dy=0 dh=0 dv=0
PairPos2: "'kern' Horizontal Kerning lookup 15-2" uni062F dx=-150 dy=0 dh=-150 dv=0 dx=0 dy=0 dh=0 dv=0
PairPos2: "'kern' Horizontal Kerning lookup 15-2" uniFEA7 dx=-150 dy=0 dh=-150 dv=0 dx=0 dy=0 dh=0 dv=0
PairPos2: "'kern' Horizontal Kerning lookup 15-2" uniFEA3 dx=-150 dy=0 dh=-150 dv=0 dx=0 dy=0 dh=0 dv=0
PairPos2: "'kern' Horizontal Kerning lookup 15-2" uniFE9F dx=-150 dy=0 dh=-150 dv=0 dx=0 dy=0 dh=0 dv=0
PairPos2: "'kern' Horizontal Kerning lookup 15-2" uniFE9B dx=-150 dy=0 dh=-150 dv=0 dx=0 dy=0 dh=0 dv=0
PairPos2: "'kern' Horizontal Kerning lookup 15-2" uni062B dx=-150 dy=0 dh=-150 dv=0 dx=0 dy=0 dh=0 dv=0
PairPos2: "'kern' Horizontal Kerning lookup 15-2" uniFE97 dx=-150 dy=0 dh=-150 dv=0 dx=0 dy=0 dh=0 dv=0
PairPos2: "'kern' Horizontal Kerning lookup 15-2" uni062A dx=-150 dy=0 dh=-150 dv=0 dx=0 dy=0 dh=0 dv=0
PairPos2: "'kern' Horizontal Kerning lookup 15-2" uni0629 dx=-150 dy=0 dh=-150 dv=0 dx=0 dy=0 dh=0 dv=0
PairPos2: "'kern' Horizontal Kerning lookup 15-2" uniFE91 dx=-50 dy=0 dh=-50 dv=0 dx=0 dy=0 dh=0 dv=0
PairPos2: "'kern' Horizontal Kerning lookup 15-2" uni0628 dx=-150 dy=0 dh=-150 dv=0 dx=0 dy=0 dh=0 dv=0
PairPos2: "'kern' Horizontal Kerning lookup 15-2" uni0627 dx=-190 dy=0 dh=-190 dv=0 dx=0 dy=0 dh=0 dv=0
PairPos2: "'kern' Horizontal Kerning lookup 15-2" uni0623 dx=-190 dy=0 dh=-190 dv=0 dx=0 dy=0 dh=0 dv=0
PairPos2: "'kern' Horizontal Kerning lookup 15-2" uni0622 dx=-190 dy=0 dh=-190 dv=0 dx=0 dy=0 dh=0 dv=0
PairPos2: "'kern' Horizontal Kerning lookup 15-2" uni0621 dx=-150 dy=0 dh=-150 dv=0 dx=0 dy=0 dh=0 dv=0
PairPos2: "'kern' Horizontal Kerning lookup 15-2" uniFB94 dx=-190 dy=0 dh=-190 dv=0 dx=0 dy=0 dh=0 dv=0
PairPos2: "'kern' Horizontal Kerning lookup 15-2" uniFB92 dx=-190 dy=0 dh=-190 dv=0 dx=0 dy=0 dh=0 dv=0
PairPos2: "'kern' Horizontal Kerning lookup 15-2" afii57509 dx=-190 dy=0 dh=-190 dv=0 dx=0 dy=0 dh=0 dv=0
PairPos2: "'kern' Horizontal Kerning lookup 15-2" afii57508 dx=-50 dy=0 dh=-50 dv=0 dx=0 dy=0 dh=0 dv=0
PairPos2: "'kern' Horizontal Kerning lookup 15-2" afii57506 dx=-150 dy=0 dh=-150 dv=0 dx=0 dy=0 dh=0 dv=0
PairPos2: "'kern' Horizontal Kerning lookup 15-2" afii57440 dx=-150 dy=0 dh=-150 dv=0 dx=0 dy=0 dh=0 dv=0
PairPos2: "'kern' Horizontal Kerning lookup 15-2" uniFE8B dx=-150 dy=0 dh=-150 dv=0 dx=0 dy=0 dh=0 dv=0
Substitution2: "'fina' Terminal Forms in Arabic lookup 9 subtable" uniFEAE
EndChar

StartChar: uni0633
Encoding: 1587 1587 27
Width: 2606
VWidth: 2429
GlyphClass: 2
Flags: W
AnchorPoint: "Anchor-7" 428.256 -683.733 basechar 0
AnchorPoint: "Anchor-10" 593.867 939.731 basechar 0
LayerCount: 2
Fore
SplineSet
2110.16601562 172.3671875 m 0,0,1
 2175 173 2175 173 2207.85253906 193.984375 c 0,2,3
 2407 320 2407 320 2241.54882812 712.1484375 c 1,4,-1
 2386.29492188 777.104492188 l 1,5,6
 2548 423 2548 423 2415.8515625 166.853515625 c 0,7,8
 2329 -2 2329 -2 2087.9921875 -1.1201171875 c 0,9,10
 1871 0 1871 0 1817.99902344 165.08984375 c 1,11,-1
 1815.7265625 157.868164062 l 2,12,13
 1766 1 1766 1 1591.09179688 0 c 0,14,15
 1403.25681917 -0.998634607282 1403.25681917 -0.998634607282 1364.57617188 80.3935546875 c 1,16,17
 1348 -181 1348 -181 1229.53808594 -328.78125 c 0,18,19
 1084 -510 1084 -510 751.006835938 -522.875976562 c 0,20,21
 463 -534 463 -534 304.671875 -430.848632812 c 0,22,23
 89 -290 89 -290 99.7646484375 -20.9775390625 c 0,24,25
 114 329 114 329 392.208007812 611.102539062 c 1,26,-1
 509.326171875 523.780273438 l 1,27,28
 125 30 125 30 342.3671875 -232.975585938 c 0,29,30
 446 -359 446 -359 756.887695312 -356.456054688 c 0,31,32
 1196 -353 1196 -353 1216.13867188 41.8154296875 c 0,33,34
 1231 335 1231 335 1198.7109375 454.731445312 c 1,35,-1
 1363.37011719 539.232421875 l 1,36,-1
 1376.51855469 332.018554688 l 2,37,38
 1387 173 1387 173 1587.76367188 176.7734375 c 0,39,40
 1711.26852657 179.004851582 1711.26852657 179.004851582 1773.74023438 325.544921875 c 2,41,-1
 1857.79394531 522.709960938 l 1,42,-1
 1973.08984375 522.709960938 l 1,43,-1
 1943.390625 351.213867188 l 2,44,45
 1912 170 1912 170 2110.16601562 172.3671875 c 0,0,1
EndSplineSet
Substitution2: "'fina' Terminal Forms in Arabic lookup 9 subtable" uniFEB2
Substitution2: "'medi' Medial Forms in Arabic lookup 11 subtable" uniFEB4
Substitution2: "'init' Initial Forms in Arabic lookup 13 subtable" uniFEB3
EndChar

StartChar: uni0635
Encoding: 1589 1589 29
Width: 2603
VWidth: 2424
GlyphClass: 2
Flags: W
AnchorPoint: "Anchor-10" 624.185 1022.93 basechar 0
AnchorPoint: "Anchor-7" 409.497 -659.419 basechar 0
LayerCount: 2
Fore
SplineSet
1609.22851562 196.259765625 m 1,0,-1
 1812.31054688 196.259765625 l 2,1,2
 2294.06445312 196.259765625 2294.06445312 196.259765625 2336.13964844 391.783203125 c 0,3,4
 2347.43359375 458.375976562 2347.43359375 458.375976562 2312.53808594 522.135742188 c 128,-1,5
 2277.64257812 585.895507812 2277.64257812 585.895507812 2184.50488281 590.727539062 c 0,6,7
 2080.9988558 596.563934637 2080.9988558 596.563934637 1948.22753906 512.184570312 c 24,8,9
 1776 403 1776 403 1609.22851562 196.259765625 c 1,0,-1
1364.48339844 539.231445312 m 1,10,11
 1359 302 1359 302 1375.01367188 270.4296875 c 1,12,13
 1397 243 1397 243 1457.32714844 250.709960938 c 1,14,15
 1689 588 1689 588 1980.45117188 718.694335938 c 0,16,17
 2202 818 2202 818 2357.71777344 724.65234375 c 0,18,19
 2542 614 2542 614 2508.84472656 364.275390625 c 0,20,21
 2490 220 2490 220 2346.71191406 119.1640625 c 0,22,23
 2179 0 2179 0 1876.59082031 0 c 2,24,-1
 1539.94824219 0 l 2,25,26
 1441 0 1441 0 1387.59082031 69.794921875 c 1,27,-1
 1365.32324219 70.1328125 l 1,28,29
 1349 -181 1349 -181 1230.65039062 -328.78125 c 0,30,31
 1085 -510 1085 -510 752.119140625 -522.875976562 c 0,32,33
 464 -534 464 -534 305.78515625 -430.848632812 c 0,34,35
 90 -290 90 -290 100.877929688 -20.9833984375 c 0,36,37
 116 330 116 330 393.3203125 611.102539062 c 1,38,-1
 510.438476562 523.780273438 l 1,39,40
 126 30 126 30 343.479492188 -232.975585938 c 0,41,42
 447 -359 447 -359 758 -356.456054688 c 0,43,44
 1197 -353 1197 -353 1217.25097656 41.8154296875 c 0,45,46
 1232 335 1232 335 1199.82421875 454.731445312 c 1,47,-1
 1364.48339844 539.231445312 l 1,10,11
EndSplineSet
Substitution2: "'fina' Terminal Forms in Arabic lookup 9 subtable" uniFEBA
Substitution2: "'medi' Medial Forms in Arabic lookup 11 subtable" uniFEBC
Substitution2: "'init' Initial Forms in Arabic lookup 13 subtable" uniFEBB
EndChar

StartChar: uni0637
Encoding: 1591 1591 31
Width: 1578
VWidth: 2424
GlyphClass: 2
Flags: W
AnchorPoint: "Anchor-10" 326.476 1467.44 basechar 0
AnchorPoint: "Anchor-7" 556.613 -256.025 basechar 0
LayerCount: 2
Fore
SplineSet
576.138671875 196.259765625 m 1,0,-1
 779.215820312 196.259765625 l 2,1,2
 1274 196 1274 196 1303.078125 391.950195312 c 0,3,4
 1315 473 1315 473 1283.76953125 528.682617188 c 0,5,6
 1249 591 1249 591 1146.60099382 590.991398024 c 0,7,8
 1038.38989119 591.001033839 1038.38989119 591.001033839 915.142578125 512.184570312 c 24,9,10
 744 402 744 402 576.138671875 196.259765625 c 1,0,-1
406.298828125 1296.51269531 m 1,11,12
 372 1015 372 1015 371.5 777.270994312 c 0,13,14
 372 539 372 539 396 218 c 1,15,16
 826.102010794 775.211196115 826.102010794 775.211196115 1160.45898438 773.543945312 c 0,17,18
 1260 774 1260 774 1324.63964844 734.645507812 c 0,19,20
 1481 642 1481 642 1481.0950415 441.9160037 c 0,21,22
 1481 405 1481 405 1475.75488281 364.275390625 c 0,23,24
 1457 220 1457 220 1313.62207031 119.1640625 c 0,25,26
 1146 0 1146 0 843.499023438 0 c 2,27,-1
 99.958984375 0 l 1,28,-1
 99.958984375 183.989257812 l 1,29,-1
 267.623046875 183.990234375 l 1,30,31
 223 343 223 343 223.485167401 690.727997109 c 0,32,33
 223 1038 223 1038 255.665039062 1297.61230469 c 1,34,-1
 406.298828125 1296.51269531 l 1,11,12
EndSplineSet
Substitution2: "'fina' Terminal Forms in Arabic lookup 9 subtable" uniFEC2
Substitution2: "'medi' Medial Forms in Arabic lookup 11 subtable" uniFEC4
Substitution2: "'init' Initial Forms in Arabic lookup 13 subtable" uniFEC3
EndChar

StartChar: uni0639
Encoding: 1593 1593 33
Width: 1331
VWidth: 2424
GlyphClass: 2
Flags: W
AnchorPoint: "Anchor-10" 524.861 1494.1 basechar 0
AnchorPoint: "Anchor-7" 319.874 -692.271 basechar 0
LayerCount: 2
Fore
SplineSet
331.345703125 407.219726562 m 1,0,1
 127 452 127 452 103.5546875 685.389648438 c 0,2,3
 85 871 85 871 252.081054688 1043.46484375 c 0,4,5
 526 1324 526 1324 753.520507812 1174.68652344 c 0,6,7
 824 1128 824 1128 872.915039062 988.51953125 c 0,8,9
 894 928 894 928 896.115234375 837.698242188 c 1,10,-1
 783.053710938 840.928710938 l 1,11,12
 740 1078 740 1078 559.525390625 1042.07617188 c 0,13,14
 416 1014 416 1014 316.76953125 864.729492188 c 0,15,16
 125 578 125 578 461.676757812 515.942382812 c 1,17,-1
 462.806640625 516.043945312 l 1,18,19
 622.195727415 586.996585869 622.195727415 586.996585869 734.169921875 615.012695312 c 0,20,21
 882 652 882 652 991.365234375 647.555664062 c 1,22,-1
 1043.36035156 501.732421875 l 1,23,24
 731 471 731 471 563.849609375 371.290039062 c 0,25,26
 272 198 272 198 262.78515625 -6.171875 c 0,27,28
 254 -201 254 -201 389.060546875 -302.203125 c 0,29,30
 525 -404 525 -404 740.649414062 -393.833984375 c 0,31,32
 1024 -380 1024 -380 1193.47167969 -295.578125 c 1,33,-1
 1229 -462 l 1,34,35
 1088 -527 1088 -527 856.344726562 -553.15625 c 0,36,37
 392 -605 392 -605 205.954101562 -380.143554688 c 0,38,39
 77 -224 77 -224 96.3310546875 20.564453125 c 0,40,41
 116 265 116 265 331.345703125 407.219726562 c 1,0,1
EndSplineSet
Substitution2: "'fina' Terminal Forms in Arabic lookup 9 subtable" uniFECA
Substitution2: "'medi' Medial Forms in Arabic lookup 11 subtable" uniFECC
Substitution2: "'init' Initial Forms in Arabic lookup 13 subtable" uniFECB
EndChar

StartChar: afii57440
Encoding: 1600 1600 35
Width: 711
VWidth: 2424
GlyphClass: 2
Flags: W
AnchorPoint: "Anchor-10" 366.112 1418.88 basechar 0
AnchorPoint: "Anchor-7" 345.112 -206.606 basechar 0
LayerCount: 2
Fore
SplineSet
-10.783203125 0 m 1,0,-1
 -10.783203125 183.989257812 l 1,1,-1
 721.0078125 183.989257812 l 1,2,-1
 721.0078125 0 l 1,3,-1
 -10.783203125 0 l 1,0,-1
EndSplineSet
EndChar

StartChar: uni0643
Encoding: 1603 1603 38
Width: 1975
VWidth: 2424
GlyphClass: 2
Flags: W
AnchorPoint: "Anchor-10" 587.737 1523.38 basechar 0
AnchorPoint: "Anchor-7" 529.888 -250.644 basechar 0
LayerCount: 2
Fore
SplineSet
1817.30859375 394.349609375 m 0,0,1
 1780 147 1780 147 1472.90234375 51.75 c 0,2,3
 1320 4 1320 4 948.35546875 2.1103515625 c 0,4,5
 577 -0 577 -0 373.662109375 89.720703125 c 0,6,7
 120 203 120 203 103.926757812 465.259765625 c 0,8,9
 91 687 91 687 243.19140625 884.463867188 c 1,10,-1
 360 818.916992188 l 1,11,12
 253 672 253 672 260.131835938 485.079101562 c 0,13,14
 270 254 270 254 621.674804688 200.03125 c 0,15,16
 707 187 707 187 894.856445312 186.256835938 c 1,17,18
 1653.12022169 158.99567778 1653.12022169 158.99567778 1680.65527344 421.709960938 c 2,19,-1
 1687.09667969 483.16796875 l 1,20,21
 1692 505 1692 505 1693.87695312 785.913085938 c 0,22,23
 1696 999 1696 999 1656.17089844 1288.58984375 c 1,24,-1
 1806.81933594 1291.02832031 l 1,25,26
 1831 1158 1831 1158 1844.34277344 752.26171875 c 0,27,28
 1849 602 1849 602 1817.30859375 394.349609375 c 0,0,1
1157.30664062 1189.79589844 m 1,29,-1
 1157.30664062 1136.00292969 l 1,30,31
 1081 1130 1081 1130 1038.28125 1114.53710938 c 0,32,33
 929 1073 929 1073 928.754882812 1018.92480469 c 0,34,35
 929 978 929 978 949.15234375 951.341796875 c 0,36,37
 970 925 970 925 1041.68554688 914.041015625 c 0,38,39
 1114 903 1114 903 1140.7265625 878.857421875 c 0,40,41
 1168 854 1168 854 1167.63085938 810.606445312 c 0,42,43
 1168 705 1168 705 1060.68164062 644.381835938 c 0,44,45
 954 584 954 584 765.676757812 614.7421875 c 1,46,-1
 765.676757812 675.793945312 l 1,47,48
 832 667 832 667 896.861328125 667.163085938 c 0,49,50
 962 667 962 667 1015.76367188 688.419921875 c 0,51,52
 1111 725 1111 725 1110.88769531 786.798828125 c 0,53,54
 1111 856 1111 856 1000.24707031 873.875 c 0,55,56
 869 894 869 894 871.614257812 1014.81347656 c 0,57,58
 874 1098 874 1098 956.518554688 1140.015625 c 128,-1,59
 1039 1182 1039 1182 1157.30664062 1189.79589844 c 1,29,-1
EndSplineSet
Substitution2: "'fina' Terminal Forms in Arabic lookup 9 subtable" uniFEDA
Substitution2: "'medi' Medial Forms in Arabic lookup 11 subtable" uniFEDC
Substitution2: "'init' Initial Forms in Arabic lookup 13 subtable" uniFEDB
EndChar

StartChar: uni0644
Encoding: 1604 1604 39
Width: 1477
VWidth: 2429
GlyphClass: 2
Flags: W
AnchorPoint: "Anchor-10" 652.374 1172.8 basechar 0
AnchorPoint: "Anchor-7" 384.192 -684.304 basechar 0
LayerCount: 2
Fore
SplineSet
1346.84960938 778.33984375 m 0,0,1
 1339 204 1339 204 1303.609375 11.09375 c 0,2,3
 1263 -214 1263 -214 1140.8984375 -355.921875 c 0,4,5
 1003 -514 1003 -514 750.621582031 -522.907714844 c 0,6,7
 464 -534 464 -534 305.78515625 -430.848632812 c 0,8,9
 90 -290 90 -290 100.877929688 -20.9775390625 c 0,10,11
 115 329 115 329 393.3203125 611.102539062 c 1,12,-1
 510.438476562 523.780273438 l 1,13,14
 126 30 126 30 343.479492188 -232.975585938 c 0,15,16
 442 -353 442 -353 754 -356.5 c 0,17,18
 1064 -360 1064 -360 1148.14941406 -6.462890625 c 0,19,20
 1202 222 1202 222 1194.30859375 658.614257812 c 0,21,22
 1187 1043 1187 1043 1163.03515625 1292.5078125 c 1,23,-1
 1310.42382812 1292.5078125 l 1,24,25
 1350 1037 1350 1037 1346.84960938 778.33984375 c 0,0,1
EndSplineSet
Substitution2: "'fina' Terminal Forms in Arabic lookup 9 subtable" uniFEDE
Substitution2: "'medi' Medial Forms in Arabic lookup 11 subtable" uniFEE0
Substitution2: "'init' Initial Forms in Arabic lookup 13 subtable" uniFEDF
EndChar

StartChar: uni0645
Encoding: 1605 1605 40
Width: 1462
VWidth: 2424
GlyphClass: 2
Flags: W
AnchorPoint: "Anchor-10" 703.994 1117.52 basechar 0
AnchorPoint: "Anchor-7" 328.677 -541.071 basechar 0
LayerCount: 2
Fore
SplineSet
708.19921875 484.166992188 m 1,0,1
 900.690429688 757.750976562 900.690429688 757.750976562 1107.390625 729.740234375 c 0,2,3
 1365.09472656 694.092773438 1365.09472656 694.092773438 1359.33691406 322.7265625 c 0,4,5
 1357.98632812 229.462890625 1357.98632812 229.462890625 1313.22851562 135.987304688 c 128,-1,6
 1268.46972656 42.5107421875 1268.46972656 42.5107421875 1131.87109375 22.08203125 c 0,7,8
 894.645507812 -12.8017578125 894.645507812 -12.8017578125 673.317382812 187.680664062 c 1,9,10
 568.276367188 -8.6455078125 568.276367188 -8.6455078125 452.939453125 -123.459960938 c 128,-1,11
 337.602539062 -238.275390625 337.602539062 -238.275390625 112.37890625 -320.711914062 c 1,12,-1
 58.51953125 -161.377929688 l 1,13,14
 239.975585938 -106.249023438 239.975585938 -106.249023438 374.37109375 36.2109375 c 128,-1,15
 508.767578125 178.669921875 508.767578125 178.669921875 708.19921875 484.166992188 c 1,0,1
782.380859375 300.479492188 m 1,16,17
 830.770507812 252.905273438 830.770507812 252.905273438 945.442382812 209.686523438 c 128,-1,18
 1060.11425781 166.466796875 1060.11425781 166.466796875 1123.97460938 196.54296875 c 128,-1,19
 1187.8359375 226.618164062 1187.8359375 226.618164062 1199.98535156 306.430664062 c 0,20,21
 1238.83984375 546.400390625 1238.83984375 546.400390625 1077.62988281 556.055664062 c 0,22,23
 987.6640625 560.8828125 987.6640625 560.8828125 916.498046875 488.33984375 c 0,24,25
 821.165039062 388.768554688 821.165039062 388.768554688 782.380859375 300.479492188 c 1,16,17
EndSplineSet
Substitution2: "'init' Initial Forms in Arabic lookup 13 subtable" uniFEE3
Substitution2: "'medi' Medial Forms in Arabic lookup 11 subtable" uniFEE4
Substitution2: "'fina' Terminal Forms in Arabic lookup 9 subtable" uniFEE2
EndChar

StartChar: uni0647
Encoding: 1607 1607 42
Width: 1009
VWidth: 2424
GlyphClass: 2
Flags: W
AnchorPoint: "Anchor-10" 495.1 1218.4 basechar 0
AnchorPoint: "Anchor-7" 442.317 -237.77 basechar 0
LayerCount: 2
Fore
SplineSet
563.244334182 662.569461259 m 1,0,1
 328.569116133 509.646771483 328.569116133 509.646771483 302.970984071 379.659633955 c 0,2,3
 273.825000211 233.387494707 273.825000211 233.387494707 401.945104602 184.88314483 c 0,4,5
 472.254930404 158.264997841 472.254930404 158.264997841 565.856147767 176.333169935 c 0,6,7
 730.843725519 205.729301421 730.843725519 205.729301421 695.19441454 396.354221493 c 0,8,9
 671.10855071 525.276006686 671.10855071 525.276006686 563.244334182 662.569461259 c 1,0,1
251.391849278 80.5110267658 m 0,10,11
 129.994409931 173.218208585 129.994409931 173.218208585 131.860927644 332.523163478 c 0,12,13
 134.159200503 483.911376182 134.159200503 483.911376182 263.978296114 620.063880803 c 0,14,15
 314.941814979 673.564609704 314.941814979 673.564609704 365.010432579 716.27082369 c 128,-1,16
 415.07905018 758.977037677 415.07905018 758.977037677 464.042743649 790.785854387 c 1,17,-1
 433.610491189 830.858467416 l 1,18,-1
 552.012037811 924.62131284 l 1,19,-1
 555.151823626 921.120744596 l 2,20,21
 670.807263766 792.175719402 670.807263766 792.175719402 741.531432696 673.845177068 c 128,-1,22
 812.255601626 555.514634734 812.255601626 555.514634734 838.00694414 447.591458202 c 0,23,24
 920.106258588 103.619235778 920.106258588 103.619235778 642.181582516 31.0198746253 c 0,25,26
 542.321231884 4.67753200289 542.321231884 4.67753200289 432.727525403 18.6827429675 c 0,27,28
 313.512398689 33.1068745694 313.512398689 33.1068745694 251.391849278 80.5110267658 c 0,10,11
EndSplineSet
Substitution2: "'fina' Terminal Forms in Arabic lookup 9 subtable" uniFEEA
Substitution2: "'medi' Medial Forms in Arabic lookup 11 subtable" uniFEEC
Substitution2: "'init' Initial Forms in Arabic lookup 13 subtable" uniFEEB
EndChar

StartChar: uni0648
Encoding: 1608 1608 43
Width: 891
VWidth: 2424
GlyphClass: 2
Flags: W
AnchorPoint: "Anchor-10" 363.801 1146.29 basechar 0
AnchorPoint: "Anchor-7" 481.263 -637.755 basechar 0
LayerCount: 2
Fore
SplineSet
265.234375 292.600585938 m 0,0,1
 265.234375 157.489257812 265.234375 157.489257812 467.111328125 157.489257812 c 0,2,3
 561.318359375 157.489257812 561.318359375 157.489257812 638.587890625 194.158203125 c 1,4,5
 644.826171875 201.260742188 644.826171875 201.260742188 644.826171875 239.517578125 c 128,-1,6
 644.826171875 277.7734375 644.826171875 277.7734375 622.994140625 396.0546875 c 0,7,8
 589.971679688 574.95703125 589.971679688 574.95703125 489.912109375 574.95703125 c 0,9,10
 488.455078125 574.95703125 488.455078125 574.95703125 486.984375 574.918945312 c 0,11,12
 320.950195312 570.637695312 320.950195312 570.637695312 271.500976562 345.88671875 c 0,13,14
 265.234375 317.017578125 265.234375 317.017578125 265.234375 292.600585938 c 0,0,1
484.82421875 737.673828125 m 0,15,16
 675 738 675 738 734.291015625 559.262695312 c 0,17,18
 792 388 792 388 791.50390625 240.78125 c 0,19,20
 792 -40 792 -40 685.041015625 -220.284179688 c 0,21,22
 536 -472 536 -472 185.146484375 -515.703125 c 1,23,-1
 100.879882812 -397.9453125 l 1,24,25
 515 -316 515 -316 617 18 c 1,26,27
 552 -5 552 -5 433.708007812 -5.3583984375 c 0,28,29
 254 -5 254 -5 182.231445312 95.560546875 c 0,30,31
 123 179 123 179 123.052734375 278.247070312 c 0,32,33
 123 298 123 298 125.506835938 319.32421875 c 0,34,35
 148 507 148 507 248.755859375 618.836914062 c 0,36,37
 357 738 357 738 484.82421875 737.673828125 c 0,15,16
EndSplineSet
Substitution2: "'fina' Terminal Forms in Arabic lookup 9 subtable" uniFEEE
EndChar

StartChar: uni0649
Encoding: 1609 1609 44
Width: 1402
VWidth: 2424
GlyphClass: 2
Flags: W
AnchorPoint: "Anchor-10" 600.078 1107.22 basechar 0
AnchorPoint: "Anchor-7" 342.008 -619.263 basechar 0
LayerCount: 2
Fore
SplineSet
1286.04199219 730.635742188 m 1,0,-1
 1317.2734375 730.440429688 l 1,1,-1
 1317.2734375 560.498046875 l 1,2,-1
 1279.59863281 556.905273438 l 2,3,4
 1143 544 1143 544 1069.52929688 454.333984375 c 0,5,6
 944 301 944 301 1163.91601562 275.215820312 c 0,7,8
 1191 272 1191 272 1211.9140625 264.783203125 c 0,9,10
 1299 235 1299 235 1272.17480469 72.365234375 c 0,11,12
 1240 -128 1240 -128 1035.63867188 -272.120117188 c 0,13,14
 832 -416 832 -416 540.4140625 -413.896484375 c 0,15,16
 154 -411 154 -411 98.4853515625 -83.5888671875 c 0,17,18
 63 125 63 125 203.465820312 418.436523438 c 0,19,20
 300 620 300 620 475.240234375 837.513671875 c 1,21,-1
 584.286132812 750.166015625 l 1,22,23
 525 679 525 679 417.435546875 504.53125 c 0,24,25
 202 157 202 157 252.126953125 -44.7958984375 c 0,26,27
 302 -246 302 -246 557.0625 -249.458984375 c 0,28,29
 839 -253 839 -253 1018.38671875 -105.48828125 c 0,30,31
 1111 -29 1111 -29 1124.80664062 57.1201171875 c 0,32,33
 1139 144 1139 144 1046.07519531 161.370117188 c 0,34,35
 913 186 913 186 880.486328125 281.227539062 c 0,36,37
 847 379 847 379 889.783203125 466.333007812 c 0,38,39
 1010 714 1010 714 1286.04199219 730.635742188 c 1,0,-1
EndSplineSet
Substitution2: "'fina' Terminal Forms in Arabic lookup 9 subtable" uniFEF0
Substitution2: "'medi' Medial Forms in Arabic lookup 11 subtable" uniFBE9
Substitution2: "'init' Initial Forms in Arabic lookup 13 subtable" uniFBE8
EndChar

StartChar: uni064B
Encoding: 1611 1611 46
Width: -27
VWidth: 2304
GlyphClass: 4
Flags: W
AnchorPoint: "Anchor-10" 609.519 1111.82 mark 0
AnchorPoint: "Anchor-9" 609.519 1111.82 mark 0
AnchorPoint: "Anchor-1" 569.519 1660.78 basemark 0
AnchorPoint: "Anchor-1" 609.519 1111.82 mark 0
LayerCount: 2
Fore
SplineSet
302.015625 1058.01181702 m 1,0,-1
 302.015625 1172.7510716 l 1,1,-1
 805.6796875 1378.70301363 l 1,2,-1
 805.6796875 1263.96280149 l 1,3,-1
 302.015625 1058.01181702 l 1,0,-1
302.015625 1331.51572327 m 1,4,-1
 302.015625 1446.25497785 l 1,5,-1
 805.6796875 1652.20691988 l 1,6,-1
 805.6796875 1537.46670774 l 1,7,-1
 302.015625 1331.51572327 l 1,4,-1
EndSplineSet
EndChar

StartChar: uni064C
Encoding: 1612 1612 47
Width: -27
VWidth: 2304
GlyphClass: 4
Flags: W
AnchorPoint: "Anchor-10" 676.432 1216.14 mark 0
AnchorPoint: "Anchor-9" 676.432 1216.14 mark 0
AnchorPoint: "Anchor-1" 567.983 1908.35 basemark 0
AnchorPoint: "Anchor-1" 676.432 1216.14 mark 0
LayerCount: 2
Fore
SplineSet
652.655273437 1732.86425781 m 0,0,1
 569.463867188 1732.86425781 569.463867188 1732.86425781 569.463867188 1658.640625 c 0,2,3
 569.463867188 1604.83203125 569.463867188 1604.83203125 631.455078125 1580.03515625 c 0,4,5
 654.595973423 1570.77996279 654.595973423 1570.77996279 700.032226562 1556.78613281 c 1,6,-1
 713.090820312 1587.25292969 l 2,7,8
 724.69140625 1614.32226562 724.69140625 1614.32226562 724.69140625 1653.09667969 c 128,-1,9
 724.69140625 1691.87109375 724.69140625 1691.87109375 699.799316406 1712.36767578 c 128,-1,10
 674.907226562 1732.86425781 674.907226562 1732.86425781 652.655273437 1732.86425781 c 0,0,1
337.235351562 1386.73925781 m 0,11,12
 369 1291 369 1291 449.545331419 1291.76660156 c 0,13,14
 518 1292 518 1292 592.768554688 1364.57714844 c 0,15,16
 636.118126436 1406.1131846 636.118126436 1406.1131846 661.806640625 1457.5 c 2,17,-1
 672.059570312 1478.00976562 l 1,18,-1
 649.625 1482.76953125 l 2,19,20
 547 1504 547 1504 509 1556 c 0,21,22
 474 1604 474 1604 475 1651 c 0,23,24
 475 1676 475 1676 481.663574219 1707.21484375 c 0,25,26
 488 1739 488 1739 509 1765 c 4,27,28
 553 1822 553 1822 636.941420873 1821.69921875 c 0,29,30
 717 1822 717 1822 765.114746094 1774.30517578 c 0,31,32
 813 1728 813 1728 813.52734375 1645.08105469 c 0,33,34
 813.997428752 1605.21804078 813.997428752 1605.21804078 800.791015625 1563.41113281 c 2,35,-1
 793.893554688 1541.57617188 l 1,36,-1
 816.765625 1540.37597656 l 2,37,38
 842 1539 842 1539 880.192382812 1538.27148438 c 1,39,-1
 880.192382812 1449.32617188 l 1,40,41
 838.775681949 1450.00366941 838.775681949 1450.00366941 823.913085938 1451.43261719 c 2,42,-1
 752.243164062 1458.32324219 l 1,43,44
 719 1380 719 1380 655.074213481 1314.56331625 c 128,-1,45
 591 1249 591 1249 543.787109375 1225.83300781 c 0,46,47
 496 1203 496 1203 447.08203125 1202.93164062 c 0,48,49
 332 1203 332 1203 279 1347 c 0,50,51
 257 1407 257 1407 255.86328125 1515.49121094 c 1,52,-1
 322.107421875 1515.49121094 l 1,53,54
 323 1430 323 1430 337.235351562 1386.73925781 c 0,11,12
854.4921875 1539.21972656 m 2,55,-1
 854.388671875 1539.22558594 l 2,56,57
 854.440429688 1539.22265625 854.440429688 1539.22265625 854.4921875 1539.21972656 c 2,55,-1
EndSplineSet
EndChar

StartChar: uni064D
Encoding: 1613 1613 48
Width: -27
VWidth: 2304
GlyphClass: 4
Flags: W
AnchorPoint: "Anchor-7" 552.623 75.7275 mark 0
AnchorPoint: "Anchor-6" 552.623 75.7275 mark 0
AnchorPoint: "Anchor-0" 635.519 -468.112 basemark 0
AnchorPoint: "Anchor-0" 552.623 75.7275 mark 0
LayerCount: 2
Fore
SplineSet
307.295898438 -515.428599567 m 1,0,-1
 307.295898438 -400.688387431 l 1,1,-1
 810.959960938 -194.737402955 l 1,2,-1
 810.959960938 -309.47665754 l 1,3,-1
 307.295898438 -515.428599567 l 1,0,-1
307.295898438 -241.924693317 m 1,4,-1
 307.295898438 -127.184481181 l 1,5,-1
 810.959960938 78.7665032954 l 1,6,-1
 810.959960938 -35.9727512898 l 1,7,-1
 307.295898438 -241.924693317 l 1,4,-1
EndSplineSet
EndChar

StartChar: uni064E
Encoding: 1614 1614 49
Width: -27
VWidth: 2304
GlyphClass: 4
Flags: W
AnchorPoint: "Anchor-10" 577.839 1361.15 mark 0
AnchorPoint: "Anchor-9" 577.839 1361.15 mark 0
AnchorPoint: "Anchor-1" 537.839 1686.13 basemark 0
AnchorPoint: "Anchor-1" 577.839 1361.15 mark 0
LayerCount: 2
Fore
SplineSet
271.391601562 1330.45909574 m 1,0,-1
 271.391601562 1445.19931378 l 1,1,-1
 775.055664062 1651.15125582 l 1,2,-1
 775.055664062 1536.41103778 l 1,3,-1
 271.391601562 1330.45909574 l 1,0,-1
EndSplineSet
EndChar

StartChar: uni064F
Encoding: 1615 1615 50
Width: -27
VWidth: 2304
GlyphClass: 4
Flags: W
AnchorPoint: "Anchor-10" 615.623 1281.01 mark 0
AnchorPoint: "Anchor-9" 615.623 1281.01 mark 0
AnchorPoint: "Anchor-1" 546.519 1923.2 basemark 0
AnchorPoint: "Anchor-1" 615.623 1281.01 mark 0
LayerCount: 2
Fore
SplineSet
822.727539062 1464.22460938 m 1,0,1
 766 1465 766 1465 690.735351562 1473.01953125 c 1,2,3
 638 1399 638 1399 563.377929688 1352.99902344 c 0,4,5
 445 1279 445 1279 311 1274 c 1,6,-1
 311 1362.74121094 l 1,7,8
 442 1367 442 1367 520.314453125 1432.41015625 c 0,9,10
 552.324817949 1458.79495946 552.324817949 1458.79495946 569.69921875 1477.09472656 c 2,11,-1
 591.280273438 1499.82519531 l 1,12,-1
 560.689453125 1506.61621094 l 2,13,14
 554 1508 554 1508 514.827148438 1528.14355469 c 0,15,16
 477 1548 477 1548 448.861328125 1586.5703125 c 0,17,18
 421 1625 421 1625 420.904296875 1671.78222656 c 0,19,20
 421 1754 421 1754 492 1808 c 0,21,22
 530 1837 530 1837 588.962890625 1836.546875 c 0,23,24
 659 1837 659 1837 707.650390625 1789.15234375 c 0,25,26
 756 1742 756 1742 756.0625 1659.92871094 c 0,27,28
 756.000462851 1626.25126302 756.000462851 1626.25126302 741.043945312 1578.18945312 c 2,29,-1
 734.313476562 1556.56152344 l 1,30,-1
 756.931640625 1555.22460938 l 2,31,32
 795 1553 795 1553 822.727539062 1553.02832031 c 1,33,-1
 822.727539062 1464.22460938 l 1,0,1
642.567382812 1571.63476562 m 1,34,-1
 655.625976562 1602.09960938 l 2,35,36
 667 1629 667 1629 667.227539062 1667.94628906 c 0,37,38
 667 1707 667 1707 642.33203125 1727.21582031 c 0,39,40
 617 1748 617 1748 589.5 1747.5 c 128,-1,41
 562 1747 562 1747 539 1730 c 0,42,43
 511.979202975 1710.02810655 511.979202975 1710.02810655 511 1672 c 4,44,45
 509 1620 509 1620 573.990234375 1594.88183594 c 0,46,47
 597 1586 597 1586 642.567382812 1571.63476562 c 1,34,-1
EndSplineSet
EndChar

StartChar: uni0650
Encoding: 1616 1616 51
Width: -27
VWidth: 2304
GlyphClass: 4
Flags: W
AnchorPoint: "Anchor-7" 567.391 -16.2002 mark 0
AnchorPoint: "Anchor-6" 567.391 -16.2002 mark 0
AnchorPoint: "Anchor-0" 615.023 -326.944 basemark 0
AnchorPoint: "Anchor-0" 567.391 -16.2002 mark 0
LayerCount: 2
Fore
SplineSet
317.856445312 -352.804583874 m 1,0,-1
 317.856445312 -238.064361577 l 1,1,-1
 821.51953125 -32.1133848752 l 1,2,-1
 821.51953125 -146.853607173 l 1,3,-1
 317.856445312 -352.804583874 l 1,0,-1
EndSplineSet
EndChar

StartChar: uni0651
Encoding: 1617 1617 52
Width: -27
VWidth: 2304
GlyphClass: 4
Flags: W
AnchorPoint: "Anchor-10" 609.519 1390.22 mark 0
AnchorPoint: "Anchor-9" 609.519 1390.22 mark 0
AnchorPoint: "Anchor-1" 578.847 1840.34 basemark 0
AnchorPoint: "Anchor-1" 609.519 1390.22 mark 0
LayerCount: 2
Fore
SplineSet
577.407226562 1531.921875 m 1,0,1
 547 1367 547 1367 402.48400556 1366.87597656 c 0,2,3
 258 1367 258 1367 257.186523438 1552.89257812 c 0,4,5
 257 1590 257 1590 272.712890625 1693.63867188 c 1,6,-1
 347.826171875 1693.63867188 l 1,7,8
 335 1604 335 1604 335 1576 c 0,9,10
 335 1463 335 1463 414.949708912 1463.0777407 c 0,11,12
 525 1463 525 1463 530.60546875 1607.45214844 c 0,13,14
 532 1647 532 1647 531.875 1694.11621094 c 0,15,16
 532 1741 532 1741 531.86328125 1749.95605469 c 1,17,-1
 606.123046875 1749.95605469 l 1,18,19
 608 1714 608 1714 608.287109375 1665.99121094 c 0,20,21
 608.000414097 1525.20335128 608.000414097 1525.20335128 730.454841185 1525.40617962 c 2,22,-1
 731.086914062 1525.40722656 l 2,23,24
 805 1526 805 1526 805.22265625 1644.49707031 c 0,25,26
 806 1750 806 1750 794.323242188 1812.33496094 c 1,27,-1
 873.943359375 1812.33496094 l 1,28,29
 885 1733 885 1733 885 1639 c 0,30,31
 885 1486 885 1486 800.654296875 1449.91699219 c 0,32,33
 768 1436 768 1436 736 1435 c 0,34,35
 665 1432 665 1432 628 1459 c 0,36,37
 583 1492 583 1492 577.407226562 1531.921875 c 1,0,1
EndSplineSet
EndChar

StartChar: uni0652
Encoding: 1618 1618 53
Width: -27
VWidth: 2304
GlyphClass: 4
Flags: W
AnchorPoint: "Anchor-10" 588.527 1187.7 mark 0
AnchorPoint: "Anchor-9" 588.527 1187.7 mark 0
AnchorPoint: "Anchor-1" 573.743 1793.31 basemark 0
AnchorPoint: "Anchor-1" 588.527 1187.7 mark 0
LayerCount: 2
Fore
SplineSet
707.344726562 1457.10253906 m 0,0,1
 707.344726562 1505.78320312 707.344726562 1505.78320312 673.299804688 1539.828125 c 128,-1,2
 639.258789062 1573.87304688 639.258789062 1573.87304688 589.884765625 1573.87304688 c 0,3,4
 539.819335938 1573.87304688 539.819335938 1573.87304688 506.124023438 1540.17675781 c 128,-1,5
 472.427734375 1506.48046875 472.427734375 1506.48046875 472.427734375 1457.10253906 c 0,6,7
 472.427734375 1407.03808594 472.427734375 1407.03808594 506.124023438 1373.34277344 c 128,-1,8
 539.819335938 1339.64648438 539.819335938 1339.64648438 589.884765625 1339.64648438 c 0,9,10
 639.260742188 1339.64648438 639.260742188 1339.64648438 673.299804688 1373.69140625 c 128,-1,11
 707.344726562 1407.73535156 707.344726562 1407.73535156 707.344726562 1457.10253906 c 0,0,1
779.41796875 1457.21875 m 128,-1,13
 779.41796875 1377.71484375 779.41796875 1377.71484375 724.528320312 1322.47265625 c 128,-1,14
 669.673828125 1267.2734375 669.673828125 1267.2734375 590.212890625 1267.2734375 c 0,15,16
 563.655273438 1267.2734375 563.655273438 1267.2734375 539.920898438 1273.39550781 c 128,-1,17
 516.186523438 1279.51757812 516.186523438 1279.51757812 495.203125 1291.77636719 c 128,-1,18
 474.220703125 1304.03515625 474.220703125 1304.03515625 455.8984375 1322.47265625 c 0,19,20
 428.400390625 1350.14648438 428.400390625 1350.14648438 414.704101562 1383.76074219 c 128,-1,21
 401.006835938 1417.375 401.006835938 1417.375 401.006835938 1457.21875 c 0,22,23
 401.006835938 1536.6953125 401.006835938 1536.6953125 455.8671875 1591.56542969 c 128,-1,24
 510.7265625 1646.42480469 510.7265625 1646.42480469 590.212890625 1646.42480469 c 128,-1,25
 669.698242188 1646.42480469 669.698242188 1646.42480469 724.556640625 1591.56542969 c 128,-1,12
 779.41796875 1536.6953125 779.41796875 1536.6953125 779.41796875 1457.21875 c 128,-1,13
EndSplineSet
EndChar

StartChar: uni0653
Encoding: 1619 1619 54
Width: -3
VWidth: 2429
GlyphClass: 4
Flags: W
AnchorPoint: "Anchor-10" 489.659 1404.78 mark 0
AnchorPoint: "Anchor-9" 489.659 1404.78 mark 0
AnchorPoint: "Anchor-1" 489.659 1790.56 basemark 0
AnchorPoint: "Anchor-1" 489.659 1404.78 mark 0
LayerCount: 2
Fore
SplineSet
99 1503 m 5,0,1
 217 1656 217 1656 318.606445312 1630.36816406 c 0,2,3
 457 1595 457 1595 580.192382812 1591.36523438 c 0,4,5
 708 1587 708 1587 833.013671875 1682.13574219 c 1,6,-1
 888 1576 l 1,7,8
 771.454667593 1489.10216443 771.454667593 1489.10216443 636.724609375 1472.44042969 c 0,9,10
 477 1453 477 1453 325.98046875 1496.57617188 c 0,11,12
 252 1518 252 1518 183 1427 c 1,13,-1
 99 1503 l 5,0,1
EndSplineSet
EndChar

StartChar: uni0657
Encoding: 1623 1623 57
Width: -27
VWidth: 2304
GlyphClass: 4
Flags: W
AnchorPoint: "Anchor-10" 569.519 1347.15 mark 0
AnchorPoint: "Anchor-9" 569.519 1347.15 mark 0
AnchorPoint: "Anchor-1" 569.519 2081.6 basemark 0
AnchorPoint: "Anchor-1" 569.519 1347.15 mark 0
LayerCount: 2
Fore
SplineSet
659.133789062 1603.78173828 m 0,0,1
 659 1430 659 1430 491.074544274 1431.54492188 c 0,2,3
 421 1432 421 1432 372.388183594 1478.93945313 c 0,4,5
 324 1526 324 1526 323.975585938 1608.16308594 c 0,6,7
 323.99979061 1641.70979344 323.99979061 1641.70979344 338.994140625 1689.90234375 c 2,8,-1
 345.723632812 1711.53125 l 1,9,-1
 323.10546875 1712.8671875 l 2,10,11
 287 1715 287 1715 257.310546875 1715.06347656 c 1,12,-1
 257.310546875 1803.8671875 l 1,13,14
 314 1803 314 1803 389.303710938 1795.07324219 c 1,15,16
 442 1870 442 1870 516.661132812 1915.09375 c 0,17,18
 698 2026 698 2026 785 2030.74121094 c 5,19,-1
 785 1942 l 5,20,21
 692 1939 692 1939 559.72265625 1835.68164062 c 0,22,23
 533 1815 533 1815 510.338867188 1790.99804688 c 2,24,-1
 488.760742188 1768.28125 l 1,25,-1
 519.344726562 1761.47558594 l 2,26,27
 528 1760 528 1760 565.211425781 1739.94873047 c 0,28,29
 603 1720 603 1720 631.176757812 1681.52148438 c 0,30,31
 659 1643 659 1643 659.133789062 1603.78173828 c 0,0,1
480.167480469 1520.38085938 m 0,32,33
 568.038085938 1520.38085938 568.038085938 1520.38085938 568.038085938 1594.60449219 c 0,34,35
 568.038085938 1648.41148902 568.038085938 1648.41148902 506.048828125 1673.20996094 c 0,36,37
 482.976628637 1682.4430983 482.976628637 1682.4430983 437.471679688 1696.45898438 c 1,38,-1
 424.413085938 1665.99316406 l 2,39,40
 412.810546875 1638.92285156 412.810546875 1638.92285156 412.810546875 1600.15429688 c 128,-1,41
 412.810546875 1561.38574219 412.810546875 1561.38574219 437.703125 1540.88330078 c 128,-1,42
 462.595703125 1520.38085938 462.595703125 1520.38085938 480.167480469 1520.38085938 c 0,32,33
EndSplineSet
EndChar

StartChar: uni065A
Encoding: 1626 1626 58
Width: 1129
VWidth: 2304
GlyphClass: 4
Flags: W
AnchorPoint: "Anchor-10" 569.519 1347.15 mark 0
AnchorPoint: "Anchor-9" 569.519 1347.15 mark 0
AnchorPoint: "Anchor-1" 567.259 1855.62 basemark 0
AnchorPoint: "Anchor-1" 569.519 1347.15 mark 0
LayerCount: 2
Fore
SplineSet
495.958007812 1434.93457031 m 1,0,-1
 296.83203125 1767.83300781 l 1,1,-1
 413.142578125 1767.83300781 l 1,2,-1
 569.518554688 1533.26269531 l 1,3,-1
 725.89453125 1767.83300781 l 1,4,-1
 842.206054688 1767.83300781 l 1,5,-1
 643.077148438 1434.93457031 l 1,6,-1
 495.958007812 1434.93457031 l 1,0,-1
EndSplineSet
EndChar

StartChar: afii57392
Encoding: 1632 1632 59
Width: 957
VWidth: 2393
GlyphClass: 2
Flags: W
LayerCount: 2
Fore
SplineSet
357.159945423 572.8203125 m 0,0,1
 356.70067153 522.808338782 356.70067153 522.808338782 392.504505156 487.004505156 c 128,-1,2
 428.298612678 451.210397634 428.298612678 451.210397634 478.297303642 451.440482629 c 0,3,4
 528.341843276 451.210186646 528.341843276 451.210186646 564.135143281 487.004505156 c 128,-1,5
 599.92921041 522.798572285 599.92921041 522.798572285 599.700142838 572.797405449 c 0,6,7
 599.929419539 622.841885524 599.929419539 622.841885524 564.135193582 658.635092979 c 0,8,9
 552.273375466 670.497248626 552.273375466 670.497248626 538.71622319 678.436925431 c 128,-1,10
 525.159070914 686.376602237 525.159070914 686.376602237 510.033442011 690.326317535 c 128,-1,11
 494.907813109 694.276032834 494.907813109 694.276032834 478.343219551 694.200142838 c 0,12,13
 428.298781224 694.429419348 428.298781224 694.429419348 392.504555458 658.635193582 c 128,-1,14
 356.700671146 622.832328047 356.700671146 622.832328047 357.159945423 572.8203125 c 0,0,1
221.000210416 567.5 m 0,15,16
 220.508349071 621.112886584 220.508349071 621.112886584 239.345093546 666.861828397 c 128,-1,17
 258.181838021 712.610770209 258.181838021 712.610770209 296.535533906 750.964466094 c 0,18,19
 315.719619901 770.148552089 315.719619901 770.148552089 336.726163009 784.466981613 c 128,-1,20
 357.732706118 798.785411137 357.732706118 798.785411137 380.646793515 808.281693812 c 128,-1,21
 403.560880913 817.777976486 403.560880913 817.777976486 428.382950619 822.450523525 c 128,-1,22
 453.205020325 827.123070564 453.205020325 827.123070564 480.022935539 827.000052604 c 0,23,24
 586.938441483 827.490490705 586.938441483 827.490490705 663.464466094 750.964466094 c 128,-1,25
 739.990700162 674.438232026 739.990700162 674.438232026 739.500052604 567.477064461 c 0,26,27
 739.990490705 460.561558517 739.990490705 460.561558517 663.464466094 384.035533906 c 0,28,29
 637.886360086 358.457427898 637.886360086 358.457427898 609.043744409 341.517088206 c 128,-1,30
 580.201128732 324.576748514 580.201128732 324.576748514 547.966923026 316.206339577 c 128,-1,31
 515.73271732 307.83593064 515.73271732 307.83593064 479.977064461 307.999947396 c 0,32,33
 373.061558517 307.509509295 373.061558517 307.509509295 296.535533906 384.035533906 c 128,-1,34
 220.019036392 460.55203142 220.019036392 460.55203142 221.000210416 567.5 c 0,15,16
EndSplineSet
EndChar

StartChar: afii57393
Encoding: 1633 1633 60
Width: 689
VWidth: 2393
GlyphClass: 2
Flags: W
LayerCount: 2
Fore
SplineSet
472.955917858 14.3349609375 m 1,0,-1
 314.279882078 14.3349609375 l 1,1,2
 313.465747818 195.066041858 313.465747818 195.066041858 302.146568534 386.760958091 c 128,-1,3
 290.82738925 578.455874323 290.82738925 578.455874323 268.900103763 783.352674512 c 0,4,5
 224.425390151 1190.37924465 224.425390151 1190.37924465 116.026793654 1396.45074597 c 1,6,-1
 259.388105476 1446.46440489 l 1,7,8
 373.708692313 1241.54425296 373.708692313 1241.54425296 435.735327479 701.570451676 c 0,9,10
 472.731459592 382.030926813 472.731459592 382.030926813 472.955917858 14.3349609375 c 1,0,-1
EndSplineSet
EndChar

StartChar: afii57394
Encoding: 1634 1634 61
Width: 1157
VWidth: 2393
GlyphClass: 2
Flags: W
LayerCount: 2
Fore
SplineSet
270.04486599 1446.0726592 m 1,0,-1
 344.3746097 1212.66886413 l 2,1,2
 411.416670416 1001.76784793 411.416670416 1001.76784793 669.285876565 1017.78130472 c 0,3,4
 819.822858101 1027.23011098 819.822858101 1027.23011098 867.530543584 1191.77367697 c 0,5,6
 888.690073621 1263.22863442 888.690073621 1263.22863442 885.238950308 1449.07555461 c 1,7,-1
 1044.82579564 1448.59850099 l 1,8,9
 1060.22905632 862.902680819 1060.22905632 862.902680819 678.738114404 857.390086082 c 0,10,11
 517.413804757 855.021298421 517.413804757 855.021298421 432.64799043 908.590622756 c 1,12,13
 480.065368086 766.989865712 480.065368086 766.989865712 505.273494836 451.192025289 c 128,-1,14
 530.481621587 135.394184866 530.481621587 135.394184866 523.135964227 14.3349609375 c 1,15,-1
 363.930408596 14.3349609375 l 1,16,17
 362.554373215 304.716588507 362.554373215 304.716588507 313.406078352 680.032372929 c 128,-1,18
 264.257783489 1055.34815735 264.257783489 1055.34815735 114.970189811 1396.14963187 c 1,19,-1
 270.04486599 1446.0726592 l 1,0,-1
EndSplineSet
EndChar

StartChar: afii57395
Encoding: 1635 1635 62
Width: 1276
VWidth: 2393
GlyphClass: 2
Flags: W
LayerCount: 2
Fore
SplineSet
776.549807119 1397.11230469 m 2,0,-1
 781.540039062 1397.11230469 l 1,1,-1
 776.546850222 1398.51075077 l 2,2,3
 776.546850222 1397.81065177 776.546850222 1397.81065177 776.549807119 1397.11230469 c 2,0,-1
776.549807119 1397.11230469 m 1,4,5
 777 1150 777 1150 783.163057516 1122.22598994 c 0,6,7
 789 1094 789 1094 792.542039276 1087.43291633 c 0,8,9
 828 1025 828 1025 912.03506721 1025.12598136 c 0,10,11
 1007 1025 1007 1025 1024.53704399 1134.64515398 c 0,12,13
 1042 1244 1042 1244 1037.30136245 1449.12520287 c 1,14,-1
 1179.28346508 1449.26647135 l 1,15,16
 1177 1101 1177 1101 1118.69595677 979.587549609 c 0,17,18
 1051 838 1051 838 874.927998675 863.747449374 c 0,19,20
 778 878 778 878 719.842916233 951.53119192 c 1,21,22
 635 847 635 847 441.687320994 865.996256552 c 1,23,24
 457 823 457 823 488.963858791 610.872762938 c 0,25,26
 521 399 521 399 522.406191468 14.3349609375 c 1,27,-1
 363.769935231 14.3349609375 l 1,28,29
 363 282 363 282 320.904957265 648.118856293 c 0,30,31
 279 1014 279 1014 115.150847618 1395.85669017 c 1,32,-1
 265.898773876 1445.8608268 l 1,33,-1
 354.609375 1189.33886719 l 6,34,35
 412 1022 412 1022 507.5 1021.5 c 0,36,37
 630 1021 630 1021 635.243214278 1133.04877613 c 0,38,39
 641 1261 641 1261 642.193123303 1397.11230469 c 1,40,-1
 776.549807119 1397.11230469 l 1,4,5
EndSplineSet
EndChar

StartChar: afii57396
Encoding: 1636 1636 63
Width: 983
VWidth: 2393
GlyphClass: 2
Flags: W
LayerCount: 2
Fore
SplineSet
111.998250232 333.252421674 m 0,0,1
 105.079355228 600.993774227 105.079355228 600.993774227 452.741986257 780.291513777 c 2,2,-1
 465.018477088 786.622786853 l 1,3,-1
 451.533860276 789.616506164 l 2,4,5
 184.074411874 848.995169019 184.074411874 848.995169019 188.303774072 1078.6817747 c 0,6,7
 194.862935304 1421.78254396 194.862935304 1421.78254396 672.548828125 1416.91477505 c 1,8,-1
 672.548828125 1253.78217928 l 1,9,10
 352.998714133 1241.38804297 352.998714133 1241.38804297 353.062500266 1073.43815583 c 0,11,12
 352.998858051 878.50304455 352.998858051 878.50304455 705.525264449 876.149367656 c 1,13,-1
 707.446541705 738.915015219 l 1,14,15
 250.945694566 584.464625804 250.945694566 584.464625804 262.405845519 339.326076881 c 0,16,17
 270.228736574 171.990396088 270.228736574 171.990396088 573.066876449 172.59963852 c 2,18,-1
 869.851973932 173.612973269 l 1,19,-1
 871.747131491 5.00847434426 l 1,20,-1
 533.744738703 5.37890072354 l 2,21,22
 120.866538279 5.99276993493 120.866538279 5.99276993493 111.998250232 333.252421674 c 0,0,1
EndSplineSet
EndChar

StartChar: afii57397
Encoding: 1637 1637 64
Width: 1188
VWidth: 2393
GlyphClass: 2
Flags: W
LayerCount: 2
Fore
SplineSet
567.08739131 1021.40428728 m 1,0,1
 415.036196874 874.121578544 415.036196874 874.121578544 345.51918611 756.244908119 c 128,-1,2
 276.002175346 638.368237694 276.002175346 638.368237694 275.818360409 522.426471822 c 0,3,4
 276.003217356 234.995784433 276.003217356 234.995784433 623.585555303 235.290068632 c 0,5,6
 833.296790604 236.011308772 833.296790604 236.011308772 900.402054952 391.991359688 c 0,7,8
 978.728746275 576.702212479 978.728746275 576.702212479 808.62471836 802.799186233 c 0,9,10
 696.334184281 951.884001165 696.334184281 951.884001165 567.08739131 1021.40428728 c 1,0,1
396.343561555 1156.02152808 m 1,11,-1
 485.946803402 1291.78348491 l 1,12,13
 595.881337766 1234.49041127 595.881337766 1234.49041127 732.318366829 1116.41805158 c 0,14,15
 1075.99974187 816.726260059 1075.99974187 816.726260059 1075.96484383 509.535242943 c 0,16,17
 1075.99964166 314.013020482 1075.99964166 314.013020482 983.624482617 217.924379088 c 0,18,19
 855.855868343 83.0074720239 855.855868343 83.0074720239 599.74266558 83.8994138509 c 0,20,21
 257.220228438 83.9990633557 257.220228438 83.9990633557 146.464618989 327.708105933 c 0,22,23
 112.002490251 404.070475683 112.002490251 404.070475683 112.227449986 500.036560699 c 0,24,25
 113.987547037 794.898879925 113.987547037 794.898879925 447.443054511 1124.34219423 c 1,26,-1
 396.343561555 1156.02152808 l 1,11,-1
EndSplineSet
EndChar

StartChar: afii57398
Encoding: 1638 1638 65
Width: 1201
VWidth: 2393
GlyphClass: 2
Flags: W
LayerCount: 2
Fore
SplineSet
910.686885707 14.3349609375 m 1,0,1
 756.960585261 610.373456874 756.960585261 610.373456874 749.846238905 1235.17888994 c 1,2,3
 607.279118607 1193.00095327 607.279118607 1193.00095327 428.452961257 1193.00224201 c 128,-1,4
 249.626803907 1193.00353074 249.626803907 1193.00353074 65.22265625 1245.71139352 c 1,5,-1
 65.22265625 1416.14147628 l 1,6,7
 456.433957021 1314.94613735 456.433957021 1314.94613735 906.70673455 1417.25290535 c 1,8,9
 909.523197565 866.80244131 909.523197565 866.80244131 997.796073011 407.648793947 c 0,10,11
 1033.58609454 224.632251154 1033.58609454 224.632251154 1086.50077646 14.3349609375 c 1,12,-1
 910.686885707 14.3349609375 l 1,0,1
EndSplineSet
EndChar

StartChar: afii57399
Encoding: 1639 1639 66
Width: 1201
VWidth: 2393
GlyphClass: 2
Flags: W
LayerCount: 2
Fore
SplineSet
518.790124412 14.3349609375 m 1,0,1
 503.611146359 188.900067079 503.611146359 188.900067079 458.324927916 355.285970135 c 128,-1,2
 413.038709473 521.671873191 413.038709473 521.671873191 384.405686341 613.836537165 c 0,3,4
 210.734276663 1170.2063516 210.734276663 1170.2063516 95.1241374936 1396.33571416 c 1,5,-1
 239.60625031 1446.29179425 l 1,6,7
 507.544423682 914.992996534 507.544423682 914.992996534 595.120594825 330.328655049 c 2,8,-1
 600.076268067 297.244250981 l 1,9,-1
 605.0107382 330.331824091 l 2,10,11
 691.461838688 910.020631846 691.461838688 910.020631846 960.551748767 1446.3046264 c 1,12,-1
 1106.14352729 1396.29368047 l 1,13,14
 986.504760946 1158.00140101 986.504760946 1158.00140101 815.566950986 613.293269806 c 0,15,16
 703.162936292 256.460693139 703.162936292 256.460693139 682.158188122 14.3349609375 c 1,17,-1
 518.790124412 14.3349609375 l 1,0,1
EndSplineSet
EndChar

StartChar: afii57400
Encoding: 1640 1640 67
Width: 1201
VWidth: 2393
GlyphClass: 2
Flags: W
LayerCount: 2
Fore
SplineSet
518.789763734 1447.45214844 m 1,0,-1
 682.15853201 1447.45214844 l 1,1,2
 703.162954657 1205.53750312 703.162954657 1205.53750312 815.565493182 848.498475303 c 0,3,4
 986.504616008 303.996924362 986.504616008 303.996924362 1106.14545518 65.4940911359 c 1,5,-1
 960.552407003 15.4827090839 l 1,6,7
 691.461836817 551.978196797 691.461836817 551.978196797 605.010698884 1131.45554886 c 2,8,-1
 600.076260299 1164.53082669 l 1,9,-1
 595.120634138 1131.45871674 l 2,10,11
 507.544424544 547.005826523 507.544424544 547.005826523 239.605584416 15.4955453663 c 1,12,-1
 95.1220696469 65.4521101881 l 1,13,14
 210.734412476 291.791727699 210.734412476 291.791727699 384.407930878 847.957781894 c 0,15,16
 498.632020654 1215.83581235 498.632020654 1215.83581235 518.789763734 1447.45214844 c 1,0,-1
EndSplineSet
EndChar

StartChar: afii57401
Encoding: 1641 1641 68
Width: 1214
VWidth: 2393
GlyphClass: 2
Flags: W
LayerCount: 2
Fore
SplineSet
923.566102371 14.3349609375 m 1,0,1
 858.643619504 315.483313847 858.643619504 315.483313847 818.585390707 675.879882812 c 1,2,-1
 794.870022228 675.879882008 l 2,3,4
 577.982114082 676.002845673 577.982114082 676.002845673 483.785023758 697.156816493 c 0,5,6
 178.453534381 765.725531248 178.453534381 765.725531248 122.659953647 980.020415102 c 0,7,8
 112.803179473 1017.87882549 112.803179473 1017.87882549 112.707023427 1058.37494426 c 0,9,10
 112.996352269 1221.93350306 112.996352269 1221.93350306 214.523901672 1324.03300069 c 0,11,12
 354.082388408 1464.99660078 354.082388408 1464.99660078 534.028779305 1464.50219105 c 128,-1,13
 713.975170203 1464.00778131 713.975170203 1464.00778131 803.429622462 1377.81937361 c 0,14,15
 932.153795484 1252.73733473 932.153795484 1252.73733473 947.118439712 1050.55257795 c 0,16,17
 959.022221841 891.516250574 959.022221841 891.516250574 997.26029703 577.145151681 c 128,-1,18
 1035.49837222 262.774052787 1035.49837222 262.774052787 1098.55758534 14.3349609375 c 1,19,-1
 923.566102371 14.3349609375 l 1,0,1
803.521286707 835.701171875 m 1,20,-1
 793.083404616 964.762780155 l 2,21,22
 778.874641721 1135.71567969 778.874641721 1135.71567969 739.850021587 1193.50921744 c 0,23,24
 666.66109634 1301.99580593 666.66109634 1301.99580593 523.484889773 1302.21664788 c 0,25,26
 419.991945283 1303.01565194 419.991945283 1303.01565194 345.744219552 1231.11068215 c 0,27,28
 272.004810757 1159.11081005 272.004810757 1159.11081005 272.005101984 1069.85482837 c 128,-1,29
 272.005393211 980.598846697 272.005393211 980.598846697 354.577844405 914.336688054 c 128,-1,30
 437.150295599 848.074529412 437.150295599 848.074529412 594.218651073 841.887850643 c 128,-1,31
 751.287006546 835.701171875 751.287006546 835.701171875 776.663085938 835.701171875 c 2,32,-1
 803.521286707 835.701171875 l 1,20,-1
EndSplineSet
EndChar

StartChar: afii57381
Encoding: 1642 1642 69
Width: 1263
VWidth: 2393
GlyphClass: 2
Flags: W
LayerCount: 2
Fore
SplineSet
847.078125 190.817382812 m 128,-1,1
 847.078125 248.817382812 847.078125 248.817382812 887.078125 288.817382812 c 128,-1,2
 927.078125 328.817382812 927.078125 328.817382812 984.578125 328.817382812 c 0,3,4
 1043.078125 328.817382812 1043.078125 328.817382812 1083.078125 288.817382812 c 128,-1,5
 1123.078125 248.817382812 1123.078125 248.817382812 1123.078125 191.317382812 c 0,6,7
 1123.078125 132.817382812 1123.078125 132.817382812 1083.078125 92.8173828125 c 128,-1,8
 1043.078125 52.8173828125 1043.078125 52.8173828125 985.578125 52.8173828125 c 0,9,10
 927.078125 52.8173828125 927.078125 52.8173828125 887.078125 92.8173828125 c 128,-1,0
 847.078125 132.817382812 847.078125 132.817382812 847.078125 190.817382812 c 128,-1,1
150.1015625 1323.59765625 m 128,-1,12
 150.1015625 1381.59765625 150.1015625 1381.59765625 190.1015625 1421.59765625 c 128,-1,13
 230.1015625 1461.59765625 230.1015625 1461.59765625 287.6015625 1461.59765625 c 0,14,15
 346.1015625 1461.59765625 346.1015625 1461.59765625 386.1015625 1421.59765625 c 128,-1,16
 426.1015625 1381.59765625 426.1015625 1381.59765625 426.1015625 1324.09765625 c 0,17,18
 426.1015625 1265.59765625 426.1015625 1265.59765625 386.1015625 1225.59765625 c 128,-1,19
 346.1015625 1185.59765625 346.1015625 1185.59765625 288.6015625 1185.59765625 c 0,20,21
 230.1015625 1185.59765625 230.1015625 1185.59765625 190.1015625 1225.59765625 c 128,-1,11
 150.1015625 1265.59765625 150.1015625 1265.59765625 150.1015625 1323.59765625 c 128,-1,12
954.075195312 1498.3515625 m 1,22,-1
 1077.56542969 1433.02050781 l 1,23,-1
 339.6015625 11.6640625 l 1,24,-1
 216.224609375 73.205078125 l 1,25,-1
 954.075195312 1498.3515625 l 1,22,-1
EndSplineSet
EndChar

StartChar: uni066B
Encoding: 1643 1643 70
Width: 676
VWidth: 2393
GlyphClass: 2
Flags: W
LayerCount: 2
Fore
SplineSet
442.376953125 534.767578125 m 1,0,-1
 546 482 l 1,1,2
 185.3125 -252.826171875 l 1,3,-1
 80 -198 l 1,4,5
 442.376953125 534.767578125 l 1,0,-1
EndSplineSet
EndChar

StartChar: uni066C
Encoding: 1644 1644 71
Width: 543
VWidth: 2459
GlyphClass: 2
Flags: W
LayerCount: 2
Fore
SplineSet
295.307617188 259.001953125 m 2,0,1
 401 259.001953125 401 259.001953125 401 133.155273438 c 2,2,-1
 401 90.7998046875 l 2,3,4
 401 -146 401 -146 168 -246 c 4,5,6
 128 -263 128 -263 119 -252 c 4,7,8
 104 -235 104 -235 139 -215 c 4,9,10
 318 -108 318 -108 311.659179688 16.2822265625 c 1,11,-1
 268.484375 16.2822265625 l 2,12,13
 160.293945312 16.2822265625 160.293945312 16.2822265625 160.293945312 122.053710938 c 2,14,-1
 160.293945312 147.443359375 l 2,15,16
 159.999994854 259.001953125 159.999994854 259.001953125 275.23046875 259.001953125 c 2,17,-1
 295.307617188 259.001953125 l 2,0,1
EndSplineSet
EndChar

StartChar: afii63167
Encoding: 1645 1645 72
Width: 1325
VWidth: 2429
GlyphClass: 2
Flags: W
LayerCount: 2
Fore
SplineSet
150.977539062 880.025390625 m 1,0,-1
 539.827148438 880.025390625 l 1,1,-1
 661.23046875 1249.65039062 l 1,2,-1
 782.630859375 880.025390625 l 1,3,-1
 1171.48242188 880.025390625 l 1,4,-1
 857.340820312 650.377929688 l 1,5,-1
 977.536132812 281.125976562 l 1,6,-1
 661.23046875 509.69140625 l 1,7,-1
 344.922851562 281.125976562 l 1,8,-1
 465.1171875 650.377929688 l 1,9,-1
 150.977539062 880.025390625 l 1,0,-1
EndSplineSet
EndChar

StartChar: uni066E
Encoding: 1646 1646 73
Width: 1936
VWidth: 2424
GlyphClass: 2
Flags: W
AnchorPoint: "Anchor-10" 846.082 1167.79 basechar 0
AnchorPoint: "Anchor-7" 590.207 -234.513 basechar 0
LayerCount: 2
Fore
SplineSet
964.202148438 1.0927734375 m 1,0,1
 577 -0 577 -0 373.662109375 89.720703125 c 0,2,3
 120 203 120 203 103.926757812 465.259765625 c 0,4,5
 91 687 91 687 243.19140625 884.463867188 c 1,6,-1
 365 818.916992188 l 1,7,8
 252 664 252 664 260.131835938 485.079101562 c 0,9,10
 270 254 270 254 621.673828125 200.03125 c 0,11,12
 707 187 707 187 902.706054688 186.256835938 c 1,13,14
 1040 190 1040 190 1100.25292969 196.15234375 c 0,15,16
 1685 260 1685 260 1706.00878906 649.7890625 c 1,17,-1
 1835.68066406 633.580078125 l 1,18,19
 1845 348 1845 348 1607.296875 181.978515625 c 0,20,21
 1393 32 1393 32 964.202148438 1.0927734375 c 1,0,1
EndSplineSet
Substitution2: "'init' Initial Forms in Arabic lookup 13 subtable" uni066E.init
Substitution2: "'medi' Medial Forms in Arabic lookup 11 subtable" uni066E.medi
Substitution2: "'fina' Terminal Forms in Arabic lookup 9 subtable" uni066E.fina
EndChar

StartChar: uni066F
Encoding: 1647 1647 74
Width: 1465
VWidth: 2424
GlyphClass: 2
Flags: W
AnchorPoint: "Anchor-10" 350.438 1161.12 basechar 0
AnchorPoint: "Anchor-7" 488.388 -672.838 basechar 0
LayerCount: 2
Fore
SplineSet
1041.83886719 651.564453125 m 4,0,1
 909.6171875 647.814453125 909.6171875 647.814453125 859.040039062 415.067382812 c 4,2,3
 830.223632812 285.391601562 830.223632812 285.391601562 1031.3828125 261.78125 c 4,4,5
 1074.6171875 256.814453125 1074.6171875 256.814453125 1209.92675781 265.154296875 c 5,6,7
 1213.6171875 655.814453125 1213.6171875 655.814453125 1041.83886719 651.564453125 c 4,0,1
1364.28417969 84.9072265625 m 28,8,9
 1349 -171 1349 -171 1230.00488281 -318.6640625 c 4,10,11
 1084 -500 1084 -500 751.474609375 -512.758789062 c 4,12,13
 464 -524 464 -524 305.139648438 -420.731445312 c 4,14,15
 90 -280 90 -280 100.232421875 -10.8662109375 c 4,16,17
 114 338 114 338 392.67578125 621.21875 c 5,18,-1
 509.79296875 533.897460938 l 5,19,20
 125 40 125 40 342.833984375 -222.858398438 c 4,21,22
 447 -349 447 -349 757.35546875 -346.338867188 c 4,23,24
 1201 -343 1201 -343 1211.60644531 51.9326171875 c 4,25,26
 1212 66 1212 66 1209.48339844 85.4560546875 c 5,27,-1
 1078.58691406 83.814453125 l 5,28,29
 809 84 809 84 735.458007812 215.342773438 c 4,30,31
 700 279 700 279 710.111328125 367.645507812 c 4,32,33
 739 608 739 608 856.470703125 738.334960938 c 4,34,35
 942 833 942 833 1084.75097656 821.353515625 c 4,36,37
 1228 810 1228 810 1292.52539062 654.611328125 c 4,38,39
 1335.82128906 552.100585938 1335.82128906 552.100585938 1356 403 c 4,40,41
 1374.92871094 263.135742188 1374.92871094 263.135742188 1364.28417969 84.9072265625 c 28,8,9
EndSplineSet
Substitution2: "'init' Initial Forms in Arabic lookup 13 subtable" uni066F.init
Substitution2: "'medi' Medial Forms in Arabic lookup 11 subtable" uni066F.medi
Substitution2: "'fina' Terminal Forms in Arabic lookup 9 subtable" uni066F.fina
EndChar

StartChar: uni0670
Encoding: 1648 1648 75
Width: -27
VWidth: 2304
GlyphClass: 4
Flags: W
AnchorPoint: "Anchor-10" 569.519 1347.15 mark 0
AnchorPoint: "Anchor-9" 569.519 1347.15 mark 0
AnchorPoint: "Anchor-1" 569.519 2081.6 basemark 0
AnchorPoint: "Anchor-1" 569.519 1347.15 mark 0
LayerCount: 2
Fore
SplineSet
525.1015625 1402.16699219 m 1,0,-1
 525.1015625 2026.58496094 l 1,1,-1
 613.936523438 2026.58496094 l 1,2,-1
 613.936523438 1402.16699219 l 1,3,-1
 525.1015625 1402.16699219 l 1,0,-1
EndSplineSet
EndChar

StartChar: uni0674
Encoding: 1652 1652 76
Width: 672
VWidth: 2393
GlyphClass: 2
Flags: W
LayerCount: 2
Fore
SplineSet
252.375976562 1686.97265625 m 1,0,1
 144.791015625 1746.68907975 144.791015625 1746.68907975 144.791015625 1847.8543055 c 128,-1,2
 144.791015625 1949.01953125 144.791015625 1949.01953125 207.65234375 2004.18066406 c 128,-1,3
 270.69140625 2059.49707031 270.69140625 2059.49707031 355.650390625 2059.78710938 c 128,-1,4
 440.609375 2060.07714844 440.609375 2060.07714844 503.954101562 2024.484375 c 1,5,-1
 503.954101562 1927.38769531 l 1,6,7
 373.220594641 1987.3450666 373.220594641 1987.3450666 288.299804688 1938.11914062 c 0,8,9
 242.877373775 1911.79088828 242.877373775 1911.79088828 238.356445312 1860.53222656 c 0,10,11
 230.401367188 1768.43945312 230.401367188 1768.43945312 354.9296875 1730.71582031 c 0,12,13
 387.163148258 1718.57809017 387.163148258 1718.57809017 528.631835938 1750.40039062 c 1,14,-1
 528.631835938 1648.04492188 l 1,15,-1
 142.44140625 1561.34277344 l 1,16,-1
 142.44140625 1661.60546875 l 1,17,-1
 252.375976562 1686.97265625 l 1,0,1
EndSplineSet
EndChar

StartChar: uni06A1
Encoding: 1697 1697 80
Width: 1940
VWidth: 2424
GlyphClass: 2
Flags: W
AnchorPoint: "Anchor-10" 551.637 1361.12 basechar 0
AnchorPoint: "Anchor-7" 670.675 -172.079 basechar 0
LayerCount: 2
Fore
SplineSet
1520.93945312 911.729492188 m 0,0,1
 1372 908 1372 908 1332.13574219 717.197265625 c 0,2,3
 1292 529 1292 529 1551.12597656 544.603515625 c 0,4,5
 1625 549 1625 549 1677.90136719 552.350585938 c 1,6,-1
 1677.91796875 554.186523438 l 2,7,8
 1679 644 1679 644 1660.37988281 736.205078125 c 0,9,10
 1626 914 1626 914 1520.93945312 911.729492188 c 0,0,1
1499.53808594 51.6318359375 m 0,11,12
 1327 -3 1327 -3 950.0859375 -1.640625 c 0,13,14
 574 -0 574 -0 370.31640625 89.7236328125 c 0,15,16
 116 202 116 202 100.588867188 465.259765625 c 0,17,18
 87 687 87 687 239.853515625 884.463867188 c 1,19,-1
 378.931640625 847.768554688 l 1,20,21
 249 670 249 670 256.793945312 485.079101562 c 0,22,23
 267 250 267 250 618.346679688 200.029296875 c 0,24,25
 668 193 668 193 895.952148438 186.2578125 c 0,26,27
 1239 176 1239 176 1466.85253906 238.799804688 c 0,28,29
 1652.7830897 289.94033843 1652.7830897 289.94033843 1665.93554688 374.713867188 c 2,30,-1
 1669.16699219 395.541992188 l 1,31,-1
 1540.140625 376.139648438 l 1,32,33
 1275 358 1275 358 1210.13867188 487.432617188 c 0,34,35
 1165 577 1165 577 1180.11328125 676.828125 c 0,36,37
 1208 858 1208 858 1335.57421875 998.5 c 0,38,39
 1422 1094 1422 1094 1558.59179688 1082.06640625 c 0,40,41
 1689 1071 1689 1071 1767.50390625 914.775390625 c 0,42,43
 1812 825 1812 825 1821.96875 697.265625 c 4,44,45
 1838 477 1838 477 1805.48144531 352.606445312 c 0,46,47
 1747 130 1747 130 1499.53808594 51.6318359375 c 0,11,12
EndSplineSet
Substitution2: "'init' Initial Forms in Arabic lookup 13 subtable" uni06A1.init
Substitution2: "'medi' Medial Forms in Arabic lookup 11 subtable" uni06A1.medi
Substitution2: "'fina' Terminal Forms in Arabic lookup 9 subtable" uni06A1.fina
EndChar

StartChar: uni06A9
Encoding: 1705 1705 81
Width: 2017
VWidth: 2424
GlyphClass: 2
Flags: W
AnchorPoint: "Anchor-10" 453.737 1297.07 basechar 0
AnchorPoint: "Anchor-7" 494.787 -232.194 basechar 0
LayerCount: 2
Fore
SplineSet
1102.859375 4.0263671875 m 0,0,1
 1094 4 1094 4 954.616210938 0 c 0,2,3
 582 -11 582 -11 370.325195312 89.720703125 c 0,4,5
 116 211 116 211 100.588867188 465.259765625 c 0,6,7
 87 687 87 687 239.853515625 884.463867188 c 1,8,-1
 378.931640625 847.768554688 l 1,9,10
 249 670 249 670 256.793945312 485.079101562 c 0,11,12
 267 237 267 237 618.3359375 200.03125 c 0,13,14
 760 185 760 185 899.329101562 186.256835938 c 2,15,-1
 1102.859375 188.016601562 l 1,16,-1
 1181.75488281 188.04296875 l 2,17,18
 1351.20402013 188.099599315 1351.20402013 188.099599315 1414.5546875 219.026367188 c 24,19,20
 1553 287 1553 287 1558.72949219 400.681640625 c 0,21,22
 1567 571 1567 571 1439.5546875 704.026367188 c 0,23,24
 1367 780 1367 780 1257.69433594 847.545898438 c 0,25,26
 1144 918 1144 918 1138.00292969 974.243164062 c 0,27,28
 1126 1084 1126 1084 1241.98632812 1162.85449219 c 0,29,30
 1559 1379 1559 1379 1966.58105469 1460.85839844 c 1,31,-1
 1966.58105469 1310.57226562 l 1,32,33
 1621 1248 1621 1248 1283.79882812 1019.796875 c 1,34,35
 1538 903 1538 903 1665.5546875 646.026367188 c 0,36,37
 1744 487 1744 487 1703.40722656 314.834960938 c 0,38,39
 1653 99 1653 99 1395 35 c 0,40,41
 1303 12 1303 12 1102.859375 4.0263671875 c 0,0,1
EndSplineSet
Substitution2: "'init' Initial Forms in Arabic lookup 13 subtable" uniFB90
Substitution2: "'medi' Medial Forms in Arabic lookup 11 subtable" uniFB91
Substitution2: "'fina' Terminal Forms in Arabic lookup 9 subtable" uniFB8F
EndChar

StartChar: afii57514
Encoding: 1722 1722 83
Width: 1484
VWidth: 2429
GlyphClass: 2
Flags: W
AnchorPoint: "Anchor-10" 604.129 1168.52 basechar 0
AnchorPoint: "Anchor-7" 450.433 -688.435 basechar 0
LayerCount: 2
Fore
SplineSet
1370.77539062 681.782226562 m 1,0,1
 1391 432 1391 432 1381.38671875 276.474609375 c 0,2,3
 1370 88 1370 88 1336.26464844 -12.4443359375 c 0,4,5
 1274 -199 1274 -199 1130.66601562 -285.502929688 c 0,6,7
 987 -372 987 -372 752.119140625 -380.475585938 c 0,8,9
 464 -392 464 -392 305.78515625 -288.448242188 c 0,10,11
 90 -148 90 -148 100.877929688 121.416992188 c 0,12,13
 116 472 116 472 393.3203125 753.502929688 c 1,14,-1
 510.438476562 666.180664062 l 1,15,16
 126 173 126 173 343.479492188 -90.5751953125 c 0,17,18
 447 -216 447 -216 758 -214.055664062 c 0,19,20
 1197 -211 1197 -211 1217.25097656 184.215820312 c 0,21,22
 1232 477 1232 477 1199.82421875 597.130859375 c 1,23,-1
 1370.77539062 681.782226562 l 1,0,1
EndSplineSet
Substitution2: "'init' Initial Forms in Arabic lookup 13 subtable" uni06BA.init
Substitution2: "'medi' Medial Forms in Arabic lookup 11 subtable" uni06BA.medi
Substitution2: "'fina' Terminal Forms in Arabic lookup 9 subtable" uniFB9F
EndChar

StartChar: uni06F4
Encoding: 1780 1780 90
Width: 1180
VWidth: 2393
GlyphClass: 2
Flags: W
LayerCount: 2
Fore
SplineSet
545.260282576 1010.48075561 m 0,0,1
 600.854065204 917.895599002 600.854065204 917.895599002 801.269981802 918.074220714 c 0,2,3
 883.809048812 918.001053757 883.809048812 918.001053757 1065.23527368 944.389891535 c 1,4,-1
 1067.33749878 808.663504684 l 1,5,6
 916.945746239 781.017511298 916.945746239 781.017511298 813.33345057 781.891767573 c 0,7,8
 573.683441124 780.005717479 573.683441124 780.005717479 439.931040705 894.969546463 c 2,9,-1
 422.612023722 909.855712994 l 1,10,-1
 432.126464086 889.094650213 l 2,11,12
 462.159129102 823.561626725 462.159129102 823.561626725 494.468990511 608.323881922 c 128,-1,13
 526.778851919 393.086137119 526.778851919 393.086137119 522.742069336 14.3349609375 c 1,14,-1
 363.757010341 14.3349609375 l 1,15,16
 361.544460838 569.470877977 361.544460838 569.470877977 280.107899416 903.946430386 c 0,17,18
 224.303567705 1131.36734383 224.303567705 1131.36734383 115.639600364 1395.75359569 c 1,19,-1
 269.142907424 1446.00093911 l 1,20,21
 353.583966314 1201.0278263 353.583966314 1201.0278263 374.021896594 1138.23855103 c 2,22,-1
 388.425958887 1093.98648539 l 1,23,-1
 397.512138813 1139.63302333 l 2,24,25
 467.068663449 1490.80749445 467.068663449 1490.80749445 847.801136944 1473.28850113 c 0,26,27
 937.157458812 1469.17172773 937.157458812 1469.17172773 1001.890625 1446.17142355 c 1,28,-1
 1001.890625 1316.76426924 l 1,29,30
 924.358347454 1338.01093747 924.358347454 1338.01093747 832.36824316 1338.28807835 c 0,31,32
 664.798517558 1337.99617261 664.798517558 1337.99617261 593.352253195 1260.13530227 c 0,33,34
 473.793430973 1129.62696372 473.793430973 1129.62696372 545.260282576 1010.48075561 c 0,0,1
EndSplineSet
EndChar

StartChar: uni06F5
Encoding: 1781 1781 91
Width: 1328
VWidth: 2393
GlyphClass: 2
Flags: W
LayerCount: 2
Fore
SplineSet
447.628715199 184.551731271 m 0,0,1
 567.015447471 185.011577624 567.015447471 185.011577624 614.028380246 409.293458027 c 1,2,-1
 722.068901755 409.202785775 l 1,3,4
 760.355180324 179.989777465 760.355180324 179.989777465 906.959515142 180.562536102 c 0,5,6
 1059.98308399 179.981027561 1059.98308399 179.981027561 1060.48042228 328.583080817 c 0,7,8
 1059.99713008 440.676419347 1059.99713008 440.676419347 1039.22605856 517.282242978 c 0,9,10
 959.4157857 799.760531803 959.4157857 799.760531803 633.700375819 1090.5105219 c 1,11,12
 255.82477871 658.484700184 255.82477871 658.484700184 272.376519565 340.373028395 c 0,13,14
 280.246199138 185.013083799 280.246199138 185.013083799 447.628715199 184.551731271 c 0,0,1
663.610315445 188.967929756 m 2,15,16
 597.348610654 6.32715062937 597.348610654 6.32715062937 392.561547984 14.667402102 c 0,17,18
 88.7547335947 27.0403772214 88.7547335947 27.0403772214 102.631919551 360.652075579 c 0,19,20
 109.121739266 508.666975431 109.121739266 508.666975431 163.467835507 650.371968646 c 0,21,22
 245.384823091 863.471753648 245.384823091 863.471753648 519.218117797 1202.74569171 c 1,23,-1
 473.701138744 1245.35203598 l 1,24,-1
 579.891229061 1375.11506692 l 1,25,26
 604.127389719 1351.20328809 604.127389719 1351.20328809 683.753871372 1275.77650033 c 0,27,28
 1225.00105023 768.831470985 1225.00105023 768.831470985 1225.20996197 336.406526769 c 0,29,30
 1223.01604398 16.1921403841 1223.01604398 16.1921403841 906.0366161 14.6630496549 c 0,31,32
 736.039034076 14.0154234678 736.039034076 14.0154234678 679.747993729 170.266942141 c 2,33,-1
 668.327057179 201.968944262 l 1,34,-1
 663.610315445 188.967929756 l 2,15,16
EndSplineSet
EndChar

StartChar: uni06F6
Encoding: 1782 1782 92
Width: 1066
VWidth: 2393
GlyphClass: 2
Flags: W
LayerCount: 2
Fore
SplineSet
114.798476065 14.3349609375 m 1,0,1
 259.022691965 463.282193411 259.022691965 463.282193411 471.540713564 705.415767717 c 1,2,-1
 453.679449935 705.400384145 l 2,3,4
 208.5259683 705.005683342 208.5259683 705.005683342 130.512091433 924.257798389 c 0,5,6
 116 964.866572482 116 964.866572482 116 1026.04134233 c 128,-1,7
 116 1087.21611218 116 1087.21611218 131.892173426 1136.85732722 c 0,8,9
 222.648838843 1420.34725799 222.648838843 1420.34725799 577.443320304 1417.43673447 c 0,10,11
 623.079744172 1417.01743207 623.079744172 1417.01743207 698.3282285 1404.86816763 c 1,12,-1
 676.384169307 1263.50713783 l 1,13,14
 652.429013896 1272.02304119 652.429013896 1272.02304119 578.481526576 1272.20116957 c 0,15,16
 365.894113824 1271.99701969 365.894113824 1271.99701969 287.408812913 1113.39731262 c 0,17,18
 264 1066.17119612 264 1066.17119612 264 1027.01539422 c 128,-1,19
 264 987.859592319 264 987.859592319 267.436986194 970.200843932 c 0,20,21
 293.528215 836.1478048 293.528215 836.1478048 538.681167666 823.567948857 c 0,22,23
 550.672365048 822.95944665 550.672365048 822.95944665 948.500920281 970.312026493 c 1,24,-1
 955.050940227 811.708232948 l 1,25,26
 686.348517667 750.064404142 686.348517667 750.064404142 478.292523167 449.203911627 c 0,27,28
 376.078827161 302.119167317 376.078827161 302.119167317 289.923761153 14.3349609375 c 1,29,-1
 114.798476065 14.3349609375 l 1,0,1
EndSplineSet
EndChar

StartChar: uniFB8F
Encoding: 64399 64399 107
Width: 2022
VWidth: 2424
GlyphClass: 2
Flags: W
AnchorPoint: "Anchor-10" 461.625 1252.63 basechar 0
AnchorPoint: "Anchor-7" 489.513 -245.85 basechar 0
LayerCount: 2
Fore
SplineSet
1653 196.783203125 m 1,0,1
 1574 79 1574 79 1395 35 c 0,2,3
 1273 5 1273 5 1102.859375 4.0263671875 c 0,4,5
 1094 4 1094 4 954.616210938 0 c 0,6,7
 582 -11 582 -11 370.325195312 89.720703125 c 0,8,9
 116 211 116 211 100.588867188 465.259765625 c 0,10,11
 87 687 87 687 239.853515625 884.463867188 c 1,12,-1
 378.931640625 847.768554688 l 1,13,14
 249 670 249 670 256.793945312 485.079101562 c 0,15,16
 267 237 267 237 618.3359375 200.03125 c 0,17,18
 759.545388492 185.048236505 759.545388492 185.048236505 899.329101562 186.256835938 c 2,19,-1
 1102.859375 188.016601562 l 1,20,-1
 1181.75488281 188.04296875 l 2,21,22
 1351 188 1351 188 1414.5546875 219.026367188 c 24,23,24
 1553 287 1553 287 1558.72949219 400.681640625 c 0,25,26
 1567 571 1567 571 1439.5546875 704.026367188 c 0,27,28
 1367 780 1367 780 1257.69433594 847.545898438 c 0,29,30
 1145 917 1145 917 1138.00292969 974.243164062 c 0,31,32
 1124 1083 1124 1083 1241.98632812 1163.85449219 c 0,33,34
 1556 1379 1556 1379 1966.58105469 1461.85839844 c 1,35,-1
 1966.58105469 1310.57226562 l 1,36,37
 1621 1248 1621 1248 1283.79882812 1019.796875 c 1,38,39
 1538 903 1538 903 1665.5546875 646.026367188 c 0,40,41
 1726 524 1726 524 1715.83398438 394 c 1,42,43
 1816.05775942 183.87890625 1816.05775942 183.87890625 1971.25976562 183.87890625 c 2,44,-1
 2037 183.87890625 l 1,45,-1
 2037 0 l 1,46,-1
 1987 0 l 2,47,48
 1751 0 1751 0 1653 196.783203125 c 1,0,1
EndSplineSet
EndChar

StartChar: uniFB9F
Encoding: 64415 64415 115
Width: 1571
VWidth: 2429
GlyphClass: 2
Flags: W
AnchorPoint: "Anchor-10" 440.277 789.488 basechar 0
AnchorPoint: "Anchor-7" 279.654 -781.979 basechar 0
LayerCount: 2
Fore
SplineSet
1485.29101562 0.556640625 m 2,0,1
 1412.4453125 0.556640625 1412.4453125 0.556640625 1364.21679688 74.7900390625 c 5,2,3
 1348.50878906 -181.286132812 1348.50878906 -181.286132812 1229.9375 -328.78125 c 4,4,5
 1084.35839844 -509.875976562 1084.35839844 -509.875976562 751.407226562 -522.875976562 c 4,6,7
 463.557617188 -534.216796875 463.557617188 -534.216796875 305.072265625 -430.848632812 c 4,8,9
 89.5576171875 -290.28125 89.5576171875 -290.28125 100.165039062 -20.9833984375 c 4,10,11
 115.112304688 330.057617188 115.112304688 330.057617188 392.608398438 611.1015625 c 5,12,-1
 509.725585938 523.780273438 l 5,13,14
 125.013671875 29.78125 125.013671875 29.78125 342.766601562 -232.975585938 c 4,15,16
 446.443359375 -358.764648438 446.443359375 -358.764648438 757.288085938 -356.456054688 c 4,17,18
 1196.00488281 -353.254882812 1196.00488281 -353.254882812 1216.5390625 41.8154296875 c 4,19,20
 1231.58691406 334.743164062 1231.58691406 334.743164062 1199.11132812 454.731445312 c 5,21,-1
 1363.77050781 539.231445312 l 5,22,23
 1359.33007812 328.079101562 1359.33007812 328.079101562 1370.46484375 285.556640625 c 132,-1,24
 1381.60058594 243.034179688 1381.60058594 243.034179688 1403.64941406 223.428710938 c 0,25,26
 1447.5 184.435546875 1447.5 184.435546875 1547.42382812 184.435546875 c 2,27,-1
 1592.42675781 184.435546875 l 1,28,-1
 1592.42675781 0.556640625 l 1,29,-1
 1485.29101562 0.556640625 l 2,0,1
EndSplineSet
EndChar

StartChar: uniFBE8
Encoding: 64488 64488 118
Width: 609
VWidth: 2429
GlyphClass: 2
Flags: W
AnchorPoint: "Anchor-10" 308.385 1128.86 basechar 0
AnchorPoint: "Anchor-7" 271.984 -211.156 basechar 0
LayerCount: 2
Fore
SplineSet
450.845703125 150.930664062 m 0,0,1
 374.698242188 0 374.698242188 0 127.125 0 c 2,2,-1
 -14.8330078125 0 l 1,3,-1
 -14.8330078125 183.990234375 l 1,4,-1
 73.73046875 183.990234375 l 2,5,6
 271 184 271 184 319 260 c 0,7,8
 410 404 410 404 312.798828125 713.1953125 c 1,9,-1
 444.602539062 778.180664062 l 1,10,11
 575 400 575 400 450.845703125 150.930664062 c 0,0,1
EndSplineSet
EndChar

StartChar: uniFBE9
Encoding: 64489 64489 119
Width: 706
VWidth: 2424
GlyphClass: 2
Flags: W
AnchorPoint: "Anchor-10" 366.272 1071.01 basechar 0
AnchorPoint: "Anchor-7" 286.247 -208.057 basechar 0
LayerCount: 2
Fore
SplineSet
392.60546875 105.018554688 m 2,0,1
 298.553710938 0 298.553710938 0 135.951171875 0 c 2,2,-1
 -18.1328125 0 l 1,3,-1
 -18.1328125 183.990234375 l 1,4,-1
 83.830078125 183.990234375 l 2,5,6
 225.237304688 183.990234375 225.237304688 183.990234375 278.97265625 237.365234375 c 128,-1,7
 332.70703125 290.739257812 332.70703125 290.739257812 344.55859375 378.596679688 c 2,8,-1
 362.162109375 509.102539062 l 1,9,-1
 512.606445312 535.100585938 l 1,10,-1
 494.112304688 365.731445312 l 2,11,12
 481.127929688 246.813476562 481.127929688 246.813476562 562.984375 200.84765625 c 0,13,14
 593.02734375 183.990234375 593.02734375 183.990234375 698.77734375 183.990234375 c 2,15,-1
 727.758789062 183.990234375 l 1,16,-1
 727.758789062 0 l 1,17,-1
 633.305664062 0 l 2,18,19
 520.971679688 0 520.971679688 0 424.76953125 104.704101562 c 2,20,-1
 408.33984375 122.5859375 l 1,21,-1
 392.60546875 105.018554688 l 2,0,1
EndSplineSet
EndChar

StartChar: uniFE73
Encoding: 65139 65139 127
Width: 634
VWidth: 2429
GlyphClass: 2
Flags: W
AnchorPoint: "Anchor-10" 231.504 1421.44 basechar 0
AnchorPoint: "Anchor-7" 231.504 -126.044 basechar 0
LayerCount: 2
Fore
SplineSet
324.555664062 388.198242188 m 2,0,1
 324.555664062 315.91015625 324.555664062 315.91015625 384.729492188 255.735351562 c 128,-1,2
 444.903320312 195.560546875 444.903320312 195.560546875 569.5703125 195.560546875 c 2,3,-1
 642.385742188 195.560546875 l 1,4,-1
 642.385742188 9.4560546875 l 1,5,-1
 504.099609375 9.4560546875 l 2,6,7
 341.88671875 9.4560546875 341.88671875 9.4560546875 240.169921875 111.173828125 c 128,-1,8
 138.452148438 212.890625 138.452148438 212.890625 138.452148438 373.9140625 c 2,9,-1
 138.452148438 408.637695312 l 1,10,-1
 324.555664062 408.637695312 l 1,11,-1
 324.555664062 388.198242188 l 2,0,1
EndSplineSet
EndChar

StartChar: uniFE8E
Encoding: 65166 65166 153
Width: 585
VWidth: 2424
GlyphClass: 2
Flags: W
AnchorPoint: "Anchor-10" 263.095 1495 basechar 0
AnchorPoint: "Anchor-7" 305.106 -231.731 basechar 0
LayerCount: 2
Fore
SplineSet
204.711914062 1294.58984375 m 1,0,-1
 357.584960938 1295.67382812 l 1,1,2
 284.849609375 380.107421875 284.849609375 380.107421875 396.741210938 241.595703125 c 0,3,4
 443.276367188 183.990234375 443.276367188 183.990234375 534.1484375 183.990234375 c 2,5,-1
 605.8515625 183.990234375 l 1,6,-1
 605.8515625 0 l 1,7,-1
 583.265625 0 l 2,8,9
 196.40625 0 196.40625 0 183.750976562 416.651367188 c 0,10,11
 168.974609375 912.081054688 168.974609375 912.081054688 204.711914062 1294.58984375 c 1,0,-1
EndSplineSet
EndChar

StartChar: uniFEA2
Encoding: 65186 65186 173
Width: 1313
VWidth: 2424
GlyphClass: 2
Flags: W
AnchorPoint: "Anchor-10" 507.987 1202.46 basechar 0
AnchorPoint: "Anchor-7" 307.828 -651.093 basechar 0
LayerCount: 2
Fore
SplineSet
1311.85644531 0 m 2,0,1
 901 0 901 0 785 570 c 1,2,3
 237 326 237 326 254.669921875 -40.5966796875 c 0,4,5
 264 -232 264 -232 416.081054688 -324.041015625 c 0,6,7
 610 -442 610 -442 891.038085938 -399.600585938 c 0,8,9
 1025 -379 1025 -379 1126.43261719 -335.401367188 c 1,10,-1
 1162 -502 l 1,11,12
 1091 -539 1091 -539 967.546875 -556.81640625 c 0,13,14
 795 -583 795 -583 664.950195312 -571.145507812 c 0,15,16
 367 -544 367 -544 216.817382812 -373.788085938 c 0,17,18
 90 -230 90 -230 101.802734375 -17.2568359375 c 0,19,20
 130 467 130 467 747.997070312 722.647460938 c 1,21,22
 665 733 665 733 600.134765625 747.284179688 c 0,23,24
 535 761 535 761 470.202148438 762.08984375 c 0,25,26
 343 763 343 763 213.844726562 599.368164062 c 1,27,-1
 101.216796875 686.005859375 l 1,28,29
 238 885 238 885 355.63671875 912.091796875 c 0,30,31
 473 939 473 939 684.264648438 880.555664062 c 1,32,-1
 1050.51757812 782.219726562 l 1,33,-1
 1029.78613281 658.721679688 l 1,34,35
 969 650 969 650 897 632 c 1,36,37
 1010 184 1010 184 1288.56738281 183.87890625 c 2,38,-1
 1330.08105469 183.87890625 l 1,39,-1
 1330.08105469 0 l 1,40,-1
 1311.85644531 0 l 2,0,1
EndSplineSet
EndChar

StartChar: uniFEA3
Encoding: 65187 65187 174
Width: 1363
VWidth: 2424
GlyphClass: 2
Flags: W
AnchorPoint: "Anchor-10" 468.7 1169.16 basechar 0
AnchorPoint: "Anchor-7" 521.638 -253.956 basechar 0
LayerCount: 2
Fore
SplineSet
1149.27636719 467.37109375 m 0,0,1
 882.572265625 262.099609375 882.572265625 262.099609375 655.818359375 131.049804688 c 128,-1,2
 429.065429688 0 429.065429688 0 52.908203125 0 c 2,3,-1
 -15.908203125 0 l 1,4,-1
 -15.908203125 183.990234375 l 1,5,-1
 21.029296875 183.990234375 l 2,6,7
 365.450195312 183.990234375 365.450195312 183.990234375 528.369140625 263.734375 c 0,8,9
 842.359375 415.162109375 842.359375 415.162109375 994.745117188 565.478515625 c 1,10,11
 901.137695312 571.7890625 901.137695312 571.7890625 753.958984375 644.421875 c 128,-1,12
 606.779296875 717.0546875 606.779296875 717.0546875 534.82421875 725.546875 c 0,13,14
 374.174804688 744.508789062 374.174804688 744.508789062 185.852539062 502.747070312 c 1,15,-1
 73.2548828125 589.360351562 l 1,16,17
 182.294921875 742.948242188 182.294921875 742.948242188 274.2578125 818.8046875 c 0,18,19
 415.03125 934.921875 415.03125 934.921875 613.069335938 882.938476562 c 0,20,21
 723.834960938 853.86328125 723.834960938 853.86328125 887.5078125 763.748046875 c 128,-1,22
 1051.18066406 673.631835938 1051.18066406 673.631835938 1310.5625 659.708007812 c 1,23,-1
 1286.72167969 523.166015625 l 1,24,25
 1205.00488281 510.264648438 1205.00488281 510.264648438 1149.27636719 467.37109375 c 0,0,1
EndSplineSet
EndChar

StartChar: uniFEA4
Encoding: 65188 65188 175
Width: 1358
VWidth: 2424
GlyphClass: 2
Flags: W
AnchorPoint: "Anchor-10" 475.188 1175.37 basechar 0
AnchorPoint: "Anchor-7" 518.088 -294.856 basechar 0
LayerCount: 2
Fore
SplineSet
1265.16113281 0 m 2,0,1
 905 0 905 0 820 267 c 1,2,3
 701 188 701 188 604.377929688 131.544921875 c 0,4,5
 376 0 376 0 32.8837890625 0 c 2,6,-1
 -18.9326171875 0 l 1,7,-1
 -18.9326171875 183.990234375 l 1,8,-1
 1.0048828125 183.990234375 l 2,9,10
 312 184 312 184 474.978515625 263.740234375 c 0,11,12
 784 415 784 415 944.846679688 565.467773438 c 1,13,14
 845 572 845 572 700.670898438 644.635742188 c 0,15,16
 557 717 557 717 484.76171875 725.546875 c 0,17,18
 324 745 324 745 135.790039062 502.747070312 c 1,19,-1
 23.1923828125 589.360351562 l 1,20,21
 132 743 132 743 224.1953125 818.8046875 c 0,22,23
 389 955 389 955 647.150390625 855.416992188 c 0,24,25
 737 821 737 821 847.36328125 759.337890625 c 0,26,27
 1001 674 1001 674 1260.44726562 659.7109375 c 1,28,-1
 1233.35644531 523.171875 l 1,29,30
 1152 510 1152 510 1084.49316406 458.607421875 c 0,31,32
 1017 407 1017 407 940.48828125 351.553710938 c 1,33,34
 962.001135176 184.991210938 962.001135176 184.991210938 1288.96875 184.991210938 c 2,35,-1
 1371.99609375 184.991210938 l 1,36,-1
 1371.99609375 0 l 1,37,-1
 1265.16113281 0 l 2,0,1
EndSplineSet
EndChar

StartChar: uniFEAA
Encoding: 65194 65194 181
Width: 1166
VWidth: 2424
GlyphClass: 2
Flags: W
AnchorPoint: "Anchor-10" 587.677 1284.21 basechar 0
AnchorPoint: "Anchor-7" 426.981 -264.55 basechar 0
LayerCount: 2
Fore
SplineSet
1143.36425781 0.556640625 m 2,0,1
 967.330508265 0.556640625 967.330508265 0.556640625 865.859375 136.674804688 c 1,2,3
 706 -43 706 -43 398.616210938 -27.5634765625 c 0,4,5
 203 -18 203 -18 99.3193359375 53.6884765625 c 1,6,-1
 99.3193359375 247.052734375 l 1,7,8
 271 153 271 153 417.981445312 152.453125 c 0,9,10
 716 152 716 152 744.788085938 298.427734375 c 0,11,12
 767 408 767 408 718.309570312 821.87890625 c 1,13,-1
 876.184570312 880.513671875 l 1,14,15
 904 440 904 440 920.543945312 358.48828125 c 0,16,17
 955.911496785 184.435546875 955.911496785 184.435546875 1138.5625 184.435546875 c 2,18,-1
 1187.2109375 184.435546875 l 1,19,-1
 1187.2109375 0.556640625 l 1,20,-1
 1143.36425781 0.556640625 l 2,0,1
EndSplineSet
EndChar

StartChar: uniFEAE
Encoding: 65198 65198 185
Width: 899
VWidth: 2429
GlyphClass: 2
Flags: W
AnchorPoint: "Anchor-10" 513.088 876.025 basechar 0
AnchorPoint: "Anchor-7" 348.967 -681.475 basechar 0
LayerCount: 2
Fore
SplineSet
888 0 m 2,0,1
 760.005996759 -0.00574221638586 760.005996759 -0.00574221638586 697.352539062 59.98828125 c 1,2,3
 600 -448 600 -448 91.900390625 -515.081054688 c 1,4,-1
 14.1796875 -400.658203125 l 1,5,6
 509 -299 509 -299 549.158203125 127.0234375 c 0,7,8
 563 271 563 271 535.9375 497.268554688 c 1,9,-1
 696.297851562 527.771484375 l 1,10,11
 701 397 l 2,12,13
 706 265 706 265 758.3359375 217.909179688 c 0,14,15
 796.010847007 183.990234375 796.010847007 183.990234375 885.296875 183.990234375 c 2,16,-1
 909.767578125 183.990234375 l 1,17,-1
 909.767578125 0.0009765625 l 1,18,-1
 888 0 l 2,0,1
EndSplineSet
PairPos2: "'kern' Horizontal Kerning lookup 15-1" uniFEE7 dx=-150 dy=0 dh=-150 dv=0 dx=0 dy=0 dh=0 dv=0
PairPos2: "'kern' Horizontal Kerning lookup 15-2" uniFB90 dx=-190 dy=0 dh=-190 dv=0 dx=0 dy=0 dh=0 dv=0
PairPos2: "'kern' Horizontal Kerning lookup 15-2" uniFB8E dx=-190 dy=0 dh=-190 dv=0 dx=0 dy=0 dh=0 dv=0
PairPos2: "'kern' Horizontal Kerning lookup 15-2" uni06A9 dx=-190 dy=0 dh=-190 dv=0 dx=0 dy=0 dh=0 dv=0
PairPos2: "'kern' Horizontal Kerning lookup 15-2" uni064A dx=-50 dy=0 dh=-50 dv=0 dx=0 dy=0 dh=0 dv=0
PairPos2: "'kern' Horizontal Kerning lookup 15-2" afii57414 dx=-50 dy=0 dh=-50 dv=0 dx=0 dy=0 dh=0 dv=0
PairPos2: "'kern' Horizontal Kerning lookup 15-2" uni0649 dx=-50 dy=0 dh=-50 dv=0 dx=0 dy=0 dh=0 dv=0
PairPos2: "'kern' Horizontal Kerning lookup 15-2" uni0648 dx=-50 dy=0 dh=-50 dv=0 dx=0 dy=0 dh=0 dv=0
PairPos2: "'kern' Horizontal Kerning lookup 15-2" afii57412 dx=-50 dy=0 dh=-50 dv=0 dx=0 dy=0 dh=0 dv=0
PairPos2: "'kern' Horizontal Kerning lookup 15-2" uniFEEB dx=-150 dy=0 dh=-150 dv=0 dx=0 dy=0 dh=0 dv=0
PairPos2: "'kern' Horizontal Kerning lookup 15-2" uni0647 dx=-150 dy=0 dh=-150 dv=0 dx=0 dy=0 dh=0 dv=0
PairPos2: "'kern' Horizontal Kerning lookup 15-2" uni0646 dx=-50 dy=0 dh=-50 dv=0 dx=0 dy=0 dh=0 dv=0
PairPos2: "'kern' Horizontal Kerning lookup 15-2" uniFEE3 dx=-150 dy=0 dh=-150 dv=0 dx=0 dy=0 dh=0 dv=0
PairPos2: "'kern' Horizontal Kerning lookup 15-2" uni0645 dx=-150 dy=0 dh=-150 dv=0 dx=0 dy=0 dh=0 dv=0
PairPos2: "'kern' Horizontal Kerning lookup 15-2" uniFEFB dx=-150 dy=0 dh=-150 dv=0 dx=0 dy=0 dh=0 dv=0
PairPos2: "'kern' Horizontal Kerning lookup 15-2" uniFEDF dx=-150 dy=0 dh=-150 dv=0 dx=0 dy=0 dh=0 dv=0
PairPos2: "'kern' Horizontal Kerning lookup 15-2" uni0644 dx=-50 dy=0 dh=-50 dv=0 dx=0 dy=0 dh=0 dv=0
PairPos2: "'kern' Horizontal Kerning lookup 15-2" uniFEDB dx=-190 dy=0 dh=-190 dv=0 dx=0 dy=0 dh=0 dv=0
PairPos2: "'kern' Horizontal Kerning lookup 15-2" uni0643 dx=-150 dy=0 dh=-150 dv=0 dx=0 dy=0 dh=0 dv=0
PairPos2: "'kern' Horizontal Kerning lookup 15-2" uniFED7 dx=-150 dy=0 dh=-150 dv=0 dx=0 dy=0 dh=0 dv=0
PairPos2: "'kern' Horizontal Kerning lookup 15-2" uni0642 dx=-50 dy=0 dh=-50 dv=0 dx=0 dy=0 dh=0 dv=0
PairPos2: "'kern' Horizontal Kerning lookup 15-2" uniFED3 dx=-150 dy=0 dh=-150 dv=0 dx=0 dy=0 dh=0 dv=0
PairPos2: "'kern' Horizontal Kerning lookup 15-2" uni0641 dx=-150 dy=0 dh=-150 dv=0 dx=0 dy=0 dh=0 dv=0
PairPos2: "'kern' Horizontal Kerning lookup 15-2" uniFECF dx=-150 dy=0 dh=-150 dv=0 dx=0 dy=0 dh=0 dv=0
PairPos2: "'kern' Horizontal Kerning lookup 15-2" uniFECB dx=-150 dy=0 dh=-150 dv=0 dx=0 dy=0 dh=0 dv=0
PairPos2: "'kern' Horizontal Kerning lookup 15-2" uniFEC7 dx=-150 dy=0 dh=-150 dv=0 dx=0 dy=0 dh=0 dv=0
PairPos2: "'kern' Horizontal Kerning lookup 15-2" uni0638 dx=-150 dy=0 dh=-150 dv=0 dx=0 dy=0 dh=0 dv=0
PairPos2: "'kern' Horizontal Kerning lookup 15-2" uniFEC3 dx=-150 dy=0 dh=-150 dv=0 dx=0 dy=0 dh=0 dv=0
PairPos2: "'kern' Horizontal Kerning lookup 15-2" uni0637 dx=-150 dy=0 dh=-150 dv=0 dx=0 dy=0 dh=0 dv=0
PairPos2: "'kern' Horizontal Kerning lookup 15-2" uniFEBF dx=-150 dy=0 dh=-150 dv=0 dx=0 dy=0 dh=0 dv=0
PairPos2: "'kern' Horizontal Kerning lookup 15-2" uni0636 dx=-150 dy=0 dh=-150 dv=0 dx=0 dy=0 dh=0 dv=0
PairPos2: "'kern' Horizontal Kerning lookup 15-2" uniFEBB dx=-150 dy=0 dh=-150 dv=0 dx=0 dy=0 dh=0 dv=0
PairPos2: "'kern' Horizontal Kerning lookup 15-2" uni0635 dx=-150 dy=0 dh=-150 dv=0 dx=0 dy=0 dh=0 dv=0
PairPos2: "'kern' Horizontal Kerning lookup 15-2" uniFEB7 dx=-150 dy=0 dh=-150 dv=0 dx=0 dy=0 dh=0 dv=0
PairPos2: "'kern' Horizontal Kerning lookup 15-2" uni0634 dx=-150 dy=0 dh=-150 dv=0 dx=0 dy=0 dh=0 dv=0
PairPos2: "'kern' Horizontal Kerning lookup 15-2" uniFEB3 dx=-150 dy=0 dh=-150 dv=0 dx=0 dy=0 dh=0 dv=0
PairPos2: "'kern' Horizontal Kerning lookup 15-2" uni0633 dx=-150 dy=0 dh=-150 dv=0 dx=0 dy=0 dh=0 dv=0
PairPos2: "'kern' Horizontal Kerning lookup 15-2" uni0632 dx=-50 dy=0 dh=-50 dv=0 dx=0 dy=0 dh=0 dv=0
PairPos2: "'kern' Horizontal Kerning lookup 15-2" uni0631 dx=-50 dy=0 dh=-50 dv=0 dx=0 dy=0 dh=0 dv=0
PairPos2: "'kern' Horizontal Kerning lookup 15-2" uni0630 dx=-150 dy=0 dh=-150 dv=0 dx=0 dy=0 dh=0 dv=0
PairPos2: "'kern' Horizontal Kerning lookup 15-2" uni062F dx=-150 dy=0 dh=-150 dv=0 dx=0 dy=0 dh=0 dv=0
PairPos2: "'kern' Horizontal Kerning lookup 15-2" uniFEA7 dx=-150 dy=0 dh=-150 dv=0 dx=0 dy=0 dh=0 dv=0
PairPos2: "'kern' Horizontal Kerning lookup 15-2" uniFEA3 dx=-150 dy=0 dh=-150 dv=0 dx=0 dy=0 dh=0 dv=0
PairPos2: "'kern' Horizontal Kerning lookup 15-2" uniFE9F dx=-150 dy=0 dh=-150 dv=0 dx=0 dy=0 dh=0 dv=0
PairPos2: "'kern' Horizontal Kerning lookup 15-2" uniFE9B dx=-150 dy=0 dh=-150 dv=0 dx=0 dy=0 dh=0 dv=0
PairPos2: "'kern' Horizontal Kerning lookup 15-2" uni062B dx=-150 dy=0 dh=-150 dv=0 dx=0 dy=0 dh=0 dv=0
PairPos2: "'kern' Horizontal Kerning lookup 15-2" uniFE97 dx=-150 dy=0 dh=-150 dv=0 dx=0 dy=0 dh=0 dv=0
PairPos2: "'kern' Horizontal Kerning lookup 15-2" uni062A dx=-150 dy=0 dh=-150 dv=0 dx=0 dy=0 dh=0 dv=0
PairPos2: "'kern' Horizontal Kerning lookup 15-2" uni0629 dx=-150 dy=0 dh=-150 dv=0 dx=0 dy=0 dh=0 dv=0
PairPos2: "'kern' Horizontal Kerning lookup 15-2" uniFE91 dx=-50 dy=0 dh=-50 dv=0 dx=0 dy=0 dh=0 dv=0
PairPos2: "'kern' Horizontal Kerning lookup 15-2" uni0628 dx=-150 dy=0 dh=-150 dv=0 dx=0 dy=0 dh=0 dv=0
PairPos2: "'kern' Horizontal Kerning lookup 15-2" uni0627 dx=-190 dy=0 dh=-190 dv=0 dx=0 dy=0 dh=0 dv=0
PairPos2: "'kern' Horizontal Kerning lookup 15-2" uni0623 dx=-190 dy=0 dh=-190 dv=0 dx=0 dy=0 dh=0 dv=0
PairPos2: "'kern' Horizontal Kerning lookup 15-2" uni0622 dx=-190 dy=0 dh=-190 dv=0 dx=0 dy=0 dh=0 dv=0
PairPos2: "'kern' Horizontal Kerning lookup 15-2" uni0621 dx=-150 dy=0 dh=-150 dv=0 dx=0 dy=0 dh=0 dv=0
PairPos2: "'kern' Horizontal Kerning lookup 15-2" uniFB94 dx=-190 dy=0 dh=-190 dv=0 dx=0 dy=0 dh=0 dv=0
PairPos2: "'kern' Horizontal Kerning lookup 15-2" uniFB92 dx=-190 dy=0 dh=-190 dv=0 dx=0 dy=0 dh=0 dv=0
PairPos2: "'kern' Horizontal Kerning lookup 15-2" afii57509 dx=-190 dy=0 dh=-190 dv=0 dx=0 dy=0 dh=0 dv=0
PairPos2: "'kern' Horizontal Kerning lookup 15-2" afii57508 dx=-50 dy=0 dh=-50 dv=0 dx=0 dy=0 dh=0 dv=0
PairPos2: "'kern' Horizontal Kerning lookup 15-2" afii57506 dx=-150 dy=0 dh=-150 dv=0 dx=0 dy=0 dh=0 dv=0
PairPos2: "'kern' Horizontal Kerning lookup 15-2" afii57440 dx=-150 dy=0 dh=-150 dv=0 dx=0 dy=0 dh=0 dv=0
PairPos2: "'kern' Horizontal Kerning lookup 15-2" uniFE8B dx=-150 dy=0 dh=-150 dv=0 dx=0 dy=0 dh=0 dv=0
EndChar

StartChar: uniFEB2
Encoding: 65202 65202 189
Width: 2727
VWidth: 2429
GlyphClass: 2
Flags: W
AnchorPoint: "Anchor-10" 665.612 978.669 basechar 0
AnchorPoint: "Anchor-7" 406.05 -678.419 basechar 0
LayerCount: 2
Fore
SplineSet
2087.9921875 -1.1201171875 m 0,0,1
 1847 0 1847 0 1818.99902344 165.08984375 c 1,2,-1
 1816.7265625 157.868164062 l 2,3,4
 1767 1 1767 1 1592.09179688 0 c 0,5,6
 1403.25682259 -0.998641809973 1403.25682259 -0.998641809973 1367.89355469 73.4130859375 c 2,7,-1
 1364.57617188 80.3935546875 l 1,8,9
 1348 -181 1348 -181 1229.53808594 -328.78125 c 0,10,11
 1084 -510 1084 -510 751.006835938 -522.875976562 c 0,12,13
 463 -534 463 -534 304.671875 -430.848632812 c 0,14,15
 89 -290 89 -290 99.7646484375 -20.9775390625 c 0,16,17
 114 329 114 329 392.208007812 611.102539062 c 1,18,-1
 509.326171875 523.780273438 l 1,19,20
 125 30 125 30 342.3671875 -232.975585938 c 0,21,22
 446 -359 446 -359 756.887695312 -356.456054688 c 0,23,24
 1196 -353 1196 -353 1216.13867188 41.8154296875 c 0,25,26
 1231 335 1231 335 1198.7109375 454.731445312 c 1,27,-1
 1363.37011719 539.232421875 l 1,28,29
 1377.51855469 308.018554688 l 2,30,31
 1386 174 1386 174 1588.76367188 176.7734375 c 0,32,33
 1712.26852657 179.004851582 1712.26852657 179.004851582 1774.74023438 325.544921875 c 2,34,-1
 1858.79394531 522.709960938 l 1,35,-1
 1974.08984375 522.709960938 l 1,36,-1
 1944.390625 351.213867188 l 2,37,38
 1913 172 1913 172 2096.48242188 171.389648438 c 0,39,40
 2254.93781099 171.000152865 2254.93781099 171.000152865 2303.65917969 374.897460938 c 2,41,-1
 2353.00292969 581.399414062 l 1,42,-1
 2468.77832031 582.370117188 l 1,43,-1
 2457.65917969 413.897460938 l 2,44,45
 2441.99241702 183.888671875 2441.99241702 183.888671875 2691.52246094 183.888671875 c 2,46,-1
 2747.58398438 183.888671875 l 1,47,-1
 2747.58398438 -1.1025390625 l 1,48,-1
 2641.69335938 -1.1025390625 l 2,49,50
 2450 -1 2450 -1 2374.79589844 158.284179688 c 1,51,52
 2263 -2 2263 -2 2087.9921875 -1.1201171875 c 0,0,1
EndSplineSet
EndChar

StartChar: uniFEB3
Encoding: 65203 65203 190
Width: 1626
VWidth: 2429
GlyphClass: 2
Flags: W
AnchorPoint: "Anchor-10" 667.906 1058.77 basechar 0
AnchorPoint: "Anchor-7" 690.156 -213.375 basechar 0
LayerCount: 2
Fore
SplineSet
327.9609375 152.853515625 m 5,0,1
 250 0 250 0 35.2578125 0 c 6,2,-1
 -15.783203125 0 l 5,3,-1
 -15.783203125 183.990234375 l 5,4,-1
 14.6328125 183.990234375 l 6,5,6
 204.744082963 183.999986872 204.744082963 183.999986872 283.194335938 407.009765625 c 6,7,-1
 327.028320312 531.616210938 l 5,8,-1
 458.708007812 531.616210938 l 5,9,-1
 431.364257812 408.203125 l 6,10,11
 381 180 381 180 606.592773438 176.780273438 c 4,12,13
 754.392216413 174.995263106 754.392216413 174.995263106 818.576171875 325.551757812 c 6,14,-1
 902.629882812 522.716796875 l 5,15,-1
 1017.92578125 522.716796875 l 5,16,-1
 988.225585938 351.220703125 l 6,17,18
 957 169 957 169 1145.71289062 172.479492188 c 5,19,20
 1201 172 1201 172 1239.38867188 196.096679688 c 4,21,22
 1443 322 1443 322 1277.08496094 713.260742188 c 5,23,-1
 1425.83105469 780.216796875 l 5,24,25
 1586.34698107 428.431151972 1586.34698107 428.431151972 1452.38671875 167.965820312 c 4,26,27
 1366 0 1366 0 1144.703125 0 c 5,28,-1
 1144.5078125 -0.009765625 l 5,29,30
 894 0 894 0 862.833984375 165.1015625 c 5,31,-1
 860.5625 157.874023438 l 6,32,33
 811 -0 811 -0 609.82421875 -0.001953125 c 4,34,35
 362.188028996 -1.48187325522e-06 362.188028996 -1.48187325522e-06 329.176757812 147.423828125 c 6,36,-1
 327.9609375 152.853515625 l 5,0,1
EndSplineSet
EndChar

StartChar: uniFEB4
Encoding: 65204 65204 191
Width: 1784
VWidth: 2429
GlyphClass: 2
Flags: W
AnchorPoint: "Anchor-10" 748.557 1053.21 basechar 0
AnchorPoint: "Anchor-7" 813.307 -235.625 basechar 0
LayerCount: 2
Fore
SplineSet
327.9609375 152.853515625 m 1,0,1
 250 0 250 0 35.2578125 0 c 2,2,-1
 -15.783203125 0 l 1,3,-1
 -15.783203125 183.990234375 l 1,4,-1
 14.6328125 183.990234375 l 2,5,6
 204.744082963 183.999986872 204.744082963 183.999986872 283.194335938 407.009765625 c 2,7,-1
 327.028320312 531.616210938 l 1,8,-1
 458.708007812 531.616210938 l 1,9,-1
 431.364257812 408.203125 l 2,10,11
 376 159 376 159 611.592773438 176.780273438 c 0,12,13
 762.934205978 187.995124467 762.934205978 187.995124467 821.576171875 325.551757812 c 2,14,-1
 905.629882812 522.716796875 l 1,15,-1
 1020.92578125 522.716796875 l 1,16,-1
 991.225585938 351.220703125 l 2,17,18
 959 167 959 167 1148.82324219 172.4921875 c 24,19,20
 1313.4518099 177.012405376 1313.4518099 177.012405376 1361 376 c 2,21,-1
 1410.34375 582.501953125 l 1,22,-1
 1526.11914062 583.47265625 l 1,23,-1
 1515 415 l 2,24,25
 1499.9994268 184.991210938 1499.9994268 184.991210938 1748.86328125 184.991210938 c 2,26,-1
 1804.92480469 184.991210938 l 1,27,-1
 1804.92480469 0 l 1,28,-1
 1699.03417969 0 l 2,29,30
 1507 0 1507 0 1432.13671875 159.38671875 c 1,31,32
 1321 0 1321 0 1157.5078125 -0.009765625 c 0,33,34
 917 0 917 0 865.833984375 165.1015625 c 1,35,36
 814 0 814 0 560.82421875 -0.001953125 c 24,37,38
 362.188029078 -1.84708039797e-06 362.188029078 -1.84708039797e-06 329.176757812 147.423828125 c 2,39,-1
 327.9609375 152.853515625 l 1,0,1
EndSplineSet
EndChar

StartChar: uniFEBA
Encoding: 65210 65210 197
Width: 2748
VWidth: 2424
GlyphClass: 2
Flags: W
AnchorPoint: "Anchor-10" 695.65 1089.92 basechar 0
AnchorPoint: "Anchor-7" 406.688 -687.269 basechar 0
LayerCount: 2
Fore
SplineSet
1609.22851562 196.259765625 m 1,0,-1
 1812.31054688 196.259765625 l 2,1,2
 2294.06445312 196.259765625 2294.06445312 196.259765625 2336.13964844 391.783203125 c 0,3,4
 2347.43359375 458.375976562 2347.43359375 458.375976562 2312.53808594 522.135742188 c 128,-1,5
 2277.64257812 585.895507812 2277.64257812 585.895507812 2184.50488281 590.727539062 c 0,6,7
 2080.9988558 596.563934637 2080.9988558 596.563934637 1948.22753906 512.184570312 c 24,8,9
 1776 403 1776 403 1609.22851562 196.259765625 c 1,0,-1
2381.98828125 146.227539062 m 1,10,11
 2206 0 2206 0 1876.59082031 0 c 2,12,-1
 1539.94824219 0 l 2,13,14
 1441 0 1441 0 1387.59082031 69.794921875 c 1,15,-1
 1365.32324219 70.1328125 l 1,16,17
 1349 -181 1349 -181 1230.65039062 -328.78125 c 0,18,19
 1085 -510 1085 -510 752.119140625 -522.875976562 c 0,20,21
 464 -534 464 -534 305.78515625 -430.848632812 c 0,22,23
 90 -290 90 -290 100.877929688 -20.9775390625 c 0,24,25
 115 329 115 329 393.3203125 611.102539062 c 1,26,-1
 510.438476562 523.780273438 l 1,27,28
 126 30 126 30 343.479492188 -232.975585938 c 0,29,30
 447 -359 447 -359 758 -356.456054688 c 0,31,32
 1197 -353 1197 -353 1217.25097656 41.8154296875 c 0,33,34
 1232 335 1232 335 1199.82421875 454.731445312 c 1,35,-1
 1364.48339844 539.231445312 l 1,36,37
 1360 328 1360 328 1374.640625 271.177734375 c 1,38,39
 1389 242 1389 242 1457.32714844 250.709960938 c 1,40,41
 1687 586 1687 586 1980.45117188 716.694335938 c 0,42,43
 2202 816 2202 816 2357.71777344 722.65234375 c 0,44,45
 2544 611 2544 611 2508.84472656 364.274414062 c 0,46,47
 2504 330 2504 330 2492.47949219 297.302734375 c 1,48,49
 2583.09596475 183.879882812 2583.09596475 183.879882812 2725.12792969 183.879882812 c 2,50,-1
 2771.28808594 183.879882812 l 1,51,-1
 2771.28808594 0 l 1,52,-1
 2701.3203125 0 l 2,53,54
 2451 0 2451 0 2381.98828125 146.227539062 c 1,10,11
EndSplineSet
EndChar

StartChar: uniFEBB
Encoding: 65211 65211 198
Width: 1758
VWidth: 2424
GlyphClass: 2
Flags: W
AnchorPoint: "Anchor-10" 606.983 1188.15 basechar 0
AnchorPoint: "Anchor-7" 739.371 -283.463 basechar 0
LayerCount: 2
Fore
SplineSet
764.4453125 196.259765625 m 1,0,-1
 967.521484375 196.259765625 l 2,1,2
 1458.19238281 196.259765625 1458.19238281 196.259765625 1491.37988281 391.950195312 c 1,3,4
 1500.41894531 462.44140625 1500.41894531 462.44140625 1475.10742188 508.697265625 c 128,-1,5
 1449.79492188 554.954101562 1449.79492188 554.954101562 1417.37792969 571.666015625 c 0,6,7
 1297.45184095 633.918155401 1297.45184095 633.918155401 1103.44726562 512.184570312 c 28,8,9
 934 406 934 406 764.4453125 196.259765625 c 1,0,-1
382.083984375 175.340820312 m 1,10,11
 252 0 252 0 64.8515625 0 c 2,12,-1
 -23.6953125 0 l 1,13,-1
 -23.6953125 183.990234375 l 1,14,-1
 -0.6201171875 183.990234375 l 2,15,16
 128 184 128 184 189.584960938 232.487304688 c 0,17,18
 224.539364943 259.642148863 224.539364943 259.642148863 299.434570312 425.8984375 c 2,19,-1
 343.844726562 524.482421875 l 1,20,-1
 502.842773438 524.482421875 l 1,21,-1
 471.797851562 403.658203125 l 2,22,23
 440 279 440 279 612.327148438 250.3984375 c 1,24,25
 844.731176888 589.150563355 844.731176888 589.150563355 1135.67382812 719.693359375 c 0,26,27
 1357 819 1357 819 1512.94140625 725.651367188 c 0,28,29
 1698 615 1698 615 1664.05664062 364.275390625 c 0,30,31
 1645 220 1645 220 1501.92382812 119.1640625 c 0,32,33
 1334 0 1334 0 1031.80566406 0 c 2,34,-1
 695.16796875 0 l 2,35,36
 489 0 489 0 382.083984375 175.340820312 c 1,10,11
EndSplineSet
EndChar

StartChar: uniFEBC
Encoding: 65212 65212 199
Width: 1900
VWidth: 2424
GlyphClass: 2
Flags: W
AnchorPoint: "Anchor-10" 642.807 1260.13 basechar 0
AnchorPoint: "Anchor-7" 738.481 -291.25 basechar 0
LayerCount: 2
Fore
SplineSet
764.4453125 196.259765625 m 1,0,-1
 967.521484375 196.259765625 l 2,1,2
 1458.19238281 196.259765625 1458.19238281 196.259765625 1491.37988281 391.950195312 c 1,3,4
 1500.41894531 462.44140625 1500.41894531 462.44140625 1475.10742188 508.697265625 c 128,-1,5
 1449.79492188 554.954101562 1449.79492188 554.954101562 1417.37792969 571.666015625 c 0,6,7
 1297.45184095 633.918155401 1297.45184095 633.918155401 1103.44726562 512.184570312 c 28,8,9
 934 406 934 406 764.4453125 196.259765625 c 1,0,-1
1535.52539062 144.828125 m 1,10,11
 1359 0 1359 0 1031.80566406 0 c 2,12,-1
 695.16796875 0 l 2,13,14
 489 0 489 0 382.083984375 175.340820312 c 1,15,16
 252 0 252 0 64.8515625 0 c 2,17,-1
 -23.6953125 0 l 1,18,-1
 -23.6953125 183.990234375 l 1,19,-1
 -0.6201171875 183.990234375 l 2,20,21
 128 184 128 184 189.584960938 232.487304688 c 0,22,23
 224.539364943 259.642148863 224.539364943 259.642148863 299.434570312 425.8984375 c 2,24,-1
 343.844726562 524.482421875 l 1,25,-1
 502.842773438 524.482421875 l 1,26,-1
 471.797851562 403.658203125 l 2,27,28
 440 279 440 279 612.327148438 250.3984375 c 1,29,30
 843 587 843 587 1135.67382812 717.693359375 c 0,31,32
 1357 817 1357 817 1512.94140625 723.651367188 c 0,33,34
 1694 616 1694 616 1664.05664062 364.274414062 c 0,35,36
 1660 330 1660 330 1647.72558594 297.396484375 c 1,37,38
 1737.65326316 184.435546875 1737.65326316 184.435546875 1878.8046875 184.435546875 c 2,39,-1
 1924.96484375 184.435546875 l 1,40,-1
 1924.96484375 0.556640625 l 1,41,-1
 1854.99707031 0.556640625 l 2,42,43
 1603 1 1603 1 1535.52539062 144.828125 c 1,10,11
EndSplineSet
EndChar

StartChar: uniFEC2
Encoding: 65218 65218 205
Width: 1699
VWidth: 2424
GlyphClass: 2
Flags: W
AnchorPoint: "Anchor-7" 560.132 -248.312 basechar 0
AnchorPoint: "Anchor-10" 350.408 1515.22 basechar 0
LayerCount: 2
Fore
SplineSet
590.6015625 196.259765625 m 1,0,-1
 793.677734375 196.259765625 l 2,1,2
 1284.35351562 196.259765625 1284.35351562 196.259765625 1317.54101562 391.950195312 c 1,3,4
 1326.57910156 462.44140625 1326.57910156 462.44140625 1292.796875 524.16796875 c 128,-1,5
 1259.01464844 585.893554688 1259.01464844 585.893554688 1165.87988281 590.7265625 c 0,6,7
 1062.43362967 596.599926398 1062.43362967 596.599926398 929.604492188 512.184570312 c 24,8,9
 758 403 758 403 590.6015625 196.259765625 c 1,0,-1
1347.39746094 133.381835938 m 1,10,11
 1173 0 1173 0 857.961914062 0 c 2,12,-1
 101.072265625 0 l 1,13,-1
 101.072265625 183.989257812 l 1,14,-1
 286.076171875 183.990234375 l 1,15,16
 244 338 244 338 242.528320312 739.28515625 c 0,17,18
 241 1140 241 1140 273.981445312 1297.61328125 c 1,19,-1
 422.51953125 1296.52929688 l 1,20,21
 391 1033 391 1033 390.505859375 741.623046875 c 0,22,23
 390 367 390 367 417 206 c 1,24,25
 689 596 689 596 960.827148438 717.694335938 c 0,26,27
 1182 817 1182 817 1338.09082031 723.65234375 c 0,28,29
 1521 614 1521 614 1490.21777344 364.275390625 c 0,30,31
 1485 322 1485 322 1467.95800781 282.383789062 c 1,32,33
 1545.65450664 184.435546875 1545.65450664 184.435546875 1686.34277344 184.435546875 c 2,34,-1
 1719.15234375 184.435546875 l 1,35,-1
 1719.15234375 0.556640625 l 1,36,-1
 1662.53515625 0.556640625 l 2,37,38
 1410 1 1410 1 1347.39746094 133.381835938 c 1,10,11
EndSplineSet
EndChar

StartChar: uniFEC3
Encoding: 65219 65219 206
Width: 1605
VWidth: 2424
GlyphClass: 2
Flags: W
AnchorPoint: "Anchor-10" 296.472 1497.08 basechar 0
AnchorPoint: "Anchor-7" 509.935 -246.775 basechar 0
LayerCount: 2
Fore
SplineSet
533.864257812 196.259765625 m 1,0,-1
 736.940429688 196.259765625 l 2,1,2
 1227.61523438 196.259765625 1227.61523438 196.259765625 1260.80273438 391.950195312 c 1,3,4
 1269.84179688 462.44140625 1269.84179688 462.44140625 1236.05957031 524.16796875 c 128,-1,5
 1202.27734375 585.893554688 1202.27734375 585.893554688 1109.14453125 590.7265625 c 0,6,7
 1005.67320245 596.58465828 1005.67320245 596.58465828 872.8671875 512.184570312 c 24,8,9
 701 403 701 403 533.864257812 196.259765625 c 1,0,-1
801.223632812 0 m 2,10,-1
 -30.203125 0 l 1,11,-1
 -30.203125 183.989257812 l 1,12,-1
 222.337890625 183.990234375 l 1,13,14
 181 338 181 338 178.791015625 739.284179688 c 0,15,16
 177 1140 177 1140 210.244140625 1297.61328125 c 1,17,-1
 358.802734375 1296.52929688 l 1,18,19
 286 646 286 646 360 204 c 1,20,21
 641 599 641 599 905.08984375 717.694335938 c 0,22,23
 1125 816 1125 816 1282.36425781 723.645507812 c 0,24,25
 1468 614 1468 614 1433.48046875 364.275390625 c 0,26,27
 1414 220 1414 220 1271.34765625 119.1640625 c 0,28,29
 1103 0 1103 0 801.223632812 0 c 2,10,-1
EndSplineSet
EndChar

StartChar: uniFEC4
Encoding: 65220 65220 207
Width: 1642
VWidth: 2424
GlyphClass: 2
Flags: W
AnchorPoint: "Anchor-10" 319.146 1481.49 basechar 0
AnchorPoint: "Anchor-7" 438.35 -251.625 basechar 0
LayerCount: 2
Fore
SplineSet
533.864257812 196.259765625 m 1,0,-1
 736.940429688 196.259765625 l 2,1,2
 1227.61523438 196.259765625 1227.61523438 196.259765625 1260.80273438 391.950195312 c 1,3,4
 1269.84179688 462.44140625 1269.84179688 462.44140625 1236.05957031 524.16796875 c 128,-1,5
 1202.27734375 585.893554688 1202.27734375 585.893554688 1109.14453125 590.7265625 c 0,6,7
 1005.67320245 596.58465828 1005.67320245 596.58465828 872.8671875 512.184570312 c 24,8,9
 701 403 701 403 533.864257812 196.259765625 c 1,0,-1
1290.66015625 133.381835938 m 1,10,11
 1116 0 1116 0 801.223632812 0 c 2,12,-1
 -30.203125 0 l 1,13,-1
 -30.203125 183.989257812 l 1,14,-1
 226.34765625 183.990234375 l 1,15,16
 184 338 184 338 182.276367188 681.58984375 c 0,17,18
 181 1025 181 1025 214.390625 1296.5 c 1,19,-1
 365.0234375 1295.40039062 l 1,20,21
 340 1145 340 1145 332 818.916992188 c 0,22,23
 321 353 321 353 356 203 c 1,24,25
 634 601 634 601 899.08984375 716.694335938 c 0,26,27
 1128 816 1128 816 1282.35351562 723.65234375 c 0,28,29
 1466 614 1466 614 1433.48046875 364.275390625 c 0,30,31
 1428 322 1428 322 1411.22070312 282.383789062 c 1,32,33
 1488.6556696 184.435546875 1488.6556696 184.435546875 1629.60449219 184.435546875 c 2,34,-1
 1662.41503906 184.435546875 l 1,35,-1
 1662.41503906 0.556640625 l 1,36,-1
 1605.79785156 0.556640625 l 2,37,38
 1353 1 1353 1 1290.66015625 133.381835938 c 1,10,11
EndSplineSet
EndChar

StartChar: uniFECA
Encoding: 65226 65226 213
Width: 1321
VWidth: 2424
GlyphClass: 2
Flags: W
AnchorPoint: "Anchor-10" 538.787 1258.52 basechar 0
AnchorPoint: "Anchor-7" 356.255 -785.774 basechar 0
LayerCount: 2
Fore
SplineSet
733.3671875 813.821289062 m 0,0,1
 694.762695312 818.013671875 694.762695312 818.013671875 653.96484375 818.013671875 c 0,2,3
 457.143554688 818.013671875 457.143554688 818.013671875 412.885742188 775.2421875 c 0,4,5
 389.336914062 752.485351562 389.336914062 752.485351562 396.814453125 714.646484375 c 128,-1,6
 404.291992188 676.80859375 404.291992188 676.80859375 509.606445312 596.708984375 c 128,-1,7
 614.920898438 516.609375 614.920898438 516.609375 632.008789062 525.368164062 c 0,8,9
 682.330078125 551.161132812 682.330078125 551.161132812 728.704101562 584.44921875 c 0,10,11
 840.16015625 664.463867188 840.16015625 664.463867188 840.16015625 718.120117188 c 0,12,13
 840.16015625 802.22265625 840.16015625 802.22265625 733.3671875 813.821289062 c 0,0,1
751.827148438 438.177734375 m 1,14,15
 1033.51648202 184.435546875 1033.51648202 184.435546875 1286.83105469 184.435546875 c 2,16,-1
 1336.67871094 184.435546875 l 1,17,-1
 1336.67871094 0.556640625 l 1,18,-1
 1312.87695312 0.556640625 l 2,19,20
 953 1 953 1 624.883789062 335.266601562 c 1,21,22
 267 171 267 171 255.326171875 -157.159179688 c 0,23,24
 249 -332 249 -332 395.461914062 -434.78515625 c 0,25,26
 538 -536 538 -536 802.623046875 -512.994140625 c 0,27,28
 1006 -496 1006 -496 1165.44335938 -419.453125 c 1,29,-1
 1201 -586 l 1,30,31
 1090 -644 1090 -644 945.061523438 -665.88671875 c 0,32,33
 772 -692 772 -692 642.424804688 -680.21875 c 0,34,35
 331 -653 331 -653 194.356445312 -482.930664062 c 0,36,37
 83 -345 83 -345 100.670898438 -111.208984375 c 0,38,39
 122 178 122 178 502.353515625 440.796875 c 1,40,41
 408 492 408 492 315.211914062 580.7890625 c 0,42,43
 157 733 157 733 264.325195312 850.12890625 c 0,44,45
 298 887 298 887 368.912109375 922.4296875 c 0,46,47
 508 991 508 991 719.354492188 970.7421875 c 0,48,49
 918 952 918 952 976.893554688 838.657226562 c 0,50,51
 1010 774 1010 774 991.223632812 711.1171875 c 0,52,53
 948 572 948 572 751.827148438 438.177734375 c 1,14,15
EndSplineSet
EndChar

StartChar: uniFECB
Encoding: 65227 65227 214
Width: 1206
VWidth: 2424
GlyphClass: 2
Flags: W
AnchorPoint: "Anchor-10" 480.257 1255.06 basechar 0
AnchorPoint: "Anchor-7" 491.692 -239.119 basechar 0
LayerCount: 2
Fore
SplineSet
19.6171875 183.990234375 m 2,0,1
 244.94140625 183.461914062 l 1,2,3
 166.962890625 263.29296875 166.962890625 263.29296875 175.491210938 376.4921875 c 0,4,5
 193.438476562 591.577148438 193.438476562 591.577148438 365.256835938 769.619140625 c 0,6,7
 644.30078125 1058.72070312 644.30078125 1058.72070312 875.817382812 835.009765625 c 0,8,9
 963.08203125 750.259765625 963.08203125 750.259765625 968.053710938 555.64453125 c 1,10,-1
 854.982421875 558.874023438 l 1,11,12
 812.208984375 803.624023438 812.208984375 803.624023438 648.166992188 768.026367188 c 0,13,14
 457.6328125 726.682617188 457.6328125 726.682617188 368.559570312 510.916015625 c 0,15,16
 258.189453125 241.471679688 258.189453125 241.471679688 537.036132812 198.498046875 c 0,17,18
 685.020507812 175.692382812 685.020507812 175.692382812 909.592773438 264.029296875 c 0,19,20
 1011.33886719 304.052734375 1011.33886719 304.052734375 1063.66113281 338.044921875 c 1,21,-1
 1115.6875 197.141601562 l 1,22,23
 865.35546875 0 865.35546875 0 91.005859375 0 c 2,24,-1
 -21.470703125 0 l 1,25,-1
 -21.470703125 183.990234375 l 1,26,-1
 19.6171875 183.990234375 l 2,0,1
EndSplineSet
EndChar

StartChar: uniFECC
Encoding: 65228 65228 215
Width: 1217
VWidth: 2424
GlyphClass: 2
Flags: W
AnchorPoint: "Anchor-10" 540.545 1186.71 basechar 0
AnchorPoint: "Anchor-7" 500.596 -237.057 basechar 0
LayerCount: 2
Fore
SplineSet
711.31640625 663.044921875 m 0,0,1
 672.711914062 667.237304688 672.711914062 667.237304688 621.594726562 667.237304688 c 0,2,3
 435.091796875 667.237304688 435.091796875 667.237304688 390.833984375 624.465820312 c 0,4,5
 330.228515625 565.8984375 330.228515625 565.8984375 461.547851562 465.866210938 c 0,6,7
 592.868164062 365.833007812 592.868164062 365.833007812 608.78125 373.650390625 c 0,8,9
 700.1484375 422.17578125 700.1484375 422.17578125 759.12890625 475.9453125 c 128,-1,10
 818.108398438 529.715820312 818.108398438 529.715820312 818.108398438 567.34375 c 0,11,12
 818.108398438 651.447265625 818.108398438 651.447265625 711.31640625 663.044921875 c 0,0,1
604.513671875 183.561523438 m 1,13,14
 412.056640625 -0 412.056640625 -0 131.45703125 0 c 2,15,-1
 -20.3583984375 0 l 1,16,-1
 -20.3583984375 183.990234375 l 1,17,-1
 105.268554688 183.990234375 l 2,18,19
 355.497070312 183.990234375 355.497070312 183.990234375 480.002929688 290.184570312 c 1,20,21
 385.603515625 341.341796875 385.603515625 341.341796875 293.1875 429.987304688 c 128,-1,22
 200.771484375 518.6328125 200.771484375 518.6328125 207.700195312 607.814453125 c 128,-1,23
 214.62890625 696.995117188 214.62890625 696.995117188 357.19140625 767.654296875 c 0,24,25
 499.752929688 838.3125 499.752929688 838.3125 697.302734375 819.96484375 c 128,-1,26
 894.8515625 801.6171875 894.8515625 801.6171875 954.842773438 687.879882812 c 0,27,28
 988.26953125 623.119140625 988.26953125 623.119140625 969.172851562 560.33984375 c 0,29,30
 925.991210938 421.1953125 925.991210938 421.1953125 729.354492188 287.114257812 c 1,31,32
 894.869140625 183.36328125 894.869140625 183.36328125 1100.45214844 183.990234375 c 2,33,-1
 1236.06054688 184.403320312 l 1,34,-1
 1236.06054688 0.556640625 l 1,35,-1
 1074.23339844 0.556640625 l 2,36,37
 796.38671875 0.556640625 796.38671875 0.556640625 604.513671875 183.561523438 c 1,13,14
EndSplineSet
EndChar

StartChar: uniFEDA
Encoding: 65242 65242 229
Width: 2044
VWidth: 2424
GlyphClass: 2
Flags: W
AnchorPoint: "Anchor-10" 636.638 1379.34 basechar 0
AnchorPoint: "Anchor-7" 467.125 -236.206 basechar 0
LayerCount: 2
Fore
SplineSet
1157.30664062 1190.79589844 m 1,0,-1
 1157.30664062 1137.00292969 l 1,1,2
 1080.65722656 1131.15527344 1080.65722656 1131.15527344 1038.28125 1115.53710938 c 0,3,4
 928.754882812 1074.4765625 928.754882812 1074.4765625 928.754882812 1019.92480469 c 0,5,6
 928.754882812 979.033203125 928.754882812 979.033203125 949.15234375 952.341796875 c 128,-1,7
 969.549804688 925.649414062 969.549804688 925.649414062 1041.68554688 915.041015625 c 128,-1,8
 1113.82128906 904.432617188 1113.82128906 904.432617188 1140.7265625 879.857421875 c 128,-1,9
 1167.63085938 855.283203125 1167.63085938 855.283203125 1167.63085938 811.606445312 c 0,10,11
 1167.63085938 705.86328125 1167.63085938 705.86328125 1060.68164062 645.381835938 c 128,-1,12
 953.731445312 584.901367188 953.731445312 584.901367188 765.676757812 615.7421875 c 1,13,-1
 765.676757812 676.793945312 l 1,14,15
 831.955078125 668.163085938 831.955078125 668.163085938 896.861328125 668.163085938 c 128,-1,16
 961.768554688 668.163085938 961.768554688 668.163085938 1015.76367188 689.419921875 c 0,17,18
 1110.88769531 725.954101562 1110.88769531 725.954101562 1110.88769531 787.798828125 c 0,19,20
 1110.88769531 856.846679688 1110.88769531 856.846679688 1000.24707031 874.875 c 0,21,22
 868.98828125 894.875976562 868.98828125 894.875976562 871.614257812 1015.81347656 c 0,23,24
 873.673828125 1099.06933594 873.673828125 1099.06933594 956.518554688 1141.015625 c 128,-1,25
 1039.36328125 1182.96191406 1039.36328125 1182.96191406 1157.30664062 1190.79589844 c 1,0,-1
1780.93457031 278.706054688 m 1,26,27
 1850.67777373 184.435546875 1850.67777373 184.435546875 1995.01660156 184.435546875 c 2,28,-1
 2064.49511719 184.435546875 l 1,29,-1
 2064.49511719 0.556640625 l 1,30,-1
 1929.54589844 0.556640625 l 2,31,32
 1785 1 1785 1 1655.21972656 137.56640625 c 1,33,34
 1579 85 1579 85 1449.51171875 44.4912109375 c 128,-1,35
 1320 4 1320 4 948.35546875 2.1103515625 c 0,36,37
 577 -0 577 -0 373.662109375 89.720703125 c 0,38,39
 120 203 120 203 103.926757812 465.259765625 c 0,40,41
 91 687 91 687 243.19140625 884.463867188 c 1,42,-1
 367 817 l 1,43,44
 253 664 253 664 260.131835938 485.079101562 c 0,45,46
 270 254 270 254 621.674804688 200.03125 c 0,47,48
 707 187 707 187 894.856445312 186.256835938 c 1,49,50
 1653.12022169 158.99567778 1653.12022169 158.99567778 1680.65527344 421.709960938 c 2,51,-1
 1687.09667969 483.16796875 l 1,52,53
 1692 505 1692 505 1693.87695312 692.913085938 c 0,54,55
 1696 1000 1696 1000 1656.17089844 1289.58984375 c 1,56,-1
 1806.81933594 1292.02832031 l 1,57,58
 1842 1143 1842 1143 1844.34277344 723.26171875 c 0,59,60
 1845 577 1845 577 1817.30859375 394.349609375 c 0,61,62
 1808 332 1808 332 1780.93457031 278.706054688 c 1,26,27
EndSplineSet
EndChar

StartChar: uniFEDB
Encoding: 65243 65243 230
Width: 901
VWidth: 2424
GlyphClass: 2
Flags: W
AnchorPoint: "Anchor-10" 189.331 1459.66 basechar 0
AnchorPoint: "Anchor-7" 267.05 -269.875 basechar 0
LayerCount: 2
Fore
SplineSet
29 0 m 2,0,1
 -23.6953125 0 l 1,2,-1
 -23.6953125 183.990234375 l 1,3,-1
 55.2001953125 184.016601562 l 2,4,5
 221 184 221 184 288 215 c 24,6,7
 426 278 426 278 431.174804688 403.655273438 c 0,8,9
 438 571 438 571 306 701.5 c 0,10,11
 219 788 219 788 128.139648438 845.51953125 c 0,12,13
 22 914 22 914 11.4482421875 970.216796875 c 0,14,15
 -10 1078 -10 1078 115.431640625 1162.828125 c 0,16,17
 437 1380 437 1380 840.026367188 1460.83203125 c 1,18,-1
 840.026367188 1306.54589844 l 1,19,20
 494 1244 494 1244 157.244140625 1015.77050781 c 1,21,22
 409 898 409 898 539 642 c 0,23,24
 618 487 618 487 576.852539062 310.80859375 c 0,25,26
 527 100 527 100 292 27 c 0,27,28
 205 0 205 0 29 0 c 2,0,1
EndSplineSet
EndChar

StartChar: uniFEDC
Encoding: 65244 65244 231
Width: 889
VWidth: 2424
GlyphClass: 2
Flags: W
AnchorPoint: "Anchor-10" 208.626 1420.78 basechar 0
AnchorPoint: "Anchor-7" 303.83 -216.154 basechar 0
LayerCount: 2
Fore
SplineSet
518 203 m 1,0,1
 473 84 473 84 292 27 c 0,2,3
 205 0 205 0 29 0 c 2,4,-1
 -23.6953125 0 l 1,5,-1
 -23.6953125 183.990234375 l 1,6,-1
 55.2001953125 184.016601562 l 2,7,8
 221 184 221 184 288 215 c 24,9,10
 424 278 424 278 429.174804688 396.655273438 c 0,11,12
 437 575 437 575 307 703 c 0,13,14
 223 786 223 786 129.139648438 845.51953125 c 0,15,16
 16 918 16 918 11.4482421875 970.216796875 c 0,17,18
 0 1085 0 1085 115.431640625 1162.828125 c 0,19,20
 437 1380 437 1380 840.026367188 1460.83203125 c 1,21,-1
 840.026367188 1306.54589844 l 1,22,23
 494 1244 494 1244 157.244140625 1015.77050781 c 1,24,25
 413 898 413 898 539 642 c 0,26,27
 602 514 602 514 588.071289062 393 c 1,28,29
 688.057898289 183.87890625 688.057898289 183.87890625 838.259765625 183.87890625 c 2,30,-1
 904 183.87890625 l 1,31,-1
 904 0 l 1,32,-1
 854 0 l 2,33,34
 619 0 619 0 518 203 c 1,0,1
EndSplineSet
EndChar

StartChar: uniFEDE
Encoding: 65246 65246 233
Width: 1579
VWidth: 2429
GlyphClass: 2
Flags: W
AnchorPoint: "Anchor-10" 618.331 1057.66 basechar 0
AnchorPoint: "Anchor-7" 347.384 -635.764 basechar 0
LayerCount: 2
Fore
SplineSet
1311.42382812 1294.73242188 m 1,0,1
 1368 931 1368 931 1335.64941406 441.741210938 c 1,2,-1
 1335.64550781 441.610351562 l 1,3,4
 1336 294 1336 294 1399.4609375 230.24609375 c 0,5,6
 1444.57111196 184.435546875 1444.57111196 184.435546875 1519.03808594 184.435546875 c 2,7,-1
 1592.17871094 184.435546875 l 1,8,-1
 1592.17871094 0.556640625 l 1,9,-1
 1561.78027344 0.556640625 l 2,10,11
 1384 1 1384 1 1305.89257812 109.614257812 c 1,12,13
 1306 83 1306 83 1291.69824219 -1.6533203125 c 0,14,15
 1252 -236 1252 -236 1142.546875 -349.4296875 c 0,16,17
 974 -524 974 -524 719 -529 c 128,-1,18
 464 -534 464 -534 305.78515625 -430.848632812 c 0,19,20
 90 -290 90 -290 100.877929688 -20.9775390625 c 0,21,22
 115 329 115 329 393.3203125 611.102539062 c 1,23,-1
 510.438476562 523.780273438 l 1,24,25
 126 30 126 30 343.479492188 -232.975585938 c 0,26,27
 447 -359 447 -359 755.5 -356.5 c 128,-1,28
 1064 -354 1064 -354 1154.31835938 -2.49609375 c 0,29,30
 1203 187 1203 187 1195.30273438 633.84375 c 0,31,32
 1188 1045 1188 1045 1164.03515625 1294.73242188 c 1,33,-1
 1311.42382812 1294.73242188 l 1,0,1
EndSplineSet
EndChar

StartChar: uniFEDF
Encoding: 65247 65247 234
Width: 549
VWidth: 2424
GlyphClass: 2
Flags: W
AnchorPoint: "Anchor-10" 296.624 1475.26 basechar 0
AnchorPoint: "Anchor-7" 185.824 -218.381 basechar 0
LayerCount: 2
Fore
SplineSet
374.385742188 1296.59765625 m 1,0,1
 419.845703125 1034.71289062 419.845703125 1034.71289062 415.77734375 639.834960938 c 128,-1,2
 411.708984375 244.95703125 411.708984375 244.95703125 312.612304688 122.478515625 c 128,-1,3
 213.515625 0 213.515625 0 60.1103515625 0 c 2,4,-1
 -23.6953125 0 l 1,5,-1
 -23.6953125 183.990234375 l 1,6,-1
 49.1201171875 183.990234375 l 2,7,8
 122.14453125 183.990234375 122.14453125 183.990234375 172.829101562 218.611328125 c 0,9,10
 268.549804688 283.612304688 268.549804688 283.612304688 257.141601562 690.908203125 c 0,11,12
 243.326171875 1186.8046875 243.326171875 1186.8046875 227.088867188 1293.34863281 c 1,13,-1
 374.385742188 1296.59765625 l 1,0,1
EndSplineSet
EndChar

StartChar: uniFEE0
Encoding: 65248 65248 235
Width: 593
VWidth: 2424
GlyphClass: 2
Flags: W
AnchorPoint: "Anchor-10" 274.925 1452.21 basechar 0
AnchorPoint: "Anchor-7" 180.324 -238.006 basechar 0
LayerCount: 2
Fore
SplineSet
189.819335938 285.2109375 m 0,0,1
 224.537109375 351.263671875 224.537109375 351.263671875 224.537109375 729.982421875 c 128,-1,2
 224.537109375 1108.70019531 224.537109375 1108.70019531 194.845703125 1291.82324219 c 1,3,-1
 347.641601562 1295.07324219 l 1,4,5
 386.762695312 1029.36914062 386.762695312 1029.36914062 382.40625 752.21875 c 128,-1,6
 378.05078125 475.069335938 378.05078125 475.069335938 344.209960938 281.7265625 c 0,7,8
 327.526367188 183.990234375 327.526367188 183.990234375 570.616210938 183.990234375 c 2,9,-1
 614.506835938 183.990234375 l 1,10,-1
 614.506835938 0 l 1,11,-1
 505.145507812 0 l 2,12,13
 344.9765625 0 344.9765625 0 263.708984375 88.4462890625 c 2,14,-1
 247.278320312 106.327148438 l 1,15,-1
 231.079101562 88.236328125 l 2,16,17
 152.071289062 0 152.071289062 0 18.916015625 0 c 2,18,-1
 -30.3701171875 0 l 1,19,-1
 -30.3701171875 183.990234375 l 1,20,-1
 3.5078125 183.990234375 l 2,21,22
 136.622070312 183.990234375 136.622070312 183.990234375 189.819335938 285.2109375 c 0,0,1
EndSplineSet
EndChar

StartChar: uniFEE2
Encoding: 65250 65250 237
Width: 1501
VWidth: 2424
GlyphClass: 2
Flags: W
AnchorPoint: "Anchor-10" 844.544 1025.49 basechar 0
AnchorPoint: "Anchor-7" 294.571 -497.444 basechar 0
LayerCount: 2
Fore
SplineSet
782.380859375 300.479492188 m 1,0,1
 830.770507812 252.905273438 830.770507812 252.905273438 945.442382812 209.686523438 c 128,-1,2
 1060.11425781 166.466796875 1060.11425781 166.466796875 1123.97460938 196.54296875 c 128,-1,3
 1187.8359375 226.618164062 1187.8359375 226.618164062 1199.98535156 306.430664062 c 0,4,5
 1238.83984375 546.400390625 1238.83984375 546.400390625 1077.62988281 556.055664062 c 0,6,7
 987.6640625 560.8828125 987.6640625 560.8828125 916.498046875 488.33984375 c 0,8,9
 821.165039062 388.768554688 821.165039062 388.768554688 782.380859375 300.479492188 c 1,0,1
1501.09960938 0 m 2,10,11
 1363.23144531 0 1363.23144531 0 1293.7109375 105.99609375 c 1,12,13
 1240.44042969 38.318359375 1240.44042969 38.318359375 1131.87109375 22.08203125 c 0,14,15
 894.645507812 -12.8017578125 894.645507812 -12.8017578125 673.317382812 187.680664062 c 1,16,17
 568.276367188 -8.6455078125 568.276367188 -8.6455078125 452.939453125 -123.459960938 c 128,-1,18
 337.602539062 -238.275390625 337.602539062 -238.275390625 112.37890625 -320.711914062 c 1,19,-1
 58.51953125 -161.377929688 l 1,20,21
 239.975585938 -106.249023438 239.975585938 -106.249023438 374.407226562 36.248046875 c 128,-1,22
 508.838867188 178.74609375 508.838867188 178.74609375 708.19921875 484.166992188 c 1,23,24
 900.690429688 757.750976562 900.690429688 757.750976562 1107.390625 729.740234375 c 0,25,26
 1365.09472656 694.092773438 1365.09472656 694.092773438 1359.33691406 322.7265625 c 0,27,28
 1358.74804688 282.056640625 1358.74804688 282.056640625 1350.09570312 240.993164062 c 1,29,30
 1388.53027344 183.139648438 1388.53027344 183.139648438 1477.1640625 182.903320312 c 2,31,-1
 1519.05859375 182.791015625 l 1,32,-1
 1519.05859375 0 l 1,33,-1
 1501.09960938 0 l 2,10,11
EndSplineSet
EndChar

StartChar: uniFEE3
Encoding: 65251 65251 238
Width: 1033
VWidth: 2424
GlyphClass: 2
Flags: W
AnchorPoint: "Anchor-10" 471.518 1008.68 basechar 0
AnchorPoint: "Anchor-7" 362.468 -242.344 basechar 0
LayerCount: 2
Fore
SplineSet
247.98828125 131.153320312 m 1,0,1
 170.857421875 -0 170.857421875 -0 37.0283203125 0 c 2,2,-1
 -23.6953125 0 l 1,3,-1
 -23.6953125 183.989257812 l 1,4,-1
 24.767578125 183.989257812 l 2,5,6
 108.2890625 183.989257812 108.2890625 183.989257812 157.880859375 245.690429688 c 0,7,8
 189.135742188 284.5703125 189.135742188 284.5703125 282.809570312 427.734375 c 0,9,10
 463.48046875 702.893554688 463.48046875 702.893554688 681.984375 673.283203125 c 0,11,12
 938.576171875 637.63671875 938.576171875 637.63671875 932.817382812 266.26953125 c 0,13,14
 931.434570312 172.995117188 931.434570312 172.995117188 887.250976562 79.525390625 c 0,15,16
 843.067382812 -13.9453125 843.067382812 -13.9453125 706.46875 -34.375 c 0,17,18
 469.288085938 -69.251953125 469.288085938 -69.251953125 247.98828125 131.153320312 c 1,0,1
356.9765625 244.022460938 m 1,19,20
 405.370117188 196.4453125 405.370117188 196.4453125 520.0390625 153.227539062 c 0,21,22
 715.270507812 79.6474609375 715.270507812 79.6474609375 765.229492188 213.201171875 c 0,23,24
 777.551757812 246.135742188 777.551757812 246.135742188 781.321289062 308.948242188 c 0,25,26
 792.248046875 491.212890625 792.248046875 491.212890625 652.224609375 499.598632812 c 0,27,28
 562.258789062 504.426757812 562.258789062 504.426757812 491.091796875 431.8828125 c 0,29,30
 395.762695312 332.315429688 395.762695312 332.315429688 356.9765625 244.022460938 c 1,19,20
EndSplineSet
EndChar

StartChar: uniFEE4
Encoding: 65252 65252 239
Width: 1161
VWidth: 2424
GlyphClass: 2
Flags: W
AnchorPoint: "Anchor-10" 462.904 1039.86 basechar 0
AnchorPoint: "Anchor-7" 389.854 -248.081 basechar 0
LayerCount: 2
Fore
SplineSet
356.9765625 244.022460938 m 1,0,1
 405.370117188 196.4453125 405.370117188 196.4453125 520.0390625 153.227539062 c 0,2,3
 715.270507812 79.6474609375 715.270507812 79.6474609375 765.229492188 213.201171875 c 0,4,5
 777.551757812 246.135742188 777.551757812 246.135742188 781.321289062 308.948242188 c 0,6,7
 792.248046875 491.212890625 792.248046875 491.212890625 652.224609375 499.598632812 c 0,8,9
 562.258789062 504.426757812 562.258789062 504.426757812 491.091796875 431.8828125 c 0,10,11
 395.762695312 332.315429688 395.762695312 332.315429688 356.9765625 244.022460938 c 1,0,1
247.98828125 131.153320312 m 1,12,13
 170.857421875 -0 170.857421875 -0 37.0283203125 0 c 2,14,-1
 -23.6953125 0 l 1,15,-1
 -23.6953125 183.989257812 l 1,16,-1
 24.767578125 183.989257812 l 2,17,18
 108.2890625 183.989257812 108.2890625 183.989257812 157.880859375 245.690429688 c 0,19,20
 189.135742188 284.5703125 189.135742188 284.5703125 282.809570312 427.734375 c 0,21,22
 463.48046875 702.893554688 463.48046875 702.893554688 681.984375 673.283203125 c 0,23,24
 894.612304688 643.743164062 894.612304688 643.743164062 927.083007812 383.7890625 c 0,25,26
 952.024414062 184.112304688 952.024414062 184.112304688 1147.63671875 184.112304688 c 2,27,-1
 1183.35058594 184.112304688 l 1,28,-1
 1183.35058594 0.2333984375 l 1,29,-1
 1082.16601562 0.2333984375 l 2,30,31
 966.275390625 0.2333984375 966.275390625 0.2333984375 901.734375 102.939453125 c 1,32,-1
 897.522460938 102.026367188 l 1,33,34
 855.720703125 -12.052734375 855.720703125 -12.052734375 706.46875 -34.375 c 0,35,36
 469.288085938 -69.251953125 469.288085938 -69.251953125 247.98828125 131.153320312 c 1,12,13
EndSplineSet
EndChar

StartChar: uniFEEA
Encoding: 65258 65258 245
Width: 992
VWidth: 2424
GlyphClass: 2
Flags: W
AnchorPoint: "Anchor-10" 594.907 927.94 basechar 0
AnchorPoint: "Anchor-7" 429.103 -258.389 basechar 0
LayerCount: 2
Fore
SplineSet
93.4287109375 -37.748046875 m 1,0,1
 179.637695312 197.66796875 179.637695312 197.66796875 273.307617188 336.337890625 c 128,-1,2
 366.977539062 475.0078125 366.977539062 475.0078125 445.051757812 533.932617188 c 128,-1,3
 523.125 592.858398438 523.125 592.858398438 602.810546875 597.865234375 c 0,4,5
 759.237304688 606.846679688 759.237304688 606.846679688 763.122070312 475.3828125 c 0,6,7
 765.53515625 389.73046875 765.53515625 389.73046875 784.286132812 278.19921875 c 0,8,9
 799.922851562 184.0390625 799.922851562 184.0390625 926.271484375 184.012695312 c 2,10,-1
 1013.2265625 183.993164062 l 1,11,-1
 1013.2265625 0 l 1,12,-1
 902.953125 0 l 2,13,14
 629.873046875 0 629.873046875 0 621.489257812 303.450195312 c 0,15,16
 617.754882812 438.63671875 617.754882812 438.63671875 578.826171875 428.423828125 c 0,17,18
 480.067382812 402.501953125 480.067382812 402.501953125 355.046875 153.712890625 c 0,19,20
 262.819335938 -29.8193359375 262.819335938 -29.8193359375 233.357421875 -110.423828125 c 1,21,-1
 93.4287109375 -37.748046875 l 1,0,1
EndSplineSet
EndChar

StartChar: uniFEEB
Encoding: 65259 65259 246
Width: 1343
VWidth: 2424
GlyphClass: 2
Flags: W
AnchorPoint: "Anchor-10" 570.504 1263.72 basechar 0
AnchorPoint: "Anchor-7" 470.415 -258.928 basechar 0
LayerCount: 2
Fore
SplineSet
423.557617188 228.50390625 m 1,0,1
 622 344 622 344 546.342773438 469.899414062 c 24,2,3
 501 545 501 545 407.526367188 514.25390625 c 0,4,5
 338 491 338 491 309.545898438 417.669921875 c 0,6,7
 264 301 264 301 423.557617188 228.50390625 c 1,0,1
575.71484375 192.671875 m 1,8,9
 1068 115 1068 115 1081.57324219 298.90625 c 0,10,11
 1091 426 1091 426 794.576171875 645.217773438 c 0,12,13
 580 804 580 804 323.891601562 883.615234375 c 1,14,-1
 418.213867188 1019.26660156 l 1,15,16
 597 962 597 962 790.7734375 840.888671875 c 0,17,18
 1217 573 1217 573 1236.37207031 313.748046875 c 0,19,20
 1256 50 1256 50 870.006835938 23.357421875 c 0,21,22
 637 7 637 7 460.96875 94.560546875 c 1,23,24
 245 0 245 0 7.7138671875 0 c 2,25,-1
 -10.3447265625 0 l 1,26,-1
 -10.3447265625 183.989257812 l 1,27,-1
 100.575195312 183.989257812 l 1,28,-1
 257.780273438 185.86328125 l 1,29,30
 184 256 184 256 174.5859375 314.7734375 c 0,31,32
 153 442 153 442 221.92578125 537.766601562 c 0,33,34
 288 630 288 630 402.578125 652.03515625 c 0,35,36
 547 679 547 679 637.993164062 583.940429688 c 24,37,38
 737.091933711 481.875381937 737.091933711 481.875381937 693.7578125 344.50390625 c 0,39,40
 663 248 663 248 575.71484375 192.671875 c 1,8,9
EndSplineSet
EndChar

StartChar: uniFEEC
Encoding: 65260 65260 247
Width: 1008
VWidth: 2424
GlyphClass: 2
Flags: W
AnchorPoint: "Anchor-7" 339.892 -761.909 basechar 0
AnchorPoint: "Anchor-10" 496.908 908.55 basechar 0
LayerCount: 2
Fore
SplineSet
25.7646484375 184.1015625 m 2,0,1
 229.619134118 184.639205001 229.619134118 184.639205001 383.142578125 330.072265625 c 0,2,3
 496 437 496 437 545.423828125 393.111328125 c 0,4,5
 595 349 595 349 473.244140625 155.333984375 c 0,6,7
 352 -38 352 -38 331.05859375 -419.59375 c 1,8,9
 432 -91 432 -91 692.166015625 85.4375 c 0,10,11
 838 185 838 185 978.245117188 185.1015625 c 1,12,-1
 1023.66210938 184.499023438 l 1,13,-1
 1023.66210938 0.5029296875 l 1,14,-1
 946.341796875 0 l 2,15,16
 697 -2 697 -2 545.739257812 -301.473632812 c 0,17,18
 411 -568 411 -568 362.896484375 -593.759765625 c 0,19,20
 315 -620 315 -620 276.188476562 -590.044921875 c 0,21,22
 212 -539 212 -539 241.350585938 -249.178710938 c 0,23,24
 263 -39 263 -39 352.456054688 174.759765625 c 1,25,-1
 348.908203125 176.581054688 l 1,26,27
 318 126 318 126 204.732421875 63.2041015625 c 0,28,29
 91 0 91 0 7.9609375 0 c 2,30,-1
 -14.9658203125 0 l 1,31,-1
 -14.9658203125 183.994140625 l 1,32,-1
 25.7646484375 184.1015625 l 2,0,1
EndSplineSet
EndChar

StartChar: uniFEEE
Encoding: 65262 65262 249
Width: 884
VWidth: 2424
GlyphClass: 2
Flags: W
AnchorPoint: "Anchor-10" 418.287 1089.14 basechar 0
AnchorPoint: "Anchor-7" 343.772 -664.34 basechar 0
LayerCount: 2
Fore
SplineSet
454.221679688 567.75 m 0,0,1
 322 564 322 564 271.422851562 331.252929688 c 0,2,3
 242.605962046 201.57677067 242.605962046 201.57677067 443.765625 177.966796875 c 0,4,5
 487 173 487 173 622.309570312 181.33984375 c 1,6,7
 626 572 626 572 454.221679688 567.75 c 0,0,1
764.791015625 0.556640625 m 1,8,9
 732 -172 732 -172 629.78515625 -289.760742188 c 0,10,11
 462 -483 462 -483 179.450195312 -515.232421875 c 1,12,-1
 104.064453125 -398.504882812 l 1,13,14
 506 -308 506 -308 613.866210938 1.6416015625 c 1,15,-1
 490.969726562 0 l 1,16,17
 222 0 222 0 147.840820312 131.528320312 c 0,18,19
 112 195 112 195 122.494140625 283.831054688 c 0,20,21
 151 524 151 524 268.853515625 654.520507812 c 0,22,23
 354 749 354 749 497.133789062 737.5390625 c 0,24,25
 640 726 640 726 704.908203125 570.796875 c 0,26,27
 758 444 758 444 768.3828125 319.185546875 c 0,28,29
 779 194 779 194 780.069335938 183.412109375 c 1,30,-1
 899.758789062 184.390625 l 1,31,-1
 899.758789062 0.556640625 l 1,32,-1
 764.791015625 0.556640625 l 1,8,9
EndSplineSet
EndChar

StartChar: uniFEF0
Encoding: 65264 65264 251
Width: 1324
VWidth: 2424
GlyphClass: 2
Flags: W
AnchorPoint: "Anchor-10" 621.753 762.163 basechar 0
AnchorPoint: "Anchor-7" 221.675 -740.437 basechar 0
LayerCount: 2
Fore
SplineSet
947.37890625 68.8876953125 m 0,0,1
 1048.1953125 186.2265625 1048.1953125 186.2265625 1307.21386719 184.606445312 c 2,2,-1
 1333.12792969 184.444335938 l 1,3,-1
 1333.12792969 0.537109375 l 1,4,-1
 1309.94921875 0 l 2,5,6
 1104 -5 1104 -5 1057.66503906 -60.84765625 c 0,7,8
 1030 -95 1030 -95 1098.94433594 -141.877929688 c 0,9,10
 1201 -211 1201 -211 1215.0625 -268.41015625 c 0,11,12
 1262 -469 1262 -469 997.592773438 -595.884765625 c 0,13,14
 745 -718 745 -718 423.387695312 -664.025390625 c 0,15,16
 119 -613 119 -613 95.7275390625 -307.951171875 c 0,17,18
 83 -138 83 -138 173.845703125 92.92578125 c 0,19,20
 264 324 264 324 438.157226562 557.936523438 c 1,21,-1
 549.760742188 471.185546875 l 1,22,23
 498 401 498 401 384.264648438 180.65625 c 0,24,25
 222 -133 222 -133 266.5 -313 c 128,-1,26
 311 -493 311 -493 526.327148438 -511.026367188 c 0,27,28
 880 -541 880 -541 1035.17480469 -382.154296875 c 0,29,30
 1095 -321 1095 -321 1035.14453125 -280.587890625 c 0,31,32
 882 -177 882 -177 886.72265625 -78.0419921875 c 0,33,34
 891 2 891 2 947.37890625 68.8876953125 c 0,0,1
EndSplineSet
EndChar

StartChar: uniFEFB
Encoding: 65275 65275 262
Width: 1100
VWidth: 2424
GlyphClass: 3
Flags: W
AnchorPoint: "Anchor-9" 856.529 1448.94 baselig 0
AnchorPoint: "Anchor-6" 819.905 -195.019 baselig 0
AnchorPoint: "Anchor-6" 200.031 -236.635 baselig 1
AnchorPoint: "Anchor-9" 188.941 1332.02 baselig 1
LayerCount: 2
Fore
SplineSet
674.610351562 234.973632812 m 0,0,1
 817 348 817 348 814.28125 690.759765625 c 0,2,3
 811 1015 811 1015 777.633789062 1297.24804688 c 1,4,-1
 930.5546875 1300.67089844 l 1,5,6
 966 1078 966 1078 967.873046875 697.9921875 c 0,7,8
 970 326 970 326 828.876953125 169.1640625 c 24,9,10
 677 -0 677 -0 368.563476562 0.556640625 c 0,11,12
 191 1 191 1 137.0390625 9.8076171875 c 1,13,-1
 137.0390625 193.586914062 l 1,14,15
 442 136 442 136 557.756835938 184.723632812 c 1,16,-1
 111.221679688 1062.09863281 l 1,17,-1
 258.032226562 1176.56054688 l 1,18,-1
 674.610351562 234.973632812 l 0,0,1
EndSplineSet
LCarets2: 1 0
Ligature2: "'rlig' Required Ligatures in Arabic lookup 16 subtable" uniFEDF uniFE8E
EndChar

StartChar: uniFEFC
Encoding: 65276 65276 263
Width: 1372
VWidth: 2424
GlyphClass: 3
Flags: W
AnchorPoint: "Anchor-9" 978.992 1435.35 baselig 0
AnchorPoint: "Anchor-6" 935.105 -232.406 baselig 0
AnchorPoint: "Anchor-6" 290.9 -240.925 baselig 1
AnchorPoint: "Anchor-9" 122.156 1295.73 baselig 1
LayerCount: 2
Fore
SplineSet
1326.33691406 0.556640625 m 2,0,1
 1029.08784377 0.556640625 1029.08784377 0.556640625 951.388671875 392.71484375 c 1,2,3
 901 250 901 250 828.876953125 169.1640625 c 0,4,5
 677 -0 677 -0 368.563476562 0.556640625 c 0,6,7
 191 1 191 1 137.0390625 9.8076171875 c 1,8,-1
 137.0390625 193.586914062 l 1,9,10
 442 136 442 136 557.756835938 184.723632812 c 1,11,-1
 111.221679688 1062.09863281 l 1,12,-1
 258.032226562 1176.56054688 l 1,13,-1
 667.610351562 241.973632812 l 1,14,15
 810 330 810 330 872.69140625 540.389648438 c 1,16,17
 908.735963624 684.941120391 908.735963624 684.941120391 902.020507812 891.501953125 c 2,18,-1
 889 1292 l 1,19,-1
 1056.46972656 1293.328125 l 1,20,-1
 1056.46972656 701.65625 l 2,21,22
 1056 484 1056 484 1099.26757812 384.661132812 c 0,23,24
 1185.81174214 184.435546875 1185.81174214 184.435546875 1324.86914062 184.435546875 c 2,25,-1
 1393.34570312 184.435546875 l 1,26,-1
 1393.34570312 0.556640625 l 1,27,-1
 1326.33691406 0.556640625 l 2,0,1
EndSplineSet
LCarets2: 1 0
Ligature2: "'rlig' Required Ligatures in Arabic lookup 16 subtable" uniFEE0 uniFE8E
EndChar

StartChar: arabic_dot
Encoding: 65536 -1 264
Width: 163
VWidth: 2276
GlyphClass: 2
Flags: W
LayerCount: 2
Fore
SplineSet
104.662109375 181.8984375 m 2,0,-1
 121.499023438 166.8671875 l 2,1,2
 214.225585938 84.10546875 214.225585938 84.10546875 122.008789062 4.6494140625 c 2,3,-1
 90.8583984375 -22.1904296875 l 2,4,5
 75.5009765625 -35.4228515625 75.5009765625 -35.4228515625 62.08203125 -21.8583984375 c 2,6,-1
 11.05078125 29.728515625 l 1,7,-1
 -33.845703125 65.755859375 l 2,8,9
 -48.68359375 77.6630859375 -48.68359375 77.6630859375 -33.0869140625 94.08203125 c 2,10,-1
 14.3076171875 143.9765625 l 1,11,-1
 57.17578125 184.055664062 l 2,12,13
 79.1884765625 204.638671875 79.1884765625 204.638671875 104.662109375 181.8984375 c 2,0,-1
EndSplineSet
EndChar

StartChar: arabic_2dots
Encoding: 65537 -1 265
Width: 499
VWidth: 2276
GlyphClass: 2
Flags: W
LayerCount: 2
Fore
SplineSet
135.52734375 185.7734375 m 2,0,-1
 152.352539062 170.752929688 l 2,1,2
 245.067382812 87.9794921875 245.067382812 87.9794921875 152.860351562 8.5341796875 c 2,3,-1
 121.711914062 -18.3046875 l 2,4,5
 106.353515625 -31.5380859375 106.353515625 -31.5380859375 92.9345703125 -17.97265625 c 2,6,-1
 41.90234375 33.61328125 l 5,7,-1
 -2.994140625 69.6416015625 l 2,8,9
 -17.8310546875 81.5478515625 -17.8310546875 81.5478515625 -2.234375 97.966796875 c 2,10,-1
 45.16015625 147.862304688 l 1,11,-1
 88.02734375 187.94140625 l 2,12,13
 110.040039062 208.525390625 110.040039062 208.525390625 135.52734375 185.7734375 c 2,0,-1
420.327148438 183.547851562 m 2,14,-1
 437.15234375 168.528320312 l 2,15,16
 529.861328125 85.75 529.861328125 85.75 437.66015625 6.3095703125 c 2,17,-1
 406.51171875 -20.5302734375 l 2,18,19
 391.153320312 -33.763671875 391.153320312 -33.763671875 377.734375 -20.1982421875 c 2,20,-1
 326.703125 31.388671875 l 1,21,-1
 281.805664062 67.416015625 l 2,22,23
 266.969726562 79.3232421875 266.969726562 79.3232421875 282.56640625 95.7421875 c 2,24,-1
 329.9609375 145.63671875 l 1,25,-1
 372.828125 185.716796875 l 2,26,27
 394.83984375 206.30078125 394.83984375 206.30078125 420.327148438 183.547851562 c 2,14,-1
EndSplineSet
EndChar

StartChar: arabic_3dots
Encoding: 65538 -1 266
Width: 503
VWidth: 2276
GlyphClass: 2
Flags: W
LayerCount: 2
Fore
SplineSet
276.305664062 404.7734375 m 2,0,-1
 293.072265625 389.8046875 l 2,1,2
 385.794921875 307.040039062 385.794921875 307.040039062 293.58203125 227.5859375 c 2,3,-1
 262.431640625 200.747070312 l 2,4,5
 247.076171875 187.514648438 247.076171875 187.514648438 233.654296875 201.079101562 c 2,6,-1
 182.623046875 252.665039062 l 1,7,-1
 137.727539062 288.692382812 l 2,8,9
 122.76171875 300.46484375 122.76171875 300.46484375 138.486328125 317.018554688 c 2,10,-1
 185.767578125 366.793945312 l 1,11,-1
 228.748046875 406.9921875 l 2,12,13
 250.759765625 427.576171875 250.759765625 427.576171875 276.305664062 404.7734375 c 2,0,-1
126.057617188 170.08984375 m 2,14,-1
 142.884765625 155.06640625 l 2,15,16
 235.61328125 72.3056640625 235.61328125 72.3056640625 143.39453125 -7.1513671875 c 2,17,-1
 112.244140625 -33.9912109375 l 2,18,19
 96.88671875 -47.22265625 96.88671875 -47.22265625 83.4677734375 -33.6591796875 c 2,20,-1
 32.435546875 17.927734375 l 1,21,-1
 -12.4609375 53.9560546875 l 2,22,23
 -27.2978515625 65.8623046875 -27.2978515625 65.8623046875 -11.701171875 82.28125 c 2,24,-1
 35.693359375 132.176757812 l 1,25,-1
 78.560546875 172.254882812 l 2,26,27
 100.573242188 192.838867188 100.573242188 192.838867188 126.057617188 170.08984375 c 2,14,-1
423.932617188 172.559570312 m 2,28,-1
 441.03515625 157.291992188 l 2,29,30
 533.762695312 74.53125 533.762695312 74.53125 441.543945312 -4.9267578125 c 2,31,-1
 410.39453125 -31.765625 l 2,32,33
 395.0390625 -44.998046875 395.0390625 -44.998046875 381.6171875 -31.43359375 c 2,34,-1
 330.5859375 20.15234375 l 1,35,-1
 285.689453125 56.1806640625 l 2,36,37
 270.852539062 68.0869140625 270.852539062 68.0869140625 286.448242188 84.5068359375 c 2,38,-1
 333.802734375 134.357421875 l 1,39,-1
 376.7109375 174.48046875 l 2,40,41
 398.72265625 195.063476562 398.72265625 195.063476562 423.932617188 172.559570312 c 2,28,-1
EndSplineSet
EndChar

StartChar: arabic_3dots_a
Encoding: 65539 -1 267
Width: 502
VWidth: 2276
GlyphClass: 2
Flags: W
LayerCount: 2
Fore
SplineSet
128.840820312 199.418945312 m 2,0,-1
 145.666015625 184.399414062 l 2,1,2
 238.38671875 101.630859375 238.38671875 101.630859375 146.17578125 22.1806640625 c 2,3,-1
 115.025390625 -4.658203125 l 2,4,5
 99.66796875 -17.8916015625 99.66796875 -17.8916015625 86.2490234375 -4.326171875 c 2,6,-1
 35.216796875 47.259765625 l 1,7,-1
 -9.6796875 83.2880859375 l 2,8,9
 -24.515625 95.1943359375 -24.515625 95.1943359375 -8.919921875 111.61328125 c 2,10,-1
 38.43359375 161.465820312 l 1,11,-1
 81.341796875 201.586914062 l 2,12,13
 103.354492188 222.170898438 103.354492188 222.170898438 128.840820312 199.418945312 c 2,0,-1
424.765625 198.306640625 m 2,14,-1
 441.591796875 183.286132812 l 2,15,16
 534.310546875 100.518554688 534.310546875 100.518554688 442.100585938 21.068359375 c 2,17,-1
 410.950195312 -5.771484375 l 2,18,19
 395.592773438 -19.00390625 395.592773438 -19.00390625 382.172851562 -5.4384765625 c 2,20,-1
 331.141601562 46.1474609375 l 1,21,-1
 286.24609375 82.17578125 l 2,22,23
 271.408203125 94.08203125 271.408203125 94.08203125 287.004882812 110.500976562 c 2,24,-1
 334.399414062 160.396484375 l 1,25,-1
 377.266601562 200.474609375 l 2,26,27
 399.279296875 221.05859375 399.279296875 221.05859375 424.765625 198.306640625 c 2,14,-1
275.956054688 -25.54296875 m 2,28,-1
 292.516601562 -40.326171875 l 2,29,30
 385.237304688 -123.088867188 385.237304688 -123.088867188 293.025390625 -202.544921875 c 2,31,-1
 261.875976562 -229.383789062 l 2,32,33
 246.521484375 -242.6171875 246.521484375 -242.6171875 233.098632812 -229.05078125 c 2,34,-1
 182.06640625 -177.46484375 l 1,35,-1
 137.170898438 -141.436523438 l 2,36,37
 122.333007812 -129.530273438 122.333007812 -129.530273438 137.9296875 -113.111328125 c 2,38,-1
 185.32421875 -63.2158203125 l 1,39,-1
 228.192382812 -23.1376953125 l 2,40,41
 250.204101562 -2.5537109375 250.204101562 -2.5537109375 275.956054688 -25.54296875 c 2,28,-1
38.474609375 161.508789062 m 1,42,-1
 38.390625 161.424804688 l 1,43,-1
 38.474609375 161.508789062 l 1,42,-1
EndSplineSet
EndChar

StartChar: uni066E.fina
Encoding: 65540 -1 268
Width: 2218
VWidth: 2424
GlyphClass: 2
Flags: W
AnchorPoint: "Anchor-10" 779.088 1177.81 basechar 0
AnchorPoint: "Anchor-7" 779.088 -201.138 basechar 0
LayerCount: 2
Fore
SplineSet
2146.38378906 0.556640625 m 2,0,1
 1875.07364426 0.556640625 1875.07364426 0.556640625 1832.15234375 258.955078125 c 1,2,3
 1634 113 1634 113 1509.70703125 73.7529296875 c 0,4,5
 1277 0 1277 0 923.12890625 0 c 0,6,7
 569 -0 569 -0 365.866210938 89.7236328125 c 0,8,9
 112 202 112 202 96.138671875 465.259765625 c 0,10,11
 83 687 83 687 235.404296875 884.463867188 c 1,12,-1
 362 818.916992188 l 5,13,14
 245 659 245 659 252.344726562 485.079101562 c 0,15,16
 262 254 262 254 613.885742188 200.03125 c 0,17,18
 699 187 699 187 894.864257812 186.256835938 c 1,19,20
 1278 175 1278 175 1442.76855469 230.149414062 c 0,21,22
 1769 339 1769 339 1832.31640625 594.296875 c 1,23,-1
 1949.6640625 594.296875 l 1,24,-1
 1941.74902344 459.388671875 l 2,25,26
 1932 297 1932 297 2018 230 c 0,27,28
 2074.46030061 184.435546875 2074.46030061 184.435546875 2196.37890625 184.435546875 c 2,29,-1
 2233.6640625 184.435546875 l 1,30,-1
 2233.6640625 0.556640625 l 1,31,-1
 2146.38378906 0.556640625 l 2,0,1
EndSplineSet
EndChar

StartChar: uni06A1.fina
Encoding: 65543 -1 271
Width: 2098
VWidth: 2424
GlyphClass: 2
Flags: W
AnchorPoint: "Anchor-10" 598.862 1296.84 basechar 0
AnchorPoint: "Anchor-7" 717.9 -250.644 basechar 0
LayerCount: 2
Fore
SplineSet
1757.33691406 383.3828125 m 0,0,1
 1812.01171875 434.666992188 1812.01171875 434.666992188 1812.00585938 510.833984375 c 128,-1,2
 1812 587 1812 587 1757.5 640 c 128,-1,3
 1703 693 1703 693 1626 693 c 128,-1,4
 1549 693 1549 693 1495 640 c 128,-1,5
 1441 587 1441 587 1441.01074219 510.052734375 c 128,-1,6
 1441.02050781 433.10546875 1441.02050781 433.10546875 1494.89746094 383.384765625 c 0,7,8
 1576 310 1576 310 1626.12304688 293.809570312 c 1,9,10
 1683 316 1683 316 1757.33691406 383.3828125 c 0,0,1
2032.00683594 0.556640625 m 2,11,12
 1820.76460872 0.556640625 1820.76460872 0.556640625 1623.60839844 114.877929688 c 1,13,14
 1390 0 1390 0 1161 0 c 0,15,16
 959.623046875 0 l 0,17,18
 574 -0 574 -0 370.31640625 89.7236328125 c 0,19,20
 116 202 116 202 100.588867188 465.259765625 c 0,21,22
 87 687 87 687 239.853515625 884.463867188 c 1,23,-1
 360 818.916992188 l 1,24,25
 249 667 249 667 256.793945312 485.079101562 c 0,26,27
 267 255 267 255 618.362304688 200.02734375 c 0,28,29
 689 189 689 189 864.5 185.5 c 128,-1,30
 1040 182 1040 182 1138 184 c 128,-1,31
 1236 186 1236 186 1453.51757812 219.418945312 c 1,32,33
 1361 280 1361 280 1312.90625 385.409179688 c 0,34,35
 1266 490 1266 490 1297.49902344 605.9140625 c 0,36,37
 1341 768 1341 768 1480.69726562 825.34375 c 0,38,39
 1546 852 1546 852 1606 853.5 c 132,-1,40
 1666 855 1666 855 1696.8046875 848.3046875 c 0,41,42
 1801.20508353 832.023764556 1801.20508353 832.023764556 1870.5 766.5 c 0,43,44
 1944 697 1944 697 1964 593.5 c 128,-1,45
 1984 490 1984 490 1949.5 392 c 128,-1,46
 1915 294 1915 294 1784.86914062 208.015625 c 1,47,48
 1809.54422726 184.435546875 1809.54422726 184.435546875 2040.54003906 184.435546875 c 2,49,-1
 2118.31738281 184.435546875 l 1,50,-1
 2118.31738281 0.556640625 l 1,51,-1
 2032.00683594 0.556640625 l 2,11,12
EndSplineSet
EndChar

StartChar: uni06A1.init
Encoding: 65544 -1 272
Width: 880
VWidth: 2424
GlyphClass: 2
Flags: W
AnchorPoint: "Anchor-10" 411.152 1330.26 basechar 0
AnchorPoint: "Anchor-7" 383.34 -191.125 basechar 0
LayerCount: 2
Fore
SplineSet
455.874023438 914.040039062 m 0,0,1
 310 910 310 910 267.069335938 715.5078125 c 0,2,3
 226 526 226 526 486.064453125 542.9140625 c 0,4,5
 560 548 560 548 612.838867188 550.661132812 c 1,6,-1
 612.85546875 552.497070312 l 2,7,8
 613.935546875 641.653320312 613.935546875 641.653320312 595.313476562 738.515625 c 0,9,10
 561 917 561 917 455.874023438 914.040039062 c 0,0,1
604.606445312 393.9296875 m 1,11,-1
 475.079101562 374.450195312 l 1,12,13
 211 356 211 356 145.078125 485.743164062 c 0,14,15
 100 575 100 575 114.146484375 668.110351562 c 0,16,17
 143 860 143 860 270.5078125 1000.81054688 c 0,18,19
 357 1096 357 1096 493.524414062 1084.37597656 c 0,20,21
 630 1073 630 1073 695.439453125 917.086914062 c 0,22,23
 748 791 748 791 759 680.5 c 128,-1,24
 770 570 770 570 770.416015625 561.513671875 c 0,25,26
 775 301 775 301 614.672851562 150.46875 c 0,27,28
 454 0 454 0 61.1884765625 0 c 2,29,-1
 -15.6953125 0 l 1,30,-1
 -15.6953125 183.990234375 l 1,31,-1
 51.224609375 183.990234375 l 2,32,33
 157 184 157 184 199.26953125 186.9140625 c 0,34,35
 545 210 545 210 604.606445312 393.9296875 c 1,11,-1
EndSplineSet
EndChar

StartChar: uni06A1.medi
Encoding: 65545 -1 273
Width: 1092
VWidth: 2424
GlyphClass: 2
Flags: W
AnchorPoint: "Anchor-10" 540.189 1118.29 basechar 0
AnchorPoint: "Anchor-7" 540.189 -191.125 basechar 0
LayerCount: 2
Fore
SplineSet
356.6171875 508.356445312 m 0,0,1
 357.033203125 429.6796875 357.033203125 429.6796875 410.91015625 379.958984375 c 0,2,3
 492.012695312 306.57421875 492.012695312 306.57421875 542.135742188 290.383789062 c 1,4,5
 599.012695312 312.57421875 599.012695312 312.57421875 673.349609375 379.958007812 c 0,6,7
 728.024414062 431.241210938 728.024414062 431.241210938 727.642578125 508.356445312 c 0,8,9
 728.012695312 583.57421875 728.012695312 583.57421875 673.4296875 636.17578125 c 0,10,11
 619.012695312 689.57421875 619.012695312 689.57421875 542.135742188 689.32421875 c 0,12,13
 465.012695312 689.57421875 465.012695312 689.57421875 410.842773438 636.17578125 c 0,14,15
 357.012695312 583.57421875 357.012695312 583.57421875 356.6171875 508.356445312 c 0,0,1
700.881835938 204.58984375 m 1,16,17
 764.907192334 182.689690899 764.907192334 182.689690899 1029.4609375 183.990234375 c 2,18,-1
 1114.0859375 184.40625 l 1,19,-1
 1114.0859375 0.5400390625 l 1,20,-1
 877.78515625 0 l 2,21,22
 721 -0 721 -0 540.314453125 120.189453125 c 1,23,24
 357 0 357 0 203.69140625 0 c 2,25,-1
 -23.6953125 0 l 1,26,-1
 -23.6953125 183.990234375 l 1,27,-1
 50.9453125 183.990234375 l 2,28,29
 287 184 287 184 369.530273438 215.993164062 c 1,30,31
 277 276 277 276 227.318359375 385.51171875 c 0,32,33
 181 488 181 488 213.51171875 602.48828125 c 0,34,35
 258 761 258 761 396.709960938 817.91796875 c 0,36,37
 455.833852533 842.592036332 455.833852533 842.592036332 521.977539062 845.59375 c 4,38,39
 575 848 575 848 612.817382812 840.87890625 c 0,40,41
 716.428960088 825.738349587 716.428960088 825.738349587 786.512695312 759.07421875 c 0,42,43
 859 691 859 691 878.821289062 591.57421875 c 0,44,45
 900 487 900 487 865.84375 389.448242188 c 0,46,47
 831 291 831 291 700.881835938 204.58984375 c 1,16,17
EndSplineSet
EndChar

StartChar: uni066F.fina
Encoding: 65546 -1 274
Width: 1493
VWidth: 2424
GlyphClass: 2
Flags: W
AnchorPoint: "Anchor-10" 223.537 999.25 basechar 0
AnchorPoint: "Anchor-7" 316.593 -801.688 basechar 0
LayerCount: 2
Fore
SplineSet
1038.83886719 568.564453125 m 4,0,1
 906.6171875 564.814453125 906.6171875 564.814453125 856.040039062 332.067382812 c 4,2,3
 827.223632812 202.391601562 827.223632812 202.391601562 1028.3828125 178.78125 c 4,4,5
 1071.6171875 173.814453125 1071.6171875 173.814453125 1206.92675781 182.154296875 c 5,6,7
 1210.6171875 572.814453125 1210.6171875 572.814453125 1038.83886719 568.564453125 c 4,0,1
1206.48339844 2.4560546875 m 5,8,9
 1075.58691406 0.814453125 l 5,10,11
 806 1 806 1 732.458007812 132.342773438 c 4,12,13
 697 196 697 196 707.111328125 284.645507812 c 4,14,15
 736 525 736 525 853.470703125 655.334960938 c 4,16,17
 939 750 939 750 1081.75097656 738.353515625 c 4,18,19
 1225 727 1225 727 1289.52539062 571.611328125 c 4,20,21
 1343 445 1343 445 1353 320 c 4,22,23
 1364 195 1364 195 1364.68652344 184.2265625 c 5,24,-1
 1452.34960938 184.435546875 l 1,25,-1
 1513.10546875 184.435546875 l 1,26,-1
 1513.10546875 0.57421875 l 1,27,-1
 1361.28417969 1.9072265625 l 5,28,29
 1346 -254 1346 -254 1227.00488281 -401.6640625 c 4,30,31
 1081 -583 1081 -583 748.474609375 -595.758789062 c 4,32,33
 461 -607 461 -607 302.139648438 -503.731445312 c 4,34,35
 87 -363 87 -363 97.232421875 -93.8662109375 c 4,36,37
 111 255 111 255 389.67578125 538.21875 c 5,38,-1
 506.79296875 450.897460938 l 5,39,40
 122 -43 122 -43 339.833984375 -305.858398438 c 4,41,42
 444 -432 444 -432 754.35546875 -429.338867188 c 4,43,44
 1198 -426 1198 -426 1208.60644531 -31.0673828125 c 4,45,46
 1209 -17 1209 -17 1206.48339844 2.4560546875 c 5,8,9
EndSplineSet
EndChar

StartChar: arabic_ring
Encoding: 65549 -1 277
Width: 484
VWidth: 2276
GlyphClass: 2
Flags: W
LayerCount: 2
Fore
SplineSet
296.046875 338.033203125 m 0,0,1
 271.557617188 352.662109375 271.557617188 352.662109375 232.877929688 352.662109375 c 128,-1,2
 194.197265625 352.662109375 194.197265625 352.662109375 162.4609375 320.926757812 c 128,-1,3
 130.724609375 289.190429688 130.724609375 289.190429688 130.724609375 242.193359375 c 128,-1,4
 130.724609375 195.197265625 130.724609375 195.197265625 162.470703125 164.017578125 c 128,-1,5
 194.217773438 132.837890625 194.217773438 132.837890625 240.6484375 132.837890625 c 0,6,7
 287.079101562 132.837890625 287.079101562 132.837890625 318.814453125 164.573242188 c 128,-1,8
 350.549804688 196.30859375 350.549804688 196.30859375 350.549804688 250.893554688 c 128,-1,9
 350.549804688 305.477539062 350.549804688 305.477539062 296.046875 338.033203125 c 0,0,1
482.275390625 242.75 m 128,-1,11
 482.275390625 141.219726562 482.275390625 141.219726562 412.216796875 70.609375 c 128,-1,12
 342.159179688 0 342.159179688 0 240.637695312 0 c 128,-1,13
 139.125 0 139.125 0 69.0625 70.6142578125 c 128,-1,14
 -1 141.228515625 -1 141.228515625 -1 242.75 c 128,-1,15
 -1 344.271484375 -1 344.271484375 69.0576171875 414.330078125 c 128,-1,16
 139.115234375 484.387695312 139.115234375 484.387695312 240.637695312 484.387695312 c 128,-1,17
 342.16796875 484.387695312 342.16796875 484.387695312 412.7734375 414.885742188 c 0,18,10
 482.275390625 344.280273438 482.275390625 344.280273438 482.275390625 242.75 c 128,-1,11
EndSplineSet
EndChar

StartChar: arabic_gaf_bar
Encoding: 65550 -1 278
Width: 746
VWidth: 2276
GlyphClass: 2
Flags: W
LayerCount: 2
Fore
SplineSet
735.924804688 1814.98535156 m 5,0,1
 385 1739 385 1739 -1 1485.32128906 c 1,2,-1
 -1 1601.32324219 l 5,3,4
 365 1847 365 1847 735.924804688 1932.13867188 c 5,5,-1
 735.924804688 1814.98535156 l 5,0,1
EndSplineSet
EndChar

StartChar: uni066E.init.math
Encoding: 65560 -1 288
Width: 972
VWidth: 2424
GlyphClass: 2
Flags: W
LayerCount: 2
Fore
SplineSet
633.579101562 103.881835938 m 0,0,1
 553.874023438 9.4560546875 553.874023438 9.4560546875 377.919921875 9.4560546875 c 2,2,-1
 -4.783203125 9.4560546875 l 1,3,-1
 -4.783203125 184.435546875 l 1,4,-1
 312.44921875 184.435546875 l 2,5,6
 563.026367188 184.435546875 563.026367188 184.435546875 563.026367188 443.344726562 c 2,7,-1
 563.026367188 679.630859375 l 1,8,-1
 738.005859375 679.630859375 l 1,9,-1
 738.005859375 443.344726562 l 2,10,11
 738.005859375 229.372070312 738.005859375 229.372070312 633.579101562 103.881835938 c 0,0,1
EndSplineSet
EndChar

StartChar: guillemotleft
Encoding: 171 171 289
Width: 1230
VWidth: -7
Flags: W
LayerCount: 2
Fore
SplineSet
1041.57714844 963.059570312 m 1,0,-1
 1041.57714844 758.268554688 l 1,1,-1
 834.836914062 581.663085938 l 2,2,3
 824.282226562 572.266601562 824.282226562 572.266601562 815.8984375 562.877929688 c 0,4,5
 801.028320312 546.2265625 801.028320312 546.2265625 792.843362723 529.916015625 c 0,6,7
 784.379045776 513.60546875 784.379045776 513.60546875 782.981013845 497.086914062 c 128,-1,8
 781.584010635 480.567382812 781.584010635 480.567382812 787.60922993 463.88671875 c 128,-1,9
 793.634449224 447.206054688 793.634449224 447.206054688 806.487304688 430.0625 c 128,-1,10
 819.229492188 412.918945312 819.229492188 412.918945312 839.229492188 395.112304688 c 2,11,-1
 1041.57714844 222.416992188 l 1,12,-1
 1041.57714844 17.625 l 1,13,-1
 738.075281789 278.048828125 l 2,14,15
 733.135363221 282.228515625 733.135363221 282.228515625 728.393987819 286.409179688 c 128,-1,16
 723.652612417 290.58984375 723.652612417 290.58984375 719.100521691 294.779296875 c 128,-1,17
 714.549459687 298.969726562 714.549459687 298.969726562 710.195912127 303.162109375 c 128,-1,18
 705.841335847 307.35546875 705.841335847 307.35546875 701.679130406 311.557617188 c 128,-1,19
 697.515896244 315.760742188 697.515896244 315.760742188 693.550176527 319.966796875 c 0,20,21
 633.758850618 383.388671875 633.758850618 383.388671875 619.19524646 448.018554688 c 128,-1,22
 604.63061358 512.647460938 604.63061358 512.647460938 635.108532659 576.9765625 c 128,-1,23
 665.585423017 641.3046875 665.585423017 641.3046875 740.38887547 704.592773438 c 2,24,-1
 1041.57714844 963.059570312 l 1,0,-1
582.689021923 963.059570312 m 1,25,-1
 582.689021923 758.268554688 l 1,26,-1
 366.754882812 581.663085938 l 2,27,28
 361.466796875 576.955078125 361.466796875 576.955078125 356.732421875 572.256835938 c 128,-1,29
 351.997070312 567.559570312 351.997070312 567.559570312 347.817382812 562.877929688 c 0,30,31
 335.434570312 549.010742188 335.434570312 549.010742188 327.797851562 535.401367188 c 128,-1,32
 320.162109375 521.791992188 320.162109375 521.791992188 317.16015625 508.044921875 c 128,-1,33
 314.159179688 494.297851562 314.159179688 494.297851562 316.00390625 480.541992188 c 128,-1,34
 317.849609375 466.787109375 317.849609375 466.787109375 324.537109375 452.71875 c 128,-1,35
 331.223632812 438.651367188 331.223632812 438.651367188 342.8515625 424.302734375 c 128,-1,36
 354.479492188 409.954101562 354.479492188 409.954101562 371.1484375 395.112304688 c 2,37,-1
 582.689021923 222.416992188 l 1,38,-1
 582.689021923 17.625 l 1,39,-1
 272.921875 278.048828125 l 2,40,41
 249.440429688 298.975585938 249.440429688 298.975585938 230.654296875 319.966796875 c 0,42,43
 173.89453125 383.388671875 173.89453125 383.388671875 160.068359375 448.018554688 c 128,-1,44
 146.243164062 512.647460938 146.243164062 512.647460938 175.174804688 576.9765625 c 128,-1,45
 204.107421875 641.3046875 204.107421875 641.3046875 275.1171875 704.592773438 c 2,46,-1
 582.689021923 963.059570312 l 1,25,-1
EndSplineSet
EndChar

StartChar: guillemotright
Encoding: 187 187 290
Width: 1221
VWidth: -7
Flags: W
LayerCount: 2
Fore
SplineSet
188.875976562 963.059570312 m 1,0,-1
 490.063233255 704.59375 l 2,1,2
 515.855333661 682.772460938 515.855333661 682.772460938 536.369065083 660.924804688 c 0,3,4
 625.983034874 565.056640625 625.983034874 565.056640625 614.685617569 468.514648438 c 128,-1,5
 603.389228986 371.97265625 603.389228986 371.97265625 492.377856177 278.049804688 c 2,6,-1
 188.875976562 17.625 l 1,7,-1
 188.875976562 222.416992188 l 1,8,-1
 391.224609375 395.11328125 l 2,9,10
 392.9140625 396.616210938 392.9140625 396.616210938 394.551757812 398.118164062 c 128,-1,11
 396.190429688 399.620117188 396.190429688 399.620117188 397.7734375 401.116210938 c 128,-1,12
 399.356445312 402.612304688 399.356445312 402.612304688 400.888671875 404.106445312 c 128,-1,13
 402.420898438 405.600585938 402.420898438 405.600585938 403.899414062 407.08984375 c 128,-1,14
 405.376953125 408.578125 405.376953125 408.578125 406.803710938 410.065429688 c 128,-1,15
 408.23046875 411.551757812 408.23046875 411.551757812 409.603515625 413.032226562 c 128,-1,16
 410.975585938 414.513671875 410.975585938 414.513671875 412.297851562 415.9921875 c 0,17,18
 451.522189791 458.592773438 451.522189791 458.592773438 447.372328071 499.127929688 c 128,-1,19
 443.222466351 539.6640625 443.222466351 539.6640625 395.616210938 581.663085938 c 2,20,-1
 188.875976562 758.268554688 l 1,21,-1
 188.875976562 963.059570312 l 1,0,-1
647.764150936 963.059570312 m 1,22,-1
 955.334960938 704.59375 l 2,23,24
 967.56640625 693.692382812 967.56640625 693.692382812 978.5546875 682.77734375 c 128,-1,25
 989.543945312 671.862304688 989.543945312 671.862304688 999.29296875 660.924804688 c 0,26,27
 1056.00683594 597.298828125 1056.00683594 597.298828125 1070.14453125 532.810546875 c 128,-1,28
 1084.28320312 468.322265625 1084.28320312 468.322265625 1055.96972656 404.435546875 c 128,-1,29
 1027.65527344 340.548828125 1027.65527344 340.548828125 957.53125 278.049804688 c 2,30,-1
 647.764150936 17.625 l 1,31,-1
 647.764150936 222.416992188 l 1,32,-1
 859.303710938 395.110351562 l 2,33,34
 871.081054688 405.59765625 871.081054688 405.59765625 880.37109375 415.995117188 c 0,35,36
 899.56640625 437.478515625 899.56640625 437.478515625 908.146484375 458.043945312 c 128,-1,37
 916.7265625 478.609375 916.7265625 478.609375 914.770507812 499.130859375 c 128,-1,38
 912.813476562 519.651367188 912.813476562 519.651367188 900.1015625 540.110351562 c 128,-1,39
 887.388671875 560.569335938 887.388671875 560.569335938 863.698242188 581.663085938 c 2,40,-1
 647.764150936 758.268554688 l 1,41,-1
 647.764150936 963.059570312 l 1,22,-1
EndSplineSet
EndChar

